<?xml version="1.0" standalone="no"?>
<!DOCTYPE svg PUBLIC "-//W3C//DTD SVG 1.1//EN" "http://www.w3.org/Graphics/SVG/1.1/DTD/svg11.dtd" >
<svg xmlns="http://www.w3.org/2000/svg" xmlns:xlink="http://www.w3.org/1999/xlink" version="1.1">
<metadata>
Created by FontForge 20170731 at Fri Jan 17 13:27:41 2020
 By Aleksey,,,
</metadata>
<defs>
<font id="ElegantIcons" horiz-adv-x="512" >
  <font-face 
    font-family="ElegantIcons"
    font-weight="400"
    font-stretch="normal"
    units-per-em="512"
    panose-1="2 0 5 3 0 0 0 0 0 0"
    ascent="480"
    descent="-32"
    x-height="384"
    cap-height="448"
    bbox="-2 -34 513 480.524"
    underline-thickness="0"
    underline-position="0"
    unicode-range="U+0020-F000"
  />
<missing-glyph 
 />
    <glyph glyph-name=".notdef" 
 />
    <glyph glyph-name=".notdef" 
 />
    <glyph glyph-name=".null" horiz-adv-x="0" 
 />
    <glyph glyph-name="nonmarkingreturn" horiz-adv-x="170" 
 />
    <glyph glyph-name="space" unicode=" " horiz-adv-x="256" 
 />
    <glyph glyph-name="exclam" unicode="!" 
d="M272 32q7 0 11.5 4.5t4.5 11.5v313l69 -68q11 -12 22.5 -0.5t-0.5 22.5l-96 96q-2 3 -5 4t-6 1t-6 -1q-3 -2 -5 -4l-96 -96q-12 -11 0 -22q3 -3 7 -4.5t8 0t7 4.5l69 68v-313q0 -7 4.5 -11.5t11.5 -4.5z" />
    <glyph glyph-name="quotedbl" unicode="&#x22;" 
d="M272 416q-7 0 -11.5 -4.5t-4.5 -11.5v-313l-69 68q-11 12 -22.5 0.5t0.5 -22.5l96 -96l5 -4q3 -1 6 -1t6 1t5 4l96 96q3 2 4 5t1 6t-1 6t-4 5q-11 12 -22 0l-69 -68v313q0 7 -4.5 11.5t-11.5 4.5z" />
    <glyph glyph-name="numbersign" unicode="#" 
d="M64 240q0 -3 1 -6t4 -5l96 -96q11 -12 22.5 -0.5t-0.5 22.5l-68 69h313q7 0 11.5 4.5t4.5 11.5t-4.5 11.5t-11.5 4.5h-313l68 69q12 11 0 22q-4 5 -11 5t-11 -5l-96 -96q-3 -2 -4 -5q0 -1 -0.5 -2.5t-0.5 -3.5v0z" />
    <glyph glyph-name="dollar" unicode="$" 
d="M64 240q0 -7 4.5 -11.5t11.5 -4.5h313l-68 -69q-12 -11 -0.5 -22.5t22.5 0.5l96 96q3 2 4 5t1 6v0q0 4 -1 6t-2 3l-2 2l-96 96q-11 12 -22.5 0.5t0.5 -22.5l68 -69h-313q-7 0 -11.5 -4.5t-4.5 -11.5z" />
    <glyph glyph-name="percent" unicode="%" 
d="M64 240q0 -7 4.5 -11.5t11.5 -4.5t11.5 4.5t4.5 11.5v121l325 -324q11 -12 22.5 -0.5t-0.5 22.5l-324 325h121q7 0 11.5 4.5t4.5 11.5t-4.5 11.5t-11.5 4.5h-160q-2 0 -3.5 -0.5t-2.5 -0.5q-3 -1 -5 -4v0q-3 -2 -4 -5t-1 -6v-160z" />
    <glyph glyph-name="ampersand" unicode="&#x26;" 
d="M69 37q11 -12 22 0l325 324v-121q0 -7 4.5 -11.5t11.5 -4.5t11.5 4.5t4.5 11.5v160q0 2 -0.5 3.5t-0.5 2.5q-3 6 -9 9q-3 1 -6 1h-160q-7 0 -11.5 -4.5t-4.5 -11.5t4.5 -11.5t11.5 -4.5h121l-324 -325q-5 -4 -5 -11t5 -11z" />
    <glyph glyph-name="quotesingle" unicode="'" 
d="M432 224q-7 0 -11.5 -4.5t-4.5 -11.5v-121l-325 324q-11 12 -22.5 0.5t0.5 -22.5l324 -325h-121q-7 0 -11.5 -4.5t-4.5 -11.5t4.5 -11.5t11.5 -4.5h160q3 0 6 1q6 3 9 9q1 3 1 6v160q0 7 -4.5 11.5t-11.5 4.5z" />
    <glyph glyph-name="parenleft" unicode="(" 
d="M80 224q-7 0 -11.5 -4.5t-4.5 -11.5v-160l1 -6q1 -3 4 -5v0l5 -4q3 -1 6 -1h160q7 0 11.5 4.5t4.5 11.5t-4.5 11.5t-11.5 4.5h-121l324 325q12 11 0.5 22.5t-22.5 -0.5l-325 -324v121q0 7 -4.5 11.5t-11.5 4.5z" />
    <glyph glyph-name="parenright" unicode=")" 
d="M325 389q11 -12 22.5 -0.5t-0.5 22.5l-64 64q-2 3 -5 4t-6 1t-6 -1q-3 -2 -5 -4l-64 -64q-12 -11 0 -22q3 -3 7 -4.5t8 0t7 4.5l37 36v-402l-37 36q-11 12 -22.5 0.5t0.5 -22.5l64 -64l5 -4q2 -1 4 -1h4t4 1q3 1 5 4l64 64q12 11 0.5 22.5t-22.5 -0.5l-37 -36v402z" />
    <glyph glyph-name="asterisk" unicode="*" 
d="M292 -27q5 -5 12 -5t11 5l62 61q11 11 0 22.5t-23 0.5l-34 -34v281q0 6 -4.5 11t-11.5 5q-4 0 -8 -2t-6 -6t-2 -8v-282l-37 37q-11 11 -22 0q-5 -5 -5 -11.5t5 -11.5zM208 128q2 0 4 0.5t4 1.5t3.5 2.5t2.5 3.5t1.5 4t0.5 4v281l37 -36q11 -12 22.5 -0.5t-0.5 22.5
l-63 64q-3 2 -6 3.5t-6 1.5q-7 0 -11 -5l-62 -61q-11 -12 0 -23q2 -2 3.5 -3t3.5 -1.5t4.5 -0.5t4.5 0.5t3.5 1.5t3.5 3l34 34v-281q0 -7 4.5 -11.5t11.5 -4.5z" />
    <glyph glyph-name="plus" unicode="+" 
d="M89 103q11 11 0 23l-34 34h281q7 0 11.5 4.5t4.5 11.5t-4.5 11.5t-11.5 4.5h-281l36 37q5 4 5 11t-5 11q-11 12 -22 0l-64 -64q-5 -4 -5 -11t5 -11l61 -62q12 -11 23 0zM507 283l-61 62q-12 11 -23 -0.5t0 -22.5l34 -34h-281q-7 0 -11.5 -5t-4.5 -11.5t4.5 -11t11.5 -4.5
h281l-36 -37q-3 -3 -4.5 -7t0 -8.5t4.5 -7.5q11 -11 22 0l64 64q5 5 5 11.5t-5 11.5z" />
    <glyph glyph-name="comma" unicode="," 
d="M511 214l-4 5l-64 64q-11 12 -22.5 0.5t0.5 -22.5l36 -37h-402l36 37q12 11 0.5 22.5t-22.5 -0.5l-64 -64q-3 -2 -4 -5q0 -1 -0.5 -2.5t-0.5 -3.5v0q0 -3 1 -6t4 -5l64 -64q11 -12 22.5 -0.5t-0.5 22.5l-36 37h402l-36 -37q-12 -11 -0.5 -22.5t22.5 0.5l64 64q3 2 4 5
t1 6v0q0 4 -1 6z" />
    <glyph glyph-name="hyphen" unicode="-" 
d="M64 240q0 -7 4.5 -11.5t11.5 -4.5t11.5 4.5t4.5 11.5v121l297 -297h-121q-7 0 -11.5 -4.5t-4.5 -11.5t4.5 -11.5t11.5 -4.5h160q3 0 6 1q6 3 9 9q1 3 1 6v160q0 7 -4.5 11.5t-11.5 4.5t-11.5 -4.5t-4.5 -11.5v-121l-297 297h121q7 0 11.5 4.5t4.5 11.5t-4.5 11.5
t-11.5 4.5h-160q-2 0 -3.5 -0.5t-2.5 -0.5q-3 -1 -5 -4v0q-3 -2 -4 -5t-1 -6v-160z" />
    <glyph glyph-name="period" unicode="." 
d="M80 224q-7 0 -11.5 -4.5t-4.5 -11.5v-160l1 -6q1 -3 4 -5v0l5 -4q3 -1 6 -1h160q7 0 11.5 4.5t4.5 11.5t-4.5 11.5t-11.5 4.5h-121l297 297v-121q0 -7 4.5 -11.5t11.5 -4.5t11.5 4.5t4.5 11.5v160q0 2 -0.5 3.5t-0.5 2.5q-3 6 -9 9q-3 1 -6 1h-160q-7 0 -11.5 -4.5
t-4.5 -11.5t4.5 -11.5t11.5 -4.5h121l-297 -297v121q0 7 -4.5 11.5t-11.5 4.5z" />
    <glyph glyph-name="slash" unicode="/" 
d="M475.5 443.5q-11.5 11.5 -22.5 -0.5l-133 -132v89q0 7 -4.5 11.5t-11.5 4.5t-11.5 -4.5t-4.5 -11.5v-128q0 -2 0.5 -3.5t0.5 -2.5q1 -3 4 -5v0q2 -3 5 -4t6 -1h128q7 0 11.5 4.5t4.5 11.5t-4.5 11.5t-11.5 4.5h-89l132 133q12 11 0.5 22.5zM37 5q4 -5 11 -5t11 5l133 132
v-89q0 -7 4.5 -11.5t11.5 -4.5t11.5 4.5t4.5 11.5v128q0 4 -1 6t-2 3l-2 2l-2 2t-3 2q-3 1 -6 1h-128q-7 0 -11.5 -4.5t-4.5 -11.5t4.5 -11.5t11.5 -4.5h89l-132 -133q-12 -11 0 -22z" />
    <glyph glyph-name="zero" unicode="0" 
d="M479 438q-3 6 -9 9q-3 1 -6 1h-128q-7 0 -11.5 -4.5t-4.5 -11.5t4.5 -11.5t11.5 -4.5h89l-132 -133q-12 -11 -0.5 -22.5t22.5 0.5l133 132v-89q0 -7 4.5 -11.5t11.5 -4.5t11.5 4.5t4.5 11.5v128q0 2 -0.5 3.5t-0.5 2.5zM48 160q-7 0 -11.5 -4.5t-4.5 -11.5v-128l1 -6
q1 -3 4 -5v0q2 -3 5 -4t6 -1h128q7 0 11.5 4.5t4.5 11.5t-4.5 11.5t-11.5 4.5h-89l132 133q12 11 0 22q-3 3 -7 4.5t-8 0t-7 -4.5l-133 -132v89q0 7 -4.5 11.5t-11.5 4.5z" />
    <glyph glyph-name="one" unicode="1" 
d="M511 214l-4 5l-64 64q-11 12 -22.5 0.5t0.5 -22.5l36 -37h-169v169l37 -36q11 -12 22.5 -0.5t-0.5 22.5l-64 64q-2 3 -5 4t-6 1q-2 0 -3.5 -0.5t-2.5 -0.5l-5 -4l-64 -64q-12 -11 0 -22q3 -3 7 -4.5t8 0t7 4.5l37 36v-169h-169l36 37q12 11 0.5 22.5t-22.5 -0.5l-64 -64
q-3 -2 -4 -5q0 -1 -0.5 -2.5t-0.5 -3.5q0 -3 1 -6t4 -5l64 -64q11 -12 22.5 -0.5t-0.5 22.5l-36 37h169v-169l-37 36q-11 12 -22.5 0.5t0.5 -22.5l64 -64l2 -2t2.5 -1.5l3 -1t3.5 -0.5t3.5 0.5l3 1t2.5 1.5l2 2l64 64q12 11 0.5 22.5t-22.5 -0.5l-37 -36v169h169l-36 -37
q-12 -11 -0.5 -22.5t22.5 0.5l64 64q3 2 4 5t1 6q0 4 -1 6z" />
    <glyph glyph-name="two" unicode="2" 
d="M179 157l93 92l93 -92q11 -12 22 0q3 3 4 7t0 8t-4 7l-104 104q-4 5 -11 5t-11 -5l-104 -104q-11 -11 0 -22.5t22 0.5z" />
    <glyph glyph-name="three" unicode="3" 
d="M365 259l-93 -92l-93 92q-2 2 -5 3.5t-6 1.5t-6 -1.5t-5 -3.5q-3 -3 -4 -7t0 -8t4 -7l104 -104q4 -5 11 -5t11 5l104 104q11 11 0 22.5t-22 -0.5z" />
    <glyph glyph-name="four" unicode="4" 
d="M197 197l104 -104q11 -11 22.5 0t-0.5 22l-92 93l92 93q12 11 0.5 22t-22.5 0l-104 -104q-5 -4 -5 -11t5 -11z" />
    <glyph glyph-name="five" unicode="5" 
d="M221 93q3 -3 7 -4t8 0t7 4l104 104q5 4 5 11t-5 11l-104 104q-11 11 -22.5 0t0.5 -22l92 -93l-92 -93q-12 -11 0 -22z" />
    <glyph glyph-name="six" unicode="6" 
d="M375 253l-107 94q-1 1 -2.5 2t-3 1.5l-3 1t-2.5 0.5q-7 0 -12 -5l-107 -94q-11 -12 0 -23.5t23 0.5l96 85l95 -85q5 -5 11.5 -5t11.5 5q12 11 0 23zM268 233q-2 2 -5 3t-6 1t-5 -0.5t-3.5 -1.5t-3.5 -2l-107 -95q-5 -5 -5 -11.5t5 -11.5q11 -11 23 0l96 85l95 -85
q5 -5 11.5 -5t11.5 5q12 11 0 23z" />
    <glyph glyph-name="seven" unicode="7" 
d="M351 218l-96 -85l-95 85q-12 12 -23.5 0.5t0.5 -23.5l107 -94q5 -5 11 -5q7 1 12 5l107 94q11 12 0 23.5t-23 -0.5zM374 333q-11 11 -23 0l-96 -85l-95 85q-3 2 -6 3.5t-6 1.5t-6 -1.5t-5 -3.5q-12 -11 0 -23l107 -95q5 -4 11 -4q7 0 12 4l107 95q3 3 4 7.5t0 8.5t-4 7z
" />
    <glyph glyph-name="eight" unicode="8" 
d="M133 213l94 -107q12 -11 23 0q10 11 0 23l-85 96l85 95q12 12 0.5 23.5t-23.5 -0.5l-94 -107q-5 -5 -5 -11.5t5 -11.5zM365 343q-11 12 -23 0l-95 -107q-4 -5 -4 -11q0 -3 0.5 -5t1.5 -3.5t2 -3.5l95 -107q12 -11 23 0t0 23l-85 96l85 95q2 3 3.5 6t1.5 6t-1.5 6t-3.5 5z
" />
    <glyph glyph-name="nine" unicode="9" 
d="M379 235l-94 107q-3 3 -7.5 4t-8.5 0t-7 -4q-12 -11 0 -23l85 -96l-85 -95q-12 -12 -0.5 -23.5t23.5 0.5l94 107q5 5 5 11q-1 7 -5 12zM147 104.5q11 -11.5 23 0.5l95 107q4 5 4 11q0 7 -4 12l-95 107q-12 11 -23 0q-10 -11 0 -23l85 -96l-85 -95q-11 -12 0 -23.5z" />
    <glyph glyph-name="colon" unicode=":" 
d="M283 283q-4 5 -11 5t-11 -5l-104 -104q-11 -11 0 -22.5t22 0.5l93 92l93 -92q11 -12 22 0q3 3 4 7t0 8t-4 7zM273 446q-99 0 -169 -70t-70 -169t70 -169t169 -70t169 70t70 169q0 65 -32 120t-87 87t-120 32zM273 0q-86 0 -146.5 60.5t-60.5 146.5q0 42 16.5 80.5t44 66
t66 44t80.5 16.5q86 0 146.5 -60.5t60.5 -146.5t-60.5 -146.5t-146.5 -60.5z" />
    <glyph glyph-name="semicolon" unicode=";" 
d="M365 259l-93 -92l-93 92q-2 2 -5 3.5t-6 1.5t-6 -1.5t-5 -3.5q-3 -3 -4 -7t0 -8t4 -7l104 -104q4 -5 11 -5t11 5l104 104q11 11 0 22.5t-22 -0.5zM273 446q-48 0 -92.5 -19t-76.5 -51t-51 -76.5t-19 -92.5q0 -99 70 -169t169 -70t169 70t70 169q0 65 -32 120t-87 87
t-120 32zM273.5 0q-85.5 0 -146.5 60.5t-61 146.5q0 56 28 103.5t75.5 75.5t103.5 28q42 0 80.5 -16.5t66 -44.5t44 -66t16.5 -80q0 -86 -60.5 -146.5t-146 -60.5z" />
    <glyph glyph-name="less" unicode="&#x3c;" 
d="M323.5 323q-11.5 11 -22.5 0l-104 -104q-5 -4 -5 -11q1 -7 5 -11l104 -104q11 -11 22.5 0t-0.5 22l-92 93l92 93q12 11 0.5 22zM272 448q-99 0 -169.5 -70.5t-70.5 -169.5t70.5 -169.5t169.5 -70.5t169.5 70.5t70.5 169.5t-70.5 169.5t-169.5 70.5zM272 0q-86 0 -147 61
t-61 147t61 147t147 61t147 -61t61 -147t-61 -147t-147 -61z" />
    <glyph glyph-name="equal" unicode="=" 
d="M347 219l-104 104q-11 11 -22.5 0t0.5 -22l92 -93l-92 -93q-12 -11 0 -22q3 -3 7 -4t8 0t7 4l104 104q5 4 5 11t-5 11zM273 446q-99 0 -169 -70t-70 -169t70 -169t169 -70t169 70t70 169t-70 169t-169 70zM273.5 0q-85.5 0 -146.5 60.5t-61 146.5q0 56 28 103.5
t75.5 75.5t103.5 28q42 0 80.5 -16.5t66 -44.5t44 -66t16.5 -80q0 -86 -60.5 -146.5t-146 -60.5z" />
    <glyph glyph-name="greater" unicode="&#x3e;" 
d="M284 331q-2 3 -5 4t-6 1q-7 0 -12 -5l-107 -94q-11 -12 0 -23.5t23 0.5l96 85l95 -85q5 -5 11.5 -5t11.5 5q12 11 0 23zM284 217q-2 2 -5 3t-6.5 1t-6.5 -1t-5 -3l-107 -95q-2 -2 -3.5 -5t-1.5 -6.5t1.5 -6.5t3.5 -5q11 -11 23 0l96 85l95 -85q4 -3 8 -4t8 0t7 4
q12 11 0 23zM273 446q-99 0 -169 -70t-70 -169t70 -169t169 -70t169 70t70 169t-70 169t-169 70zM273.5 0q-85.5 0 -146.5 60.5t-61 146.5q0 56 28 103.5t75.5 75.5t103.5 28q42 0 80.5 -16.5t66 -44.5t44 -66t16.5 -80q0 -86 -60.5 -146.5t-146 -60.5z" />
    <glyph glyph-name="question" unicode="?" 
d="M367 202l-96 -85l-95 85q-12 12 -23.5 0.5t0.5 -23.5l107 -94q5 -5 11 -5q7 1 12 5l107 94q11 12 0 23.5t-23 -0.5zM367 317l-96 -85l-95 85q-12 10 -23 0q-12 -11 0 -23l107 -95q1 -1 2.5 -2t3 -1.5t3 -0.5h2.5q7 0 12 4l107 95q3 3 4 7.5t0 8.5t-4 7q-11 11 -23 0z
M273 446q-99 0 -169 -70t-70 -169t70 -169t169 -70t169 70t70 169t-70 169t-169 70zM273.5 0q-85.5 0 -146.5 60.5t-61 146.5q0 56 28 103.5t75.5 75.5t103.5 28q42 0 80.5 -16.5t66 -44.5t44 -66t16.5 -80q0 -86 -60.5 -146.5t-146 -60.5z" />
    <glyph glyph-name="at" unicode="@" 
d="M181 209l85 95q12 12 0 23q-5 5 -11.5 5t-11.5 -5l-94 -107q-5 -5 -5 -11.5t5 -11.5l94 -107q12 -11 23 0q2 2 3.5 5t1.5 6t-1.5 6t-3.5 6zM381 327q-11 12 -23 0l-95 -107q-4 -5 -4 -11.5t4 -11.5l95 -107q12 -11 23 0q5 5 5 11.5t-5 11.5l-85 96l85 95q2 3 3.5 6t1.5 6
t-1.5 6t-3.5 5zM272 448q-99 0 -169.5 -70.5t-70.5 -169.5t70.5 -169.5t169.5 -70.5t169.5 70.5t70.5 169.5t-70.5 169.5t-169.5 70.5zM272 0q-86 0 -147 61t-61 147t61 147t147 61t147 -61t61 -147t-61 -147t-147 -61z" />
    <glyph glyph-name="A" unicode="A" 
d="M395 219l-94 107q-3 3 -7.5 4t-8.5 0t-7 -4q-12 -11 0 -23l85 -96l-85 -95q-3 -4 -4 -8t0 -8t4 -7q11 -12 23 0l94 107q5 5 5 11q-1 7 -5 12zM285 207q0 7 -4 12l-95 107q-12 11 -23 0q-10 -11 0 -23l85 -96l-85 -95q-5 -5 -5 -11.5t5 -11.5q11 -12 23 0l95 107q2 2 3 5
t1 6zM272 448q-99 0 -169.5 -70.5t-70.5 -169.5t70.5 -169.5t169.5 -70.5t169.5 70.5t70.5 169.5t-70.5 169.5t-169.5 70.5zM272 0q-86 0 -147 61t-61 147t61 147t147 61t147 -61t61 -147t-61 -147t-147 -61z" />
    <glyph glyph-name="B" unicode="B" 
d="M144 160h223q7 0 12 6q11 12 0 25l-112 124q-5 5 -11.5 5t-11.5 -5v-1l-112 -123q-11 -13 0 -25l1 -1q4 -5 11 -5z" />
    <glyph glyph-name="C" unicode="C" 
d="M267 165v1l112 123q2 2 3 4t1.5 4.5t0.5 4.5t-0.5 4.5t-1.5 4.5t-3 3v1q-5 5 -12 5h-223q-7 -1 -12 -6q-1 -2 -2.5 -4.5t-1.5 -5v-5.5t1.5 -5.5t2.5 -4.5l112 -124q5 -5 11.5 -5t11.5 5z" />
    <glyph glyph-name="D" unicode="D" 
d="M289 348l-124 -112q-2 -3 -3.5 -6t-1.5 -6t1.5 -6t3.5 -5h1l123 -112q2 -2 4 -3t4.5 -1.5t4.5 -0.5t4.5 0.5t4.5 1.5t3 3h1q5 5 5 12v223q0 3 -1.5 6t-4.5 6q-12 11 -25 0z" />
    <glyph glyph-name="E" unicode="E" 
d="M222 100l123 113q3 3 4 7t0 8t-4 7h-1v1l-122 112q-12 11 -25 0v-1q-5 -4 -5 -11v-224q0 -7 6 -12h-1q13 -11 25 0z" />
    <glyph glyph-name="F" unicode="F" 
d="M272 448q-99 0 -169.5 -70.5t-70.5 -169.5t70.5 -169.5t169.5 -70.5t169.5 70.5t70.5 169.5t-70.5 169.5t-169.5 70.5zM272 0q-86 0 -147 61t-61 147t61 147t147 61t147 -61t61 -147t-61 -147t-147 -61zM282 283q-4 5 -10 5t-10 -5v-1l-98 -123q-10 -13 0 -25v-1
q4 -5 10 -5h195q3 0 6 1.5t5 4.5q9 12 0 25z" />
    <glyph glyph-name="G" unicode="G" 
d="M272 448q-99 0 -169.5 -70.5t-70.5 -169.5t70.5 -169.5t169.5 -70.5t169.5 70.5t70.5 169.5t-70.5 169.5t-169.5 70.5zM272 0q-86 0 -147 61t-61 147t61 147t147 61t147 -61t61 -147t-61 -147t-147 -61zM380 251q-4 5 -10 5h-196q-6 0 -10 -6q-10 -12 0 -25l98 -124
q4 -5 10 -5t10 5v1l98 123q10 13 0 25v1z" />
    <glyph glyph-name="H" unicode="H" 
d="M272 448q-99 0 -169.5 -70.5t-70.5 -169.5t70.5 -169.5t169.5 -70.5t169.5 70.5t70.5 169.5t-70.5 169.5t-169.5 70.5zM272 0q-86 0 -147 61t-61 147t61 147t147 61t147 -61t61 -147t-61 -147t-147 -61zM314 316q-1 2 -3 2.5t-4.5 1t-4.5 0.5t-4.5 -0.5t-4.5 -1t-4 -2.5
l-124 -98q-2 -1 -3 -3t-1.5 -4.5t0 -4.5t1.5 -4t3 -4h1l123 -98q2 -1 4.5 -2t5.5 -1.5t5.5 0t5 1.5t4.5 2l1 1q5 4 5 10v195q-1 6 -6 10z" />
    <glyph glyph-name="I" unicode="I" 
d="M272 448q-99 0 -169.5 -70.5t-70.5 -169.5t70.5 -169.5t169.5 -70.5t169.5 70.5t70.5 169.5t-70.5 169.5t-169.5 70.5zM272 0q-86 0 -147 61t-61 147t61 147t147 61t147 -61t61 -147t-61 -147t-147 -61zM378 218l-123 98q-13 10 -25 0h-1q-5 -4 -5 -10v-195q0 -6 6 -11
q12 -9 25 0l124 98q5 4 5 10t-5 10h-1z" />
    <glyph glyph-name="J" unicode="J" 
d="M69 229l96 -96q11 -12 22.5 -0.5t-0.5 22.5l-68 69h233q45 0 70.5 -34t25.5 -78q0 -7 4.5 -11.5t11.5 -4.5t11.5 4.5t4.5 11.5q0 60 -31 102t-97 42h-233l68 69q12 11 0 22q-4 5 -11 5t-11 -5l-96 -96q-12 -11 0 -22z" />
    <glyph glyph-name="K" unicode="K" 
d="M144 192h256q7 0 11.5 4.5t4.5 11.5t-4.5 11.5t-11.5 4.5h-256q-7 0 -11.5 -4.5t-4.5 -11.5t4.5 -11.5t11.5 -4.5z" />
    <glyph glyph-name="L" unicode="L" 
d="M144 192h112v-112q0 -7 4.5 -11.5t11.5 -4.5t11.5 4.5t4.5 11.5v112h112q7 0 11.5 4.5t4.5 11.5t-4.5 11.5t-11.5 4.5h-112v112q0 7 -4.5 11.5t-11.5 4.5t-11.5 -4.5t-4.5 -11.5v-112h-112q-7 0 -11.5 -4.5t-4.5 -11.5t4.5 -11.5t11.5 -4.5z" />
    <glyph glyph-name="M" unicode="M" 
d="M161 97q3 -3 7 -4t8 0t7 4l89 88l89 -88q11 -12 22.5 -0.5t-0.5 22.5l-88 89l88 89q12 11 0.5 22.5t-22.5 -0.5l-89 -88l-89 88q-11 12 -22.5 0.5t0.5 -22.5l88 -89l-88 -89q-5 -4 -5 -11t5 -11z" />
    <glyph glyph-name="N" unicode="N" 
d="M220 70q1 0 1.5 -0.5l0.5 -0.5l2 -1h1q3 -1 4 -2h4q3 -1 5 0h2q4 1 7 3l0.5 0.5t1.5 0.5q2 1 2 2q1 1 1.5 2l0.5 1l191 306q3 5 3.5 11t-2 11.5t-7.5 8.5q-8 5 -17 3t-14 -9l-177 -283l-97 95q-4 4 -10 5.5t-12 -0.5t-10 -6q-6 -7 -5.5 -16.5t7.5 -15.5l117 -114v-1z" />
    <glyph glyph-name="O" unicode="O" 
d="M272 448q-99 0 -169.5 -70.5t-70.5 -169.5t70.5 -169.5t169.5 -70.5t169.5 70.5t70.5 169.5t-70.5 169.5t-169.5 70.5zM272 0q-86 0 -147 61t-61 147t61 147t147 61t147 -61t61 -147t-61 -147t-147 -61zM400 224h-256q-7 0 -11.5 -4.5t-4.5 -11.5t4.5 -11.5t11.5 -4.5
h256q7 0 11.5 4.5t4.5 11.5t-4.5 11.5t-11.5 4.5z" />
    <glyph glyph-name="P" unicode="P" 
d="M272 448q-99 0 -169.5 -70.5t-70.5 -169.5t70.5 -169.5t169.5 -70.5t169.5 70.5t70.5 169.5t-70.5 169.5t-169.5 70.5zM272 0q-86 0 -147 61t-61 147t61 147t147 61t147 -61t61 -147t-61 -147t-147 -61zM400 224h-112v112q0 7 -4.5 11.5t-11.5 4.5t-11.5 -4.5t-4.5 -11.5
v-112h-112q-7 0 -11.5 -4.5t-4.5 -11.5t4.5 -11.5t11.5 -4.5h112v-112q0 -7 4.5 -11.5t11.5 -4.5t11.5 4.5t4.5 11.5v112h112q7 0 11.5 4.5t4.5 11.5t-4.5 11.5t-11.5 4.5z" />
    <glyph glyph-name="Q" unicode="Q" 
d="M272 448q-99 0 -169.5 -70.5t-70.5 -169.5t70.5 -169.5t169.5 -70.5t169.5 70.5t70.5 169.5t-70.5 169.5t-169.5 70.5zM272 0q-86 0 -147 61t-61 147t61 147t147 61t147 -61t61 -147t-61 -147t-147 -61zM361 319l-88 -88l-79 88q-3 2 -6 3.5t-6 1.5t-6 -1.5t-5 -3.5
q-11 -11 0 -22l79 -88l-89 -90q-11 -11 0 -22.5t22 0.5l88 88l79 -88q12 -12 23 -0.5t0 22.5l-79 88l89 90q12 11 0.5 22.5t-22.5 -0.5z" />
    <glyph glyph-name="R" unicode="R" 
d="M257 480q-106 0 -181 -75t-75 -181t75 -181t181 -75t181 75t75 181q0 70 -34 128.5t-93 93t-129 34.5zM257.5 0q-92.5 0 -158.5 65.5t-66 158.5t66 158.5t158 65.5q37 0 71 -11.5t61.5 -32t48.5 -48t32 -62t11 -70.5q0 -93 -65.5 -158.5t-158 -65.5zM369 326
q-5 3 -11 3.5t-11 -2.5t-9 -8l-108 -165l-51 48q-7 6 -16.5 6t-15.5 -7q-2 -3 -3.5 -6t-2 -6.5t0 -7t2.5 -6.5l4 -6l72 -66h1q0 -1 0.5 -1.5l0.5 -0.5q1 -1 2 -1h1q1 -1 2 -1.5t2 -0.5h4q1 -1 2.5 -0.5t2.5 0.5h2q4 1 7 3l1 1h1l2 2l2 2v1l123 188q5 8 3 17t-10 14z" />
    <glyph glyph-name="S" unicode="S" 
d="M304 480q-86 0 -147 -61t-61 -147q0 -73 46 -130l-135 -136q-7 -7 -7 -16t6.5 -15.5t15.5 -6.5t16 7l136 135q57 -46 130 -46q86 0 147 61t61 147t-61 147t-147 61zM304 96q-73 0 -124.5 51.5t-51.5 124.5t51.5 124.5t124.5 51.5t124.5 -51.5t51.5 -124.5t-51.5 -124.5
t-124.5 -51.5zM400 288h-192q-7 0 -11.5 -4.5t-4.5 -11.5t4.5 -11.5t11.5 -4.5h192q7 0 11.5 4.5t4.5 11.5t-4.5 11.5t-11.5 4.5z" />
    <glyph glyph-name="T" unicode="T" 
d="M304 480q-86 0 -147 -61t-61 -147q0 -73 46 -130l-135 -136q-7 -7 -7 -16t6.5 -15.5t15.5 -6.5t16 7l136 135q57 -46 130 -46q86 0 147 61t61 147t-61 147t-147 61zM304 96q-73 0 -124.5 51.5t-51.5 124.5t51.5 124.5t124.5 51.5t124.5 -51.5t51.5 -124.5t-51.5 -124.5
t-124.5 -51.5zM400 288h-80v80q0 7 -4.5 11.5t-11.5 4.5t-11.5 -4.5t-4.5 -11.5v-80h-80q-7 0 -11.5 -4.5t-4.5 -11.5t4.5 -11.5t11.5 -4.5h80v-80q0 -7 4.5 -11.5t11.5 -4.5t11.5 4.5t4.5 11.5v80h80q7 0 11.5 4.5t4.5 11.5t-4.5 11.5t-11.5 4.5z" />
    <glyph glyph-name="U" unicode="U" 
d="M304 480q-86 0 -147 -61t-61 -147q0 -73 46 -131l-137 -137q-7 -6 -7 -15.5t7 -15.5q3 -4 7 -5.5t8.5 -1.5t8.5 1.5t7 5.5l137 137q58 -46 131 -46q86 0 147 61t61 147t-61 147t-147 61zM304 96q-73 0 -124.5 51.5t-51.5 124.5t51.5 124.5t124.5 51.5t124.5 -51.5
t51.5 -124.5t-51.5 -124.5t-124.5 -51.5z" />
    <glyph glyph-name="V" unicode="V" 
d="M416 416h-320q-13 0 -22.5 -9.5t-9.5 -22.5v-320q0 -13 9.5 -22.5t22.5 -9.5h320q13 0 22.5 9.5t9.5 22.5v320q0 13 -9.5 22.5t-22.5 9.5zM416 64h-320v320h320v-320z" />
    <glyph glyph-name="W" unicode="W" 
d="M416 416h-320q-13 0 -22.5 -9.5t-9.5 -22.5v-320q0 -13 9.5 -22.5t22.5 -9.5h320q13 0 22.5 9.5t9.5 22.5v320q0 13 -9.5 22.5t-22.5 9.5zM416 64h-320v320h320v-320zM192 128h128q13 0 22.5 9.5t9.5 22.5v128q0 13 -9.5 22.5t-22.5 9.5h-128q-13 0 -22.5 -9.5
t-9.5 -22.5v-128q0 -13 9.5 -22.5t22.5 -9.5z" />
    <glyph glyph-name="X" unicode="X" 
d="M128 320v-224q0 -13 9.5 -22.5t22.5 -9.5h224q13 0 22.5 9.5t9.5 22.5v224q0 13 -9.5 22.5t-22.5 9.5h-224q-13 0 -22.5 -9.5t-9.5 -22.5zM384 96h-224v224h224v-224zM208 192h128q7 0 11.5 4.5t4.5 11.5t-4.5 11.5t-11.5 4.5h-128q-7 0 -11.5 -4.5t-4.5 -11.5t4.5 -11.5
t11.5 -4.5z" />
    <glyph glyph-name="Y" unicode="Y" 
d="M128 320v-224q0 -13 9.5 -22.5t22.5 -9.5h224q13 0 22.5 9.5t9.5 22.5v224q0 13 -9.5 22.5t-22.5 9.5h-224q-13 0 -22.5 -9.5t-9.5 -22.5zM384 96h-224v224h224v-224zM208 192h48v-48q0 -7 4.5 -11.5t11.5 -4.5t11.5 4.5t4.5 11.5v48h48q7 0 11.5 4.5t4.5 11.5t-4.5 11.5
t-11.5 4.5h-48v48q0 7 -4.5 11.5t-11.5 4.5t-11.5 -4.5t-4.5 -11.5v-48h-48q-7 0 -11.5 -4.5t-4.5 -11.5t4.5 -11.5t11.5 -4.5z" />
    <glyph glyph-name="Z" unicode="Z" 
d="M416 64h-320v320h236l20 32h-256q-13 0 -22.5 -9.5t-9.5 -22.5v-320q0 -13 9.5 -22.5t22.5 -9.5h320q13 0 22.5 9.5t9.5 22.5v211l-32 -51v-160zM470 444q-6 4 -12 4t-11 -2.5t-8 -7.5l-174 -251l-67 77q-7 6 -16.5 5.5t-15.5 -7.5q-3 -3 -4.5 -7t-1.5 -8.5t2 -8.5t5 -7
l81 -92q0 -1 1 -2l1 -1l2 -2h1v-1l0.5 -0.5t1.5 -0.5q1 -1 2 -1.5t2 -0.5l1 -1q2 0 3.5 -0.5t3.5 -0.5q10 0 17 7q0 1 0.5 2t1.5 1l190 275q5 8 3.5 17t-9.5 14z" />
    <glyph glyph-name="bracketleft" unicode="[" 
d="M256 416q-80 0 -136 -56t-56 -136t56 -136t136 -56t136 56t56 136t-56 136t-136 56zM256 64q-66 0 -113 47t-47 113t47 113t113 47t113 -47t47 -113t-47 -113t-113 -47z" />
    <glyph glyph-name="backslash" unicode="\" 
d="M256 416q-80 0 -136 -56t-56 -136t56 -136t136 -56t136 56t56 136t-56 136t-136 56zM256 64q-66 0 -113 47t-47 113t47 113t113 47t113 -47t47 -113t-47 -113t-113 -47zM160 224q0 -53 45 -81q24 -15 51 -15q53 0 81 45q15 24 15 51q0 53 -45 81q-24 15 -51 15
q-53 0 -81 -45q-15 -24 -15 -51z" />
    <glyph glyph-name="bracketright" unicode="]" 
d="M256 480q-106 0 -181 -75t-75 -181t75 -181t181 -75t181 75t75 181t-75 181t-181 75zM256 0q-93 0 -158.5 65.5t-65.5 158.5t65.5 158.5t158.5 65.5t158.5 -65.5t65.5 -158.5t-65.5 -158.5t-158.5 -65.5zM320 320h-128q-13 0 -22.5 -9.5t-9.5 -22.5v-128q0 -13 9.5 -22.5
t22.5 -9.5h128q13 0 22.5 9.5t9.5 22.5v128q0 13 -9.5 22.5t-22.5 9.5z" />
    <glyph glyph-name="asciicircum" unicode="^" 
d="M320 128q13 0 22.5 9.5t9.5 22.5v128q0 13 -9.5 22.5t-22.5 9.5h-128q-13 0 -22.5 -9.5t-9.5 -22.5v-128q0 -13 9.5 -22.5t22.5 -9.5h128z" />
    <glyph glyph-name="underscore" unicode="_" 
d="M256 -32q106 0 181 75t75 181t-75 181t-181 75t-181 -75t-75 -181t75 -181t181 -75zM256 448q93 0 158.5 -65.5t65.5 -158.5t-65.5 -158.5t-158.5 -65.5t-158.5 65.5t-65.5 158.5t65.5 158.5t158.5 65.5zM192 128q13 0 22.5 9.5t9.5 22.5v128q0 13 -9.5 22.5t-22.5 9.5
t-22.5 -9.5t-9.5 -22.5v-128q0 -13 9.5 -22.5t22.5 -9.5zM320 128q13 0 22.5 9.5t9.5 22.5v128q0 13 -9.5 22.5t-22.5 9.5t-22.5 -9.5t-9.5 -22.5v-128q0 -13 9.5 -22.5t22.5 -9.5z" />
    <glyph glyph-name="grave" unicode="`" 
d="M192 320q-13 0 -22.5 -9.5t-9.5 -22.5v-128q0 -13 9.5 -22.5t22.5 -9.5t22.5 9.5t9.5 22.5v128q0 13 -9.5 22.5t-22.5 9.5zM288 160q0 -13 9.5 -22.5t22.5 -9.5t22.5 9.5t9.5 22.5v128q0 13 -9.5 22.5t-22.5 9.5t-22.5 -9.5t-9.5 -22.5v-128z" />
    <glyph glyph-name="a" unicode="a" 
d="M112 224h288q7 0 11.5 4.5t4.5 11.5t-4.5 11.5t-11.5 4.5h-288q-7 0 -11.5 -4.5t-4.5 -11.5t4.5 -11.5t11.5 -4.5zM112 320h288q7 0 11.5 4.5t4.5 11.5t-4.5 11.5t-11.5 4.5h-288q-7 0 -11.5 -4.5t-4.5 -11.5t4.5 -11.5t11.5 -4.5zM112 128h288q7 0 11.5 4.5t4.5 11.5
t-4.5 11.5t-11.5 4.5h-288q-7 0 -11.5 -4.5t-4.5 -11.5t4.5 -11.5t11.5 -4.5z" />
    <glyph glyph-name="b" unicode="b" 
d="M480 448h-416q-13 0 -22.5 -9.5t-9.5 -22.5v-416q0 -13 9.5 -22.5t22.5 -9.5h416q13 0 22.5 9.5t9.5 22.5v416q0 13 -9.5 22.5t-22.5 9.5zM480 0h-416v416h416v-416zM144 192h256q7 0 11.5 4.5t4.5 11.5t-4.5 11.5t-11.5 4.5h-256q-7 0 -11.5 -4.5t-4.5 -11.5t4.5 -11.5
t11.5 -4.5zM144 288h256q7 0 11.5 4.5t4.5 11.5t-4.5 11.5t-11.5 4.5h-256q-7 0 -11.5 -4.5t-4.5 -11.5t4.5 -11.5t11.5 -4.5zM144 96h256q7 0 11.5 4.5t4.5 11.5t-4.5 11.5t-11.5 4.5h-256q-7 0 -11.5 -4.5t-4.5 -11.5t4.5 -11.5t11.5 -4.5z" />
    <glyph glyph-name="c" unicode="c" 
d="M272 448q-99 0 -169.5 -70.5t-70.5 -169.5t70.5 -169.5t169.5 -70.5t169.5 70.5t70.5 169.5t-70.5 169.5t-169.5 70.5zM272 0q-86 0 -147 61t-61 147t61 147t147 61t147 -61t61 -147t-61 -147t-147 -61zM400 224h-256q-7 0 -11.5 -4.5t-4.5 -11.5t4.5 -11.5t11.5 -4.5
h256q7 0 11.5 4.5t4.5 11.5t-4.5 11.5t-11.5 4.5zM400 320h-256q-7 0 -11.5 -4.5t-4.5 -11.5t4.5 -11.5t11.5 -4.5h256q7 0 11.5 4.5t4.5 11.5t-4.5 11.5t-11.5 4.5zM400 128h-256q-7 0 -11.5 -4.5t-4.5 -11.5t4.5 -11.5t11.5 -4.5h256q7 0 11.5 4.5t4.5 11.5t-4.5 11.5
t-11.5 4.5z" />
    <glyph glyph-name="d" unicode="d" 
d="M176 224h256q7 0 11.5 4.5t4.5 11.5t-4.5 11.5t-11.5 4.5h-256q-7 0 -11.5 -4.5t-4.5 -11.5t4.5 -11.5t11.5 -4.5zM176 352h256q7 0 11.5 4.5t4.5 11.5t-4.5 11.5t-11.5 4.5h-256q-7 0 -11.5 -4.5t-4.5 -11.5t4.5 -11.5t11.5 -4.5zM176 96h256q7 0 11.5 4.5t4.5 11.5
t-4.5 11.5t-11.5 4.5h-256q-7 0 -11.5 -4.5t-4.5 -11.5t4.5 -11.5t11.5 -4.5zM64 368q3 -13 16 -16q3 0 6 1.5t5 3.5t3.5 5t1.5 6q-3 13 -16 16q-3 0 -6 -1.5t-5 -3.5t-3.5 -5t-1.5 -6zM64 240q0 -7 4.5 -11.5t11.5 -4.5q3 0 6 1.5t5 3.5t3.5 5t1.5 6q-3 13 -16 16
q-3 0 -6 -1.5t-5 -3.5t-3.5 -5t-1.5 -6zM64 112q0 -13 13 -16h3q13 0 16 13v3q0 13 -13 16h-3q-7 0 -11.5 -4.5t-4.5 -11.5z" />
    <glyph glyph-name="e" unicode="e" 
d="M432 256h-256q-7 0 -11.5 -4.5t-4.5 -11.5t4.5 -11.5t11.5 -4.5h256q7 0 11.5 4.5t4.5 11.5t-4.5 11.5t-11.5 4.5zM432 384h-256q-7 0 -11.5 -4.5t-4.5 -11.5t4.5 -11.5t11.5 -4.5h256q7 0 11.5 4.5t4.5 11.5t-4.5 11.5t-11.5 4.5zM432 128h-256q-7 0 -11.5 -4.5
t-4.5 -11.5t4.5 -11.5t11.5 -4.5h256q7 0 11.5 4.5t4.5 11.5t-4.5 11.5t-11.5 4.5zM111 329v78h-9l-17 -9l2 -8l14 8v-69h10zM86 215l-8 -8v-6h50v8h-35v1l6 5q14 14 20.5 23.5t6.5 19.5q0 9 -6 16t-18 7q-3 0 -6.5 -0.5t-6 -2t-5 -2.5t-4.5 -3l3 -8q8 7 17 7q15 0 15 -16
q0 -13 -29 -41zM99 81q-5 0 -9.5 1.5t-7.5 3.5l-3 -8q8 -5 20 -5q14 0 21.5 6.5t7.5 16.5q0 4 -1.5 7.5t-4 6t-5.5 4.5t-7 2v1q15 5 15 18q0 8 -6 13.5t-17 5.5q-6 0 -11.5 -1.5t-8.5 -4.5l3 -8q7 5 15 5q14 0 14 -11q0 -14 -17 -14h-6v-8h6q20 0 20 -16q0 -2 -1 -4.5t-3 -5
t-5.5 -4t-8.5 -1.5z" />
    <glyph glyph-name="f" unicode="f" 
d="M432 384h-48q0 13 -9.5 22.5t-22.5 9.5h-32q-13 0 -22.5 -9.5t-9.5 -22.5h-208q-7 0 -11.5 -4.5t-4.5 -11.5t4.5 -11.5t11.5 -4.5h208q0 -13 9.5 -22.5t22.5 -9.5h32q13 0 22.5 9.5t9.5 22.5h48q7 0 11.5 4.5t4.5 11.5t-4.5 11.5t-11.5 4.5zM352 352h-32v32h32v-32z
M432 256h-208q0 13 -9.5 22.5t-22.5 9.5h-32q-13 0 -22.5 -9.5t-9.5 -22.5h-48q-7 0 -11.5 -4.5t-4.5 -11.5t4.5 -11.5t11.5 -4.5h48q0 -13 9.5 -22.5t22.5 -9.5h32q13 0 22.5 9.5t9.5 22.5h208q7 0 11.5 4.5t4.5 11.5t-4.5 11.5t-11.5 4.5zM192 224h-32v32h32v-32zM432 128
h-112q0 13 -9.5 22.5t-22.5 9.5h-32q-13 0 -22.5 -9.5t-9.5 -22.5h-144q-7 0 -11.5 -4.5t-4.5 -11.5t4.5 -11.5t11.5 -4.5h144q0 -13 9.5 -22.5t22.5 -9.5h32q13 0 22.5 9.5t9.5 22.5h112q7 0 11.5 4.5t4.5 11.5t-4.5 11.5t-11.5 4.5zM288 96h-32v32h32v-32z" />
    <glyph glyph-name="g" unicode="g" 
d="M160 352v48q0 7 -4.5 11.5t-11.5 4.5t-11.5 -4.5t-4.5 -11.5v-48q-13 0 -22.5 -9.5t-9.5 -22.5v-32q0 -13 9.5 -22.5t22.5 -9.5v-208q0 -7 4.5 -11.5t11.5 -4.5t11.5 4.5t4.5 11.5v208q13 0 22.5 9.5t9.5 22.5v32q0 13 -9.5 22.5t-22.5 9.5zM128 320h32v-32h-32v32z
M288 192v208q0 7 -4.5 11.5t-11.5 4.5t-11.5 -4.5t-4.5 -11.5v-208q-13 0 -22.5 -9.5t-9.5 -22.5v-32q0 -13 9.5 -22.5t22.5 -9.5v-48q0 -7 4.5 -11.5t11.5 -4.5t11.5 4.5t4.5 11.5v48q13 0 22.5 9.5t9.5 22.5v32q0 13 -9.5 22.5t-22.5 9.5zM256 160h32v-32h-32v32zM416 288
v112q0 7 -4.5 11.5t-11.5 4.5t-11.5 -4.5t-4.5 -11.5v-112q-13 0 -22.5 -9.5t-9.5 -22.5v-32q0 -13 9.5 -22.5t22.5 -9.5v-144q0 -7 4.5 -11.5t11.5 -4.5t11.5 4.5t4.5 11.5v144q13 0 22.5 9.5t9.5 22.5v32q0 13 -9.5 22.5t-22.5 9.5zM384 256h32v-32h-32v32z" />
    <glyph glyph-name="h" unicode="h" 
d="M64 -32h384q13 0 22.5 9.5t9.5 22.5v448q0 13 -9.5 22.5t-22.5 9.5h-384q-13 0 -22.5 -9.5t-9.5 -22.5v-448q0 -13 9.5 -22.5t22.5 -9.5zM64 448h384v-448h-384v448zM368 384h-128q-7 0 -11.5 -4.5t-4.5 -11.5t4.5 -11.5t11.5 -4.5h128q7 0 11.5 4.5t4.5 11.5t-4.5 11.5
t-11.5 4.5zM368 288h-224q-7 0 -11.5 -4.5t-4.5 -11.5t4.5 -11.5t11.5 -4.5h224q7 0 11.5 4.5t4.5 11.5t-4.5 11.5t-11.5 4.5zM368 192h-224q-7 0 -11.5 -4.5t-4.5 -11.5t4.5 -11.5t11.5 -4.5h224q7 0 11.5 4.5t4.5 11.5t-4.5 11.5t-11.5 4.5zM368 96h-224q-7 0 -11.5 -4.5
t-4.5 -11.5t4.5 -11.5t11.5 -4.5h224q7 0 11.5 4.5t4.5 11.5t-4.5 11.5t-11.5 4.5z" />
    <glyph glyph-name="i" unicode="i" 
d="M64 32h32v-32q0 -13 9.5 -22.5t22.5 -9.5h320q13 0 22.5 9.5t9.5 22.5v384q0 13 -9.5 22.5t-22.5 9.5h-32v32q0 13 -9.5 22.5t-22.5 9.5h-320q-13 0 -22.5 -9.5t-9.5 -22.5v-384q0 -13 9.5 -22.5t22.5 -9.5zM384 64h-320v384h320v-384zM448 384v-384h-320v32h256
q13 0 22.5 9.5t9.5 22.5v320h32zM160 368q0 -7 4.5 -11.5t11.5 -4.5h160q7 0 11.5 4.5t4.5 11.5t-4.5 11.5t-11.5 4.5h-160q-7 0 -11.5 -4.5t-4.5 -11.5zM112 256h224q7 0 11.5 4.5t4.5 11.5t-4.5 11.5t-11.5 4.5h-224q-7 0 -11.5 -4.5t-4.5 -11.5t4.5 -11.5t11.5 -4.5z
M112 192h224q7 0 11.5 4.5t4.5 11.5t-4.5 11.5t-11.5 4.5h-224q-7 0 -11.5 -4.5t-4.5 -11.5t4.5 -11.5t11.5 -4.5zM112 128h224q7 0 11.5 4.5t4.5 11.5t-4.5 11.5t-11.5 4.5h-224q-7 0 -11.5 -4.5t-4.5 -11.5t4.5 -11.5t11.5 -4.5z" />
    <glyph glyph-name="j" unicode="j" 
d="M482 -2l-34 102l-271 271l-17 -17l-51 -51l271 -271zM64 348l68 68l-34 34q-7 7 -16 10.5t-18 3.5t-18 -3.5t-16 -10.5q-14 -14 -14 -34t14 -34z" />
    <glyph glyph-name="k" unicode="k" 
d="M330 93l86 -29l-29 86l-164 165l-58 -58zM132 291l57 57l-42 43q-12 12 -29 12t-29 -12t-12 -29t12 -29zM480 480h-448q-13 0 -22.5 -9.5t-9.5 -22.5v-448q0 -13 9.5 -22.5t22.5 -9.5h448q13 0 22.5 9.5t9.5 22.5v448q0 13 -9.5 22.5t-22.5 9.5zM480 0h-448v448h448v-448
z" />
    <glyph glyph-name="l" unicode="l" 
d="M339 141l-29 86l-164 165l-58 -58l165 -164zM12 468q-12 -12 -12 -29t12 -29l42 -42l58 58l-42 42q-12 12 -29 12t-29 -12zM480 384h-227l32 -32h195v-352h-352v195l-32 32v-227q0 -13 9.5 -22.5t22.5 -9.5h352q13 0 22.5 9.5t9.5 22.5v352q0 13 -9.5 22.5t-22.5 9.5z
" />
    <glyph glyph-name="m" unicode="m" 
d="M480 384h-145q-34 0 -47 -32q-4 -29 -32 -32h-224q-13 0 -22.5 -9t-9.5 -22v-289q0 -13 9.5 -22.5t22.5 -9.5h448q13 0 22.5 9.5t9.5 22.5v256v33v63q0 13 -9.5 22.5t-22.5 9.5zM480 289v-33v-256h-448v288h224h1.5h1.5q41 4 57 46q3 5 6 9.5t6 6t5.5 2t3.5 0.5h2h141
v-63z" />
    <glyph glyph-name="n" unicode="n" 
d="M512 321v63q0 13 -9.5 22.5t-22.5 9.5h-160q-13 0 -22.5 -9.5t-9.5 -22.5q-4 -29 -32 -32h-224q-13 0 -22.5 -9t-9.5 -22v-33h512v33zM32 -32h448q13 0 22.5 9.5t9.5 22.5v256h-512v-256q0 -13 9.5 -22.5t22.5 -9.5zM32 224h448v-224h-448v224z" />
    <glyph glyph-name="o" unicode="o" 
d="M480 384h-113q-34 0 -47 -32q-4 -29 -32 -32h-224q-13 0 -22.5 -9t-9.5 -22v-289q0 -13 9.5 -22.5t22.5 -9.5h416q13 0 22.5 9.5t9.5 22.5v256v33v63q0 13 -9.5 22.5t-22.5 9.5zM480 289v-33v-256h-416v288h224h1.5h1.5q41 4 57 46q3 5 6 9.5t6 6t5.5 2t3.5 0.5h2h109
v-63zM352 160h-64v64q0 7 -4.5 11.5t-11.5 4.5t-11.5 -4.5t-4.5 -11.5v-64h-64q-7 0 -11.5 -4.5t-4.5 -11.5t4.5 -11.5t11.5 -4.5h64v-64q0 -7 4.5 -11.5t11.5 -4.5t11.5 4.5t4.5 11.5v64h64q7 0 11.5 4.5t4.5 11.5t-4.5 11.5t-11.5 4.5z" />
    <glyph glyph-name="p" unicode="p" 
d="M256 480q-106 0 -181 -75t-75 -181t75 -181t181 -75t181 75t75 181t-75 181t-181 75zM256 0q-93 0 -158.5 65.5t-65.5 158.5t65.5 158.5t158.5 65.5t158.5 -65.5t65.5 -158.5t-65.5 -158.5t-158.5 -65.5zM256 288q-13 0 -22.5 -9.5t-9.5 -22.5v-160q0 -13 9.5 -22.5
t22.5 -9.5t22.5 9.5t9.5 22.5v160q0 13 -9.5 22.5t-22.5 9.5zM224 351q0 -23 22 -30q6 -1 10 -2q24 0 31 23q1 5 1 9q0 14 -9.5 23t-22.5 9q-4 0 -7.5 -0.5t-6.5 -2t-6 -4t-5 -5t-3.5 -6t-2.5 -7t-1 -7.5z" />
    <glyph glyph-name="q" unicode="q" 
d="M371 471q-9 9 -22 9h-186q-13 0 -22 -9l-132 -132q-9 -9 -9 -22v-186q0 -13 9 -22l132 -132q9 -9 22 -9h186q13 0 22 9l132 132q9 9 9 22v186q0 13 -9 22zM480 131l-131 -131h-186l-131 131v186l131 131h186l131 -131v-186zM256 384q-13 0 -22.5 -9.5t-9.5 -22.5v-160
q0 -13 9.5 -22.5t22.5 -9.5t22.5 9.5t9.5 22.5v160q0 13 -9.5 22.5t-22.5 9.5zM224 96q0 -24 22 -31q6 -1 10 -1q24 0 31 22q1 6 1 10q0 13 -9.5 22.5t-22.5 9.5q-24 0 -31 -22q-1 -6 -1 -10z" />
    <glyph glyph-name="r" unicode="r" 
d="M256 480q-106 0 -181 -75t-75 -181t75 -181t181 -75t181 75t75 181t-75 181t-181 75zM256 0q-93 0 -158.5 65.5t-65.5 158.5t65.5 158.5t158.5 65.5t158.5 -65.5t65.5 -158.5t-65.5 -158.5t-158.5 -65.5zM256 384q-13 0 -22.5 -9.5t-9.5 -22.5v-160q0 -13 9.5 -22.5
t22.5 -9.5t22.5 9.5t9.5 22.5v160q0 13 -9.5 22.5t-22.5 9.5zM224 97q0 -24 22 -31q6 -1 10 -1q24 0 31 22q1 5 1 10q0 13 -9.5 22.5t-22.5 9.5q-24 0 -31 -23q-1 -5 -1 -9z" />
    <glyph glyph-name="s" unicode="s" 
d="M506 15l-222 416q-9 17 -28 17t-28 -17l-223 -416q-9 -16 0.5 -31.5t27.5 -15.5h445q18 0 27.5 15.5t0.5 31.5zM33 0l223 416l222 -416h-445zM224 255v-96q0 -8 4.5 -15.5t11.5 -12t16 -4.5q13 0 22.5 9.5t9.5 22.5v96q0 14 -9.5 23t-22.5 9q-9 0 -16 -4t-11.5 -11.5
t-4.5 -16.5zM224 64q0 -24 22 -31q6 -1 10 -1q24 0 31 22q1 6 1 10q0 13 -9.5 22.5t-22.5 9.5q-24 0 -31 -22q-1 -6 -1 -10z" />
    <glyph glyph-name="t" unicode="t" 
d="M256 480q-106 0 -181 -75t-75 -181t75 -181t181 -75t181 75t75 181t-75 181t-181 75zM256 0q-93 0 -158.5 65.5t-65.5 158.5t65.5 158.5t158.5 65.5t158.5 -65.5t65.5 -158.5t-65.5 -158.5t-158.5 -65.5zM220 64q0 -24 22 -32q6 -1 11 -1q24 0 31 22q2 5 2 11
q0 23 -22 31q-6 1 -11 2q-23 0 -31 -22q-1 -6 -2 -11zM253 416q-50 0 -89 -34.5t-39 -94.5q0 -13 9.5 -22.5t23 -9.5t22.5 9.5t9 22.5q0 31 19.5 48t44.5 17q15 0 28 -3.5t24.5 -16t11.5 -34.5q0 -15 -7 -28.5t-29 -25.5t-41 -34.5t-19 -49.5q0 -13 9.5 -22.5t23 -9.5
t22.5 9.5t9 22.5q0 3 4 8t10 10.5t12 9.5q35 19 52.5 46.5t17.5 63.5q0 29 -10.5 52.5t-29 37.5t-41 21t-47.5 7z" />
    <glyph glyph-name="u" unicode="u" 
d="M220 64q0 -24 22 -32q6 -1 11 -1q24 0 31 22q2 5 2 11q0 23 -22 31q-6 1 -11 2q-23 0 -31 -22q-1 -6 -2 -11zM311 188q35 19 52.5 46.5t17.5 63.5q0 24 -7 43.5t-19.5 33t-29 23t-34.5 14t-38 4.5q-50 0 -89 -34.5t-39 -94.5q0 -13 9.5 -22.5t23 -9.5t22.5 9.5t9 22.5
q0 31 19.5 48t44.5 17q15 0 28 -3.5t24.5 -16t11.5 -34.5q0 -15 -7 -28.5t-29 -25.5t-41 -34.5t-19 -49.5q0 -13 9.5 -22.5t23 -9.5t22.5 9.5t9 22.5q0 5 8.5 14t17.5 14z" />
    <glyph glyph-name="v" unicode="v" 
d="M30.5 10q4.5 -9 14.5 -9q66 0 129 37q17 -3 43 -5.5t39 -2.5q105 0 179.5 61.5t74.5 147.5t-74.5 147t-179.5 61q-116 0 -192 -72q-62 -59 -62 -136q0 -85 72 -146q-16 -35 -41 -66q-7 -8 -2.5 -17zM34 239q0 36 17.5 68.5t47.5 56t71 37.5t86 14q60 0 111.5 -23.5
t81 -64t29.5 -88.5q0 -80 -75 -133q-64 -43 -147 -44q-41 0 -82 8q-6 1 -12 -2q-43 -26 -83 -33q18 28 29 58q2 5 0.5 10t-5.5 8q-69 53 -69 128z" />
    <glyph glyph-name="w" unicode="w" 
d="M447 291q4 -20 4 -39q0 -77 -58 -135.5t-145 -72.5q39 -15 81 -15q40 0 77 14q20 -7 42.5 -10t45.5 -3q-18 22 -30 47q48 43 48 101q0 33 -17.5 62.5t-47.5 50.5zM24 73q4 -8 14 -8q35 1 87 34q55 -9 76 -9q85 0 143 51.5t58 126.5q0 74 -59 126.5t-142 52.5
q-95 0 -155 -66q-45 -50 -45 -113q0 -71 55 -123l-6 -14t-7 -14t-8.5 -13.5t-9.5 -13.5q-3 -3 -3.5 -8t2.5 -9zM33 268q0 61 49.5 104t119 43t119 -43t49.5 -104q0 -62 -48 -104t-120 -42q-29 0 -77 10q-7 1 -12 -2q-19 -13 -38 -21q9 17 15 35q4 11 -4 18q-8 6 -14 12.5
t-11.5 13.5t-10 14.5t-7.5 15.5t-5.5 16.5t-3.5 17t-1 16.5z" />
    <glyph glyph-name="x" unicode="x" 
d="M32 92h73l140 -118q9 -6 18 -6h1h1q9 1 15 7t8 15v468q-2 9 -8 15t-15 7h-2q-4 0 -8.5 -1.5t-9.5 -4.5l-140 -122h-73q-13 0 -22.5 -9.5t-9.5 -22.5v-4v-188v-4q0 -9 4.5 -16.5t11.5 -11.5t16 -4zM32 128v188v4h73q3 0 5.5 0.5t4.5 1t4.5 2t4.5 2.5t4 3q7 8 128 113v-436
q-120 101 -128 109q-3 3 -6.5 5t-7.5 3t-9 1h-73v4zM506.5 307q-5.5 6 -14 6t-13.5 -6l-56 -55l-55 55q-6 6 -14 6t-13 -6q-4 -4 -5.5 -9t0 -10t5.5 -9l55 -55l-55 -55q-6 -6 -6 -14t5.5 -14t13.5 -6t14 6l55 55l56 -55q5 -6 13.5 -6t14 6t5.5 14t-6 14l-55 55l55 55
q6 6 6 14t-5.5 14z" />
    <glyph glyph-name="y" unicode="y" 
d="M327 480q-4 0 -8.5 -1.5t-9.5 -4.5l-140 -122h-73q-13 0 -22.5 -9.5t-9.5 -22.5v-4v-188v-4q0 -13 9.5 -22.5t22.5 -9.5h73l140 -118q9 -6 18 -6h1h1q4 1 8 2.5t7 4.5t5 7t3 8v468q-2 9 -8 15t-15 7h-2zM320 6q-120 101 -128 109q-9 9 -23 9h-73v4v188v4h73q13 1 23 9
q7 8 128 113v-436zM401 168q-4 -2 -6 -5.5t-2.5 -7.5t1.5 -8q2 -5 6 -7t8 -2q5 0 8 1q24 13 38 35.5t14 49.5t-14 49.5t-38 35.5q-6 3 -12.5 0.5t-9.5 -8.5t-1 -12t8 -9q4 -2 8 -4.5t7 -5.5t6 -6.5t5 -7t4 -7.5t3 -8t1.5 -8.5t0.5 -8.5q0 -38 -35 -56z" />
    <glyph glyph-name="z" unicode="z" 
d="M32 92h73l140 -118q9 -6 18 -6h1h1q9 1 15 7t8 15v468q-2 9 -8 15t-15 7h-2q-4 0 -8.5 -1.5t-9.5 -4.5l-140 -122h-73q-13 0 -22.5 -9.5t-9.5 -22.5v-4v-188v-4q0 -9 4.5 -16.5t11.5 -11.5t16 -4zM32 128v188v4h73q3 0 5.5 0.5t4.5 1t4.5 2t4.5 2.5t4 3q7 8 128 113v-436
q-120 101 -128 109q-3 3 -6.5 5t-7.5 3t-9 1h-73v4zM337 168q-4 -2 -6 -5.5t-2.5 -7.5t1.5 -8q2 -5 6 -7t8 -2q5 0 8 1q24 13 38 35.5t14 49.5t-14 49.5t-38 35.5q-6 3 -12.5 0.5t-9.5 -8.5t-1 -12t8 -9q8 -4 14.5 -10t11 -13t7 -15.5t2.5 -17.5q0 -38 -35 -56zM315 40
q3 -13 16 -13q1 0 1.5 0.5t1.5 0.5q70 13 116 68.5t46 127.5t-46 127.5t-116 68.5q-6 2 -11.5 -2t-7.5 -10q-1 -5 0.5 -9t5 -6.5t7.5 -3.5q59 -12 97.5 -58.5t38.5 -106.5t-38.5 -106.5t-97.5 -58.5q-7 -1 -10.5 -6.5t-2.5 -12.5z" />
    <glyph glyph-name="braceleft" unicode="{" 
d="M128 270q0 -10 3.5 -19t10 -15.5t15.5 -10.5t18 -4q3 0 5 0.5t4.5 1l5 1t4.5 1.5t4 3q-5 -56 -64 -104q-5 -4 -6 -10.5t3 -11.5q2 -2 4 -3.5t4 -2.5t5 -1q5 0 9 4q72 58 76 130q4 50 -21 75l-1 1l-2 3q-2 1 -4 2.5t-3 2.5h-1l-6 3l1 -1q-5 2 -9 3t-8 1q-8 0 -15 -2.5
t-13 -7t-10 -10.5t-6.5 -13.5t-2.5 -15.5zM283 270q0 -20 14 -34.5t33 -14.5q4 0 8 1t8 2.5t7 3.5q-5 -56 -64 -104q-5 -4 -5.5 -10.5t3.5 -11.5q1 -2 3 -3.5t4 -2.5t5 -1q5 0 9 4q72 58 76 130q1 8 1 14.5t-1 13t-2 11.5t-2.5 10t-3.5 8.5l-4 7t-4 6t-5 4.5q-3 3 -3 4
q-3 3 -7 5h-1l-6 3l1 -1q-9 4 -17 4q-30 0 -43 -29q-4 -10 -4 -20z" />
    <glyph glyph-name="bar" unicode="|" 
d="M256 480q-106 0 -181 -75t-75 -181t75 -181t181 -75t181 75t75 181t-75 181t-181 75zM256 0q-93 0 -158.5 65.5t-65.5 158.5t65.5 158.5t158.5 65.5t158.5 -65.5t65.5 -158.5t-65.5 -158.5t-158.5 -65.5zM205 308q-2 1 -4 2.5t-3 2.5h-1l-6 3l1 -1q-5 2 -9 3t-8 1
q-13 0 -23.5 -6.5t-17 -18t-6.5 -24.5q0 -8 2.5 -15.5t6.5 -13.5t10 -10.5t13 -7t15 -2.5q3 0 5 0.5t4.5 1l5 1t4.5 1.5t4 3q-5 -56 -64 -104q-5 -4 -6 -10.5t3 -11.5q2 -2 4 -3.5t4 -2.5t5 -1q5 0 9 4q72 58 76 130q4 50 -21 75l-1 1zM360 308q-3 3 -7 5h-1l-5 3v-1
q-9 4 -17 4q-19 0 -33 -14.5t-14 -34.5q0 -8 2.5 -15.5t7 -13.5t10 -10.5t13 -7t14.5 -2.5q6 0 12 1.5t11 5.5q-2 -24 -16.5 -50.5t-47.5 -53.5q-5 -4 -5.5 -10.5t3.5 -11.5q2 -3 5 -5t7 -2q5 0 9 4q72 58 76 130q4 50 -21 75q-2 3 -3 4z" />
    <glyph glyph-name="braceright" unicode="}" 
d="M273 446q-99 0 -169 -70t-70 -169t70 -169t169 -70t169 70t70 169t-70 169q-34 34 -78 52t-91 18zM419.5 60.5q-60.5 -60.5 -146.5 -60.5t-146.5 60.5t-60.5 146.5t61 146q29 30 67 45.5t79 15.5q86 0 146 -61q30 -29 45.5 -67t15.5 -79q0 -86 -60.5 -146.5zM368 224h-80
v112q0 7 -4.5 11.5t-11.5 4.5t-11.5 -4.5t-4.5 -11.5v-128v0q0 -7 4.5 -11.5t11.5 -4.5h96q7 0 11.5 4.5t4.5 11.5t-4.5 11.5t-11.5 4.5z" />
    <glyph glyph-name="asciitilde" unicode="~" 
d="M256 480q-33 0 -62.5 -13t-51 -34.5t-34 -51.5t-12.5 -63v-30h-32q-13 0 -22.5 -9.5t-9.5 -22.5v-256q0 -13 9.5 -22.5t22.5 -9.5h384q13 0 22.5 9.5t9.5 22.5v256q0 13 -9.5 22.5t-22.5 9.5h-32v30q0 67 -47 114.5t-113 47.5zM128 318q0 53 37.5 91.5t90.5 38.5
q35 0 64.5 -17.5t46.5 -47.5t17 -65v-30h-256v30zM448 0h-384v256h384v-256zM320 128q0 27 -18.5 45.5t-45.5 18.5t-45.5 -18.5t-18.5 -45.5t18.5 -45.5t45.5 -18.5t45.5 18.5t18.5 45.5zM256 96q-13 0 -22.5 9.5t-9.5 22.5t9.5 22.5t22.5 9.5t22.5 -9.5t9.5 -22.5
t-9.5 -22.5t-22.5 -9.5z" />
    <glyph glyph-name="uniE000" unicode="&#xe000;" 
d="M480 0v256q0 13 -9.5 22.5t-22.5 9.5h-320v14q0 64 36 105t94 41q41 0 76 -22.5t53 -61.5q3 -6 9.5 -8t12.5 0.5t8 9t-1 12.5q-8 19 -20.5 35t-28 28t-33 21t-37 13.5t-39.5 4.5q-47 0 -84 -23t-57.5 -63.5t-20.5 -91.5v-14h-32q-13 0 -22.5 -9.5t-9.5 -22.5v-256
q0 -13 9.5 -22.5t22.5 -9.5h384q13 0 22.5 9.5t9.5 22.5zM64 256h384v-256h-384v256zM256 192q-27 0 -45.5 -18.5t-18.5 -45.5t18.5 -45.5t45.5 -18.5t45.5 18.5t18.5 45.5t-18.5 45.5t-45.5 18.5zM256 96q-13 0 -22.5 9.5t-9.5 22.5t9.5 22.5t22.5 9.5t22.5 -9.5t9.5 -22.5
t-9.5 -22.5t-22.5 -9.5z" />
    <glyph glyph-name="uniE001" unicode="&#xe001;" 
d="M176 80v4.5t-0.5 5t-1 4.5t-1 4.5t-1.5 4.5l-2 4q-8 17 -23.5 27t-34.5 10q-26 0 -45 -19t-19 -45q0 -8 3 -18q16 -27 43 -43q10 -3 18 -3q17 0 32 8.5t23.5 23.5t8.5 32zM112 112q20 0 29 -18q3 -7 3 -14q0 -13 -9.5 -22.5t-22.5 -9.5t-22.5 9.5t-9.5 22.5t9.5 22.5
t22.5 9.5zM496 480h-69q-6 -1 -11 -4l-226 -191q-16 3 -30 3q-66 0 -113 -47t-47 -113t47 -113t113 -47t113 47t47 113q0 13 -2 25t-6 25l49 31q2 2 3.5 4t2.5 4.5t1 5.5v58l61 3q14 1 15 14l6 62l53 26q4 2 6.5 5.5t2.5 8.5v64q0 7 -4.5 11.5t-11.5 4.5zM480 410l-52 -25
q-8 -4 -9 -13l-6 -57l-62 -3q-6 0 -10.5 -5t-4.5 -11v-65l-52 -34q-11 -7 -6 -19q10 -24 10 -50q0 -53 -37.5 -90.5t-90.5 -37.5q-35 0 -66 19q-13 8 -24 19t-19 24q-19 31 -19 66q0 53 37.5 90.5t90.5 37.5q14 0 30 -4q4 -1 8 0t6 3l229 193h47v-38z" />
    <glyph glyph-name="uniE002" unicode="&#xe002;" 
d="M416 224h-2h-1q3 16 3 32q0 66 -47 113t-113 47t-113 -47t-47 -113v-1v-1q-41 -5 -68.5 -36.5t-27.5 -73.5t27.5 -73t68.5 -37v-2h320q40 0 68 28t28 68t-28 68t-68 28zM416 64h-310q-3 1 -5 1q-30 5 -49.5 27.5t-19.5 51.5q0 15 5.5 28.5t14.5 23.5t21.5 17.5t27.5 9.5
q8 1 14 5.5t9.5 11.5t3.5 15v3q1 52 38 89t90 37t90.5 -37.5t37.5 -90.5q0 -7 -0.5 -13.5t-2.5 -12.5q-1 -7 1 -14t6 -13q5 -5 11.5 -8t13.5 -3h1h1h2q26 -1 44.5 -19.5t18.5 -44.5t-19 -45t-45 -19z" />
    <glyph glyph-name="uniE003" unicode="&#xe003;" 
d="M417 224h-4q3 16 3 32q0 66 -47 113t-113 47q-32 0 -62 -12.5t-51.5 -34t-34 -50.5t-12.5 -61v-4q-41 -5 -68.5 -37t-27.5 -73q0 -42 27 -74t69 -38h80q7 0 11.5 4.5t4.5 11.5t-4.5 11.5t-11.5 4.5h-78q-18 3 -33 14.5t-24 29t-9 36.5q0 29 19.5 52t49.5 27l13 2q3 0 5 1
t3.5 2.5t3 3.5t2 4t0.5 5v17q0 52 37.5 89t90.5 37t90.5 -37.5t37.5 -90.5v-6.5t-0.5 -6.5t-1 -6.5t-1.5 -6.5l-4 -20q-2 -8 4 -14q1 -2 3 -3t3.5 -1.5t3.5 -1t4 0.5h4t7.5 0.5t10.5 0.5q38 0 56 -35q7 -14 7 -29q0 -26 -19 -45t-45 -19h-112q-20 0 -32 7.5t-14 13.5t-2 11
v106l38 -38q11 -11 22 0q4 3 5 7.5t0 8.5t-5 7l-64 64q-5 5 -11 5h-1q-7 0 -12 -5l-64 -64q-3 -3 -4 -7.5t0 -8.5t4 -7q11 -11 23 0l37 37v-105q0 -22 19 -43t61 -21h112q40 0 68 28t28 68t-28 68t-67 28z" />
    <glyph glyph-name="uniE004" unicode="&#xe004;" 
d="M419 224q34 80 -4 133q-11 16 -28 27t-36 15t-37 1q-47 -9 -68.5 -43t-21.5 -101v-74l-37 37q-11 11 -22.5 0t-0.5 -23l65 -64q4 -5 11 -5t12 5l65 65q3 3 4 7t0 8t-4 7q-11 12 -23 0l-38 -38v75q0 27 4 46.5t9.5 31t14.5 19t17 10.5t19 5t23.5 0t25 -10t20.5 -19
q11 -15 13 -34.5t-4 -42.5t-21 -49q-5 -9 1 -17q3 -4 7.5 -5.5t8.5 -0.5q14 2 23 2q13 0 24.5 -5t20 -13.5t13.5 -20.5t5 -25q0 -26 -19 -45t-45 -19h-318q-28 4 -47 27t-19 52.5t19.5 52.5t49.5 27l13 2q3 0 5 1t3.5 2.5t3 3.5t2 4t0.5 5v17q0 21 6.5 40.5t17.5 34
t26.5 24.5t33.5 13q7 1 10.5 6t2.5 11.5t-6 10.5t-12 3q-48 -7 -79.5 -47.5t-31.5 -95.5v-4q-41 -5 -68.5 -37t-27.5 -73q0 -42 27 -74t69 -38h320q40 0 68 28t28 68q0 39 -27.5 67t-65.5 29z" />
    <glyph glyph-name="uniE005" unicode="&#xe005;" 
d="M276 293q0 -30 27 -41q9 -3 17 -4q30 0 41 28q3 9 4 17q0 12 -6 22.5t-16.5 16.5t-22.5 6q-29 0 -41 -28q-3 -9 -3 -17zM416 32h32v32v64v96l-128 -96l-160 128l-96 -96v-32v-64v-32h32h320zM480 416h-448q-13 0 -22.5 -9.5t-9.5 -22.5v-384q0 -13 9.5 -22.5t22.5 -9.5
h448q13 0 22.5 9.5t9.5 22.5v384q0 13 -9.5 22.5t-22.5 9.5zM480 0h-448v384h448v-384z" />
    <glyph glyph-name="uniE006" unicode="&#xe006;" 
d="M480 384h-32v64q0 13 -9.5 22.5t-22.5 9.5h-384q-13 0 -22.5 -9.5t-9.5 -22.5v-352q0 -13 9.5 -22.5t22.5 -9.5h32v-64q0 -13 9.5 -22.5t22.5 -9.5h384q13 0 22.5 9.5t9.5 22.5v352q0 13 -9.5 22.5t-22.5 9.5zM32 96v352h384v-352h-384zM480 0h-384v64h32v-32h32h256h32
v32v32v96v160h32v-352zM237 349q0 -30 27 -41q9 -3 17 -4q30 0 41 28q3 9 4 17q0 12 -6 22.5t-16.5 16.5t-22.5 6q-29 0 -41 -28q-3 -9 -3 -17zM160 320l-96 -64v-64v-32v-32h32h256h32v32v32v96l-128 -64z" />
    <glyph glyph-name="uniE007" unicode="&#xe007;" 
d="M256 480q-79 0 -135.5 -56.5t-56.5 -135.5q0 -46 21.5 -87.5t59.5 -68.5l2 -2q7 -4 10 -15t2 -18v-2v-63q0 -20 18 -28l64 -33q4 -2 7.5 -3t7.5 -1q8 0 14 3l66 33q17 9 17 29v63q0 14 5.5 24.5t9 13.5t5.5 4t3.5 2t3.5 2q68 58 68 147q0 79 -56.5 135.5t-135.5 56.5z
M191 95v1h130v-1v-31h-130v31zM256 -1l-65 33h130zM359 166q-21 -10 -32 -38h-141q-7 20 -23 30q-31 22 -49 56t-18 74q0 66 47 113t113 47t113 -47t47 -113q0 -36 -15 -68t-42 -54zM272 416q-7 0 -11.5 -4.5t-4.5 -11.5t4.5 -11.5t11.5 -4.5q29 0 54.5 -23.5t25.5 -58.5
q0 -6 4.5 -11t11.5 -5t11.5 5t4.5 11q0 52 -34 83t-78 31z" />
    <glyph glyph-name="uniE008" unicode="&#xe008;" 
d="M480 352h-191h-65h-192q-13 0 -22.5 -9.5t-9.5 -22.5v-96h32v-224q0 -13 9.5 -22.5t22.5 -9.5h160h65h159q13 0 22.5 9.5t9.5 22.5v224h32v96q0 13 -9.5 22.5t-22.5 9.5zM32 320h192v-64h-192v64zM64 0v224h160v-224h-160zM448 0h-159v224h159v-224zM480 256h-191v64h191
v-64zM256 384v0h128q32 0 48 13.5t16 34.5t-16 34.5t-48 13.5q-55 0 -96 -40q-16 9 -33 9q-16 0 -32 -9q-40 40 -95 40q-32 0 -48 -13.5t-16 -34.5t16 -34.5t48 -13.5h128zM416 432q0 -16 -32 -16h-73v1q6 7 13.5 12t16.5 9.5t20 7t23 2.5q32 0 32 -16zM96 432q0 16 32 16
q41 0 72 -30l-1 -1v-1h-71q-32 0 -32 16z" />
    <glyph glyph-name="uniE009" unicode="&#xe009;" 
d="M26 195l38 31v-226q0 -13 9.5 -22.5t22.5 -9.5h96q13 0 22.5 9.5t9.5 22.5v128h64v-128q0 -13 9.5 -22.5t22.5 -9.5h96q13 0 22.5 9.5t9.5 22.5v226l38 -31q2 -1 4.5 -2t5.5 -1q8 0 13 6q2 3 2.5 7.5t-1 8.5t-4.5 7l-240 192q-10 7 -20 0l-86 -69v40q0 13 -9.5 22.5
t-22.5 9.5t-22.5 -9.5t-9.5 -22.5v-91l-90 -72q-12 -10 -2.5 -22.5t22.5 -3.5zM256 380l160 -128v-252h-96v160h-128v-160h-96v251z" />
    <glyph glyph-name="uniE00A" unicode="&#xe00a;" 
d="M41 86q7 -12 20.5 -19.5t36.5 -7.5q30 0 77 17q25 -108 81 -108q31 0 50.5 31t30.5 80q15 -5 29 -8.5t26.5 -5.5t22.5 -2q24 0 38 8t22 20q4 7 6 15.5t1 16.5t-3.5 17t-7.5 17.5t-11 17.5t-13.5 17.5t-15.5 16.5l-17 17q14 13 24 24q61 70 33 112q-17 27 -57 27
q-30 0 -77 -17q-25 108 -81 108q-57 0 -81 -111q-23 8 -43 12t-35 4q-43 0 -60 -28q-31 -51 61 -135q-14 -13 -24 -24q-61 -70 -33 -112zM256 0q-31 0 -51 88q26 11 52 25q9 -4 17.5 -8t16.5 -7.5t16 -7.5q-19 -90 -51 -90zM192 224q0 15 1 34q15 11 28 20q9 5 17 10t17 10
q9 -5 17.5 -9.5t16.5 -9.5q14 -9 30 -20q1 -19 1 -35q0 -15 -1 -34q-15 -11 -28 -20q-5 -3 -9 -5.5t-8.5 -5t-8.5 -5t-8 -4.5q-19 10 -34 19q-14 9 -30 20q-1 19 -1 35zM160 212q-7 6 -14 11q4 2 7 5t7 6v-10v-5v-7zM196 299q1 14 3 26q9 -3 22 -10l-17 -10q-1 -1 -4 -3
t-4 -3zM288 316q13 7 25 12q2 -13 3 -28q-6 3 -10 6q-1 1 -2.5 2t-3 1.5t-3 1.5l-3 2t-3 1.5t-3.5 1.5zM352 236q7 -6 14 -11q-6 -4 -14 -11v5.5v4.5v5v7zM316 149q-1 -15 -3 -26q-5 2 -10.5 4.5t-11.5 5.5l17 10q1 1 4 3t4 3zM206.5 142q1.5 -1 17.5 -10q-13 -7 -25 -12
q-2 13 -3 28q4 -2 6.5 -3.5t4 -2.5zM447 107q-7 -12 -32 -12q-27 0 -72 16q5 29 7 61l20 16l20 16q35 -31 50.5 -57t6.5 -40zM414 357q8 0 13.5 -1.5t10 -4t6.5 -6.5q9 -14 -6 -40t-48 -58q-11 8 -21 15.5t-19 14.5q-1 15 -3 31l-4 32q44 17 71 17zM256 448q31 0 51 -88
q-13 -5 -26 -11.5t-26 -13.5q-26 13 -50 23q9 42 22.5 66t28.5 24zM65 341q7 12 32 12q27 0 72 -16q-3 -15 -4.5 -30.5t-2.5 -30.5q-20 -15 -40 -32q-35 31 -50.5 57t-6.5 40zM162 171q2 -34 7 -63q-14 -5 -27 -9t-24 -6t-20 -2q-23 0 -30 12q-9 14 6 40t48 58
q20 -16 40 -30z" />
    <glyph glyph-name="uniE00B" unicode="&#xe00b;" 
d="M384 -32q13 0 22.5 9.5t9.5 22.5v448q0 13 -9.5 22.5t-22.5 9.5h-224q-13 0 -22.5 -9.5t-9.5 -22.5v-448q0 -13 9.5 -22.5t22.5 -9.5h224zM256 18q0 7 5.5 12.5t12.5 5.5q4 0 7 -1.5t5.5 -4t4 -5.5t1.5 -7q0 -7 -5.5 -12.5t-12.5 -5.5t-12.5 5.5t-5.5 12.5zM336 448
q7 0 11.5 -4.5t4.5 -11.5t-4.5 -11.5t-11.5 -4.5h-32q-7 0 -11.5 4.5t-4.5 11.5t4.5 11.5t11.5 4.5h32zM256 432q0 -7 -4.5 -11.5t-11.5 -4.5t-11.5 4.5t-4.5 11.5t4.5 11.5t11.5 4.5t11.5 -4.5t4.5 -11.5zM160 384h224v-320h-224v320z" />
    <glyph glyph-name="uniE00C" unicode="&#xe00c;" 
d="M416 -32q13 0 22.5 9.5t9.5 22.5v448q0 13 -9.5 22.5t-22.5 9.5h-320q-13 0 -22.5 -9.5t-9.5 -22.5v-448q0 -13 9.5 -22.5t22.5 -9.5h320zM256 -18q-7 0 -12.5 5.5t-5.5 12.5t5.5 12.5t12.5 5.5t12.5 -5.5t5.5 -12.5q0 -2 -0.5 -4.5t-2 -4.5t-3 -3.5t-3.5 -3t-4.5 -2
t-4.5 -0.5zM128 416h256v-384h-256v384z" />
    <glyph glyph-name="uniE00D" unicode="&#xe00d;" 
d="M495 96h-15v288q0 13 -9.5 22.5t-22.5 9.5h-384q-13 0 -22.5 -9.5t-9.5 -22.5v-288h-15q-5 0 -9 -2t-6 -6t-2 -8q0 -7 5 -11.5t12 -4.5h47h384h47q7 0 12 4.5t5 11.5q0 2 -0.5 4t-1.5 4t-2.5 3.5t-3.5 2.5t-4 1.5t-5 0.5zM448 384v-255h-384v255h384z" />
    <glyph glyph-name="uniE00E" unicode="&#xe00e;" 
d="M480 448h-448q-13 0 -22.5 -9.5t-9.5 -22.5v-288q0 -13 9.5 -22.5t22.5 -9.5h160q0 -52 -10 -64h-6q-7 0 -11.5 -4.5t-4.5 -11.5q0 -4 2 -8t5.5 -6t8.5 -2h160q7 0 11.5 4.5t4.5 11.5t-4.5 11.5t-11.5 4.5h-6q-10 12 -10 64h160q13 0 22.5 9.5t9.5 22.5v288
q0 13 -9.5 22.5t-22.5 9.5zM224 96zM288 96zM480 160h-448v256h448v-256z" />
    <glyph glyph-name="uniE00F" unicode="&#xe00f;" 
d="M480 320h-64q-2 0 -5.5 1t-12 9t-14.5 22q-14 32 -32 32h-128q-19 0 -32 -32q-6 -14 -14 -22t-13 -9l-5 -1h-32q0 13 -9.5 22.5t-22.5 9.5h-32q-13 0 -22.5 -9.5t-9.5 -22.5q-13 0 -22.5 -9.5t-9.5 -22.5v-256q0 -13 9.5 -22.5t22.5 -9.5h448q13 0 22.5 9.5t9.5 22.5v132
v28v96q0 13 -9.5 22.5t-22.5 9.5zM480 32h-448v128h146q6 -41 37 -68.5t73 -27.5q43 0 74.5 29t36.5 71h81v-132zM208 176q0 33 23.5 56.5t56.5 23.5t56.5 -23.5t23.5 -56.5t-23.5 -56.5t-56.5 -23.5t-56.5 23.5t-23.5 56.5zM398 192q-3 27 -18.5 49t-39.5 34.5t-52 12.5
q-21 0 -40 -7.5t-33.5 -20t-24 -30.5t-12.5 -38h-146v96h32h32h64q6 0 12 1.5t13 5.5t13.5 10t12.5 15t11 20q1 5 2.5 7.5t2.5 4.5h122l6 -12q5 -14 13 -24.5t15 -15.5t14.5 -8t11.5 -3.5t7 -0.5h64v-96h-82zM64 240q0 -7 4.5 -11.5t11.5 -4.5q3 0 6 1t5 3.5t3.5 5t1.5 6.5
q0 13 -13 15q-2 1 -3 1q-3 0 -5 -1t-4 -2.5t-3.5 -3.5t-2.5 -4.5t-1 -4.5z" />
    <glyph glyph-name="uniE010" unicode="&#xe010;" 
d="M480 352h-448q-13 0 -22.5 -9.5t-9.5 -22.5v-320q0 -13 9.5 -22.5t22.5 -9.5h448q13 0 22.5 9.5t9.5 22.5v320q0 13 -9.5 22.5t-22.5 9.5zM182 127l74 -50l74 50l127 -127h-402zM32 23v206l123 -84zM357 146l123 85v-208zM480 320v-52l-1 1l-223 -154l-224 153v52h448z
" />
    <glyph glyph-name="uniE011" unicode="&#xe011;" 
d="M399 160l-12 32h-34h-194h-34l-12 -32l-49 -128h384zM147 160h218l37 -96h-292zM329 256h34l-12 32l-65 172q-8 20 -30 20t-30 -20l-65 -172l-12 -32h34h146zM256 448l61 -160h-122zM496 0h-480q-7 0 -11.5 -4.5t-4.5 -11t5 -11.5t11 -5h480q6 0 11 5t5 11.5t-4.5 11
t-11.5 4.5z" />
    <glyph glyph-name="uniE012" unicode="&#xe012;" 
d="M84 -30q6 -2 12 -2q13 0 23 9l137 138l137 -138q10 -9 23 -9q2 0 4 0.5l4 1t4 0.5q20 9 20 30v448q0 13 -9.5 22.5t-22.5 9.5h-320q-13 0 -22.5 -9.5t-9.5 -22.5v-448q0 -21 20 -30zM256 160l-160 -160v352h320v-352zM416 448v-64h-320v64h320z" />
    <glyph glyph-name="uniE013" unicode="&#xe013;" 
d="M96 -32h320q13 0 22.5 9.5t9.5 22.5v352q0 13 -9.5 22.5t-22.5 9.5h-64q-1 40 -29 68t-67 28t-67 -28t-29 -68h-64q-13 0 -22.5 -9.5t-9.5 -22.5v-352q0 -13 9.5 -22.5t22.5 -9.5zM416 352v-352h-320v352h320zM256 448q26 0 44.5 -18.5t19.5 -45.5h-128q1 27 19.5 45.5
t44.5 18.5zM208 288h96q7 0 11.5 4.5t4.5 11.5t-4.5 11.5t-11.5 4.5h-96q-7 0 -11.5 -4.5t-4.5 -11.5t4.5 -11.5t11.5 -4.5z" />
    <glyph glyph-name="uniE014" unicode="&#xe014;" 
d="M480 416h-448q-13 0 -22.5 -9.5t-9.5 -22.5v-65v-63v-192q0 -13 9.5 -22.5t22.5 -9.5h448q13 0 22.5 9.5t9.5 22.5v192v63v65q0 13 -9.5 22.5t-22.5 9.5zM480 64h-448v192h448v-192zM32 319v65h448v-65h-448zM80 96h160q7 0 11.5 4.5t4.5 11.5t-4.5 11.5t-11.5 4.5h-160
q-7 0 -11.5 -4.5t-4.5 -11.5t4.5 -11.5t11.5 -4.5zM288 112q0 -7 4.5 -11.5t11.5 -4.5q13 3 16 16q0 7 -4.5 11.5t-11.5 4.5t-11.5 -4.5t-4.5 -11.5zM352 112q0 -7 4.5 -11.5t11.5 -4.5q13 3 16 16q0 7 -4.5 11.5t-11.5 4.5t-11.5 -4.5t-4.5 -11.5zM416 112q0 -7 4.5 -11.5
t11.5 -4.5q13 3 16 16q0 7 -4.5 11.5t-11.5 4.5t-11.5 -4.5t-4.5 -11.5z" />
    <glyph glyph-name="uniE015" unicode="&#xe015;" 
d="M96 0q0 -24 22 -31q6 -1 10 -1q24 0 31 22q1 6 1 10q0 24 -22 31q-6 1 -10 1q-24 0 -31 -22q-1 -6 -1 -10zM384 0q0 -13 9.5 -22.5t22.5 -9.5q24 0 31 22q1 6 1 10q0 13 -9.5 22.5t-22.5 9.5q-24 0 -31 -22q-1 -6 -1 -10zM-1 400q0 -7 4.5 -11.5t11.5 -4.5h33l20 -85
l28 -139v-2l1 -1l-17 -74q-1 -7 4 -13q2 -3 5 -4.5t7 -1.5h363q7 0 11.5 4.5t4.5 11.5t-4.5 11.5t-11.5 4.5h-343l7 33q1 0 2.5 -0.5t2.5 -0.5h292q9 0 15 1.5t11.5 7t10.5 15.5l51 159q7 20 -3 30.5t-25 10.5h-384q-1 0 -7 -1l-12 53q-4 11 -16 12h-46q-16 0 -16 -16z
M97 320h381l-51 -157l-2 -3h-5h-292v3l-1 3z" />
    <glyph glyph-name="uniE016" unicode="&#xe016;" 
d="M225 368q-25 26 -54.5 28t-51.5 -20.5t-20 -51.5t27 -55l183 -183q12 -11 23 0.5t0 22.5l-183 183q-14 14 -17 29t10 32q16 13 31.5 10t29.5 -17l203 -204q31 -31 44 -50t12.5 -36t-18.5 -34q-17 -18 -36 -20.5t-41.5 9.5t-50.5 41l-227 226q-19 20 -30.5 43t-8.5 50.5
t25 50.5q16 16 35 21.5t34 2.5t31 -11.5t24.5 -15.5t16.5 -15l208 -207q11 -12 23 0q3 3 4 7t0 8t-4 7l-208 208q-47 47 -97 52t-89 -34q-13 -13 -21.5 -28t-12 -31t-2 -33t7 -33.5t16.5 -33t26 -31.5l226 -226l11.5 -11.5t14 -12.5t18 -13.5t19.5 -11.5t22.5 -8.5
t22.5 -2.5q17 0 33.5 7t32.5 23q9 10 15.5 19.5t9 18.5t3.5 17.5t-2 18t-5 17t-8.5 17t-11 15.5t-13 15t-13 14t-13.5 14z" />
    <glyph glyph-name="uniE017" unicode="&#xe017;" 
d="M465 448h-1h-1h-201q-7 -1 -17 -9l-236 -236q-9 -9 -9 -22.5t9 -22.5l181 -181q5 -4 10.5 -6.5t12.5 -2.5q13 0 22 9l236 236q2 2 5.5 7.5t3.5 9.5v202q0 7 -4 11.5t-11 4.5zM448 236l-1 -2l-234 -234l-181 181l234 234q1 0 2 1h180v-180zM384 368q0 -7 4.5 -11.5
t11.5 -4.5t11.5 4.5t4.5 11.5t-4.5 11.5t-11.5 4.5t-11.5 -4.5t-4.5 -11.5z" />
    <glyph glyph-name="uniE018" unicode="&#xe018;" 
d="M465 480h-1v0h-170q-2 0 -6 -2t-7 -4t-4 -3l-204 -204q-9 -9 -9 -22.5t9 -22.5l26 -26l-26 -25q-9 -9 -9 -22.5t9 -22.5l149 -149q5 -4 10.5 -6.5t12.5 -2.5q13 0 22 9l204 204q2 2 5.5 7.5t3.5 9.5v266q0 4 -1.5 8t-5 6t-8.5 2zM448 204v-1l-203 -203l-149 148l25 26
l101 -101q5 -4 10.5 -6.5t12.5 -2.5q13 0 22 9l181 181v-50zM448 352v-52v-1v0l-203 -203l-149 148l202 203q1 0 1.5 0.5l0.5 0.5h148v-96zM384 400.5q0 -6.5 5 -11.5t11.5 -5t11 5t4.5 11.5t-4.5 11t-11 4.5t-11.5 -4.5t-5 -11z" />
    <glyph glyph-name="uniE019" unicode="&#xe019;" 
d="M416 448h-64q0 13 -9.5 22.5t-22.5 9.5h-96q-13 0 -22.5 -9.5t-9.5 -22.5h-64q-13 0 -22.5 -9.5t-9.5 -22.5h352q0 13 -9.5 22.5t-22.5 9.5zM96 0q0 -13 9.5 -22.5t22.5 -9.5h288q13 0 22.5 9.5t9.5 22.5v384h-352v-384zM128 352h288v-352h-288v352zM176 320
q-7 0 -11.5 -4.5t-4.5 -11.5v-256q0 -7 4.5 -11.5t11.5 -4.5t11.5 4.5t4.5 11.5v256q0 7 -4.5 11.5t-11.5 4.5zM272 320q-7 0 -11.5 -4.5t-4.5 -11.5v-256q0 -7 4.5 -11.5t11.5 -4.5t11.5 4.5t4.5 11.5v256q0 7 -4.5 11.5t-11.5 4.5zM368 320q-7 0 -11.5 -4.5t-4.5 -11.5
v-256q0 -7 4.5 -11.5t11.5 -4.5t11.5 4.5t4.5 11.5v256q0 7 -4.5 11.5t-11.5 4.5z" />
    <glyph glyph-name="uniE01A" unicode="&#xe01a;" 
d="M157 474q-7 9 -17 5q-5 -2 -8 -6t-3 -9v-418q1 -11 11 -15l5 -1q8 0 13 7l71 96l50 -142q5 -13 18 -19.5t26.5 -1.5t20 18t1.5 26l-49 140l112 -22q11 -2 17 7.5t-2 18.5zM247 196q-10 2 -16 -6l-70 -95v325l209 -248z" />
    <glyph glyph-name="uniE01B" unicode="&#xe01b;" 
d="M224 67v-67h-48q-7 0 -11.5 -4.5t-4.5 -11.5t4.5 -11.5t11.5 -4.5h80h80q7 0 11.5 4.5t4.5 11.5t-4.5 11.5t-11.5 4.5h-48v67q54 11 91 52t37 105v48q0 7 -4.5 11.5t-11.5 4.5t-11.5 -4.5t-4.5 -11.5v-48q0 -60 -38.5 -94t-89.5 -34t-89.5 33t-38.5 95v48q0 7 -4.5 11.5
t-11.5 4.5t-11.5 -4.5t-4.5 -11.5v-48q0 -65 36.5 -106t91.5 -51zM256 128q40 0 68 28t28 68v160q0 40 -28 68t-68 28t-68 -28t-28 -68v-160q0 -40 28 -68t68 -28zM192 384q0 27 18.5 45.5t45.5 18.5t45.5 -18.5t18.5 -45.5v-160q0 -27 -18.5 -45.5t-45.5 -18.5t-45.5 18.5
t-18.5 45.5v160z" />
    <glyph glyph-name="uniE01C" unicode="&#xe01c;" 
d="M256 480q-106 0 -181 -75t-75 -181t75 -181t181 -75t181 75t75 181t-75 181t-181 75zM256 0q-93 0 -158.5 65.5t-65.5 158.5t65.5 158.5t158.5 65.5t158.5 -65.5t65.5 -158.5t-65.5 -158.5t-158.5 -65.5zM360 350l-60 -38l-40 -24q16 -1 29 -9.5t21.5 -21.5t9.5 -29
l24 40l38 60q6 10 -3 19t-19 3zM192 220l-24 -40l-38 -60q-3 -4 -2 -9.5t5 -9.5q4 -5 11 -5q2 0 4.5 0.5t3.5 1.5l60 38l40 24q-24 2 -41 19t-19 41zM260 288h-1.5h-2.5q-27 0 -45.5 -18.5t-18.5 -45.5v-2.5v-1.5q2 -24 19 -41t41 -19h1.5h2.5q27 0 45.5 18.5t18.5 45.5v2.5
v1.5q-2 24 -19 41t-41 19zM224 224q0 13 9.5 22.5t22.5 9.5t22.5 -9.5t9.5 -22.5t-9.5 -22.5t-22.5 -9.5t-22.5 9.5t-9.5 22.5z" />
    <glyph glyph-name="uniE01D" unicode="&#xe01d;" 
d="M243 217q23 0 42 11.5t30.5 30.5t11.5 41.5t-11.5 42t-30.5 30.5t-41.5 11t-42 -11t-30.5 -30.5t-11 -41.5q0 -35 24.5 -59.5t58.5 -24.5zM243 352q14 0 26 -7t19 -18.5t7 -25.5q0 -22 -15 -37t-37 -15q-10 0 -19.5 4t-16.5 11t-11 16.5t-4 20.5q0 21 15 36t36 15z
M232 -23q4 -4 8 -7q3 -1 5 -1q1 0 2 0.5t3 0.5q4 3 8 7q6 6 16 18t36.5 47.5t47.5 70t40 80.5t23 86q2 12 2 22q0 74 -52.5 126.5t-127 52.5t-127 -52.5t-52.5 -126.5q0 -11 2 -23q12 -118 142 -274q23 -28 24 -27zM243 448q61 0 104.5 -43t43.5 -104q0 -8 -2 -19
q-1 -17 -6.5 -36t-12.5 -37t-16 -37t-18.5 -35t-20.5 -33t-20.5 -30t-19.5 -26.5t-17 -21.5t-13 -16q-18 21 -36.5 45.5t-44.5 63.5t-44.5 82.5t-22.5 80.5q-1 11 -1 19q0 61 43 104t104 43z" />
    <glyph glyph-name="uniE01E" unicode="&#xe01e;" 
d="M139 196q-5 -6 -7 -13.5t0 -15.5q4 -16 19 -22q35 -15 105 -17v-96q0 -16 5 -40t11 -24t11 24t5 40v96q70 2 105 17q5 2 9 5.5t6.5 7.5t3.5 9q4 16 -7 29q-6 7 -16 12.5t-18.5 9t-18.5 5.5v166q13 4 23.5 9.5t18.5 11.5q16 11 13 31q-2 8 -7.5 15t-14.5 10
q-41 14 -113 14q-73 0 -115 -14q-18 -7 -21 -26t13 -30q8 -7 19 -12.5t24 -9.5v-165q-16 -4 -30 -10.5t-23 -16.5zM202 419q-6 2 -11.5 4t-9.5 4t-7.5 4t-5.5 4q15 6 41.5 9.5t62.5 3.5q24 0 45.5 -2t35 -4.5t22.5 -5.5q-13 -10 -33 -17l-22 -7v-214l24 -6q13 -3 23 -8
t14 -10q-35 -14 -109 -14t-109 14q9 11 37 18l24 6v213z" />
    <glyph glyph-name="uniE01F" unicode="&#xe01f;" 
d="M487 415l-144 64q-2 1 -3.5 1h-3.5q-3 0 -6 -1l-154 -62l-137 62q-3 1 -7 1q-11 0 -20 -7q-12 -10 -12 -25v-384q0 -11 7 -20t18 -11l143 -64q4 -1 7 -1h3.5t3.5 1l154 62l137 -62q4 -1 7 -1q11 0 20 7q12 10 12 25v384q0 3 -0.5 5.5t-1.5 5l-2 5t-3 4.5l-4 4t-4 3.5
t-4.5 2.5t-5.5 1zM192 391l128 51v-384l-128 -51v384zM32 448l128 -57v-384l-128 57v384zM480 0l-128 57v384l128 -57v-384z" />
    <glyph glyph-name="uniE020" unicode="&#xe020;" 
d="M405 448h-301q-27 0 -40 -32l-64 -223v-17v-34v-126q0 -7 4.5 -11.5t11.5 -4.5h480q7 0 11.5 4.5t4.5 11.5v128v32v15l-64 225q-3 7 -8 13t-10.5 10.5t-11.5 6.5t-13 2zM94 405q1 3 2.5 5t3.5 4t4 2h301q3 0 6.5 -3t6.5 -8l60 -213h-142q-7 0 -11.5 -4.5t-4.5 -11.5v-48
h-128v48q0 7 -4.5 11.5t-11.5 4.5h-143zM480 32h-448v112v16h128v-48q0 -7 4.5 -11.5t11.5 -4.5h160q7 0 11.5 4.5t4.5 11.5v48h128v-15v-113z" />
    <glyph glyph-name="uniE021" unicode="&#xe021;" 
d="M480 320h-128q0 -13 -9.5 -22.5t-22.5 -9.5h160v-64h-160q13 0 22.5 -9.5t9.5 -22.5h128v-192h-448v192h128q0 13 9.5 22.5t22.5 9.5h-160v64h160q-13 0 -22.5 9.5t-9.5 22.5h-128q-13 0 -22.5 -9.5t-9.5 -22.5v-64v-32v-192q0 -13 9.5 -22.5t22.5 -9.5h448
q13 0 22.5 9.5t9.5 22.5v192v32v64q0 13 -9.5 22.5t-22.5 9.5zM192 288h128q13 0 22.5 9.5t9.5 22.5v32q0 13 -9.5 22.5t-22.5 9.5h-128q-13 0 -22.5 -9.5t-9.5 -22.5v-32q0 -13 9.5 -22.5t22.5 -9.5zM192 352h128v-32h-128v32zM160 192v-32q0 -13 9.5 -22.5t22.5 -9.5h128
q13 0 22.5 9.5t9.5 22.5v32q0 13 -9.5 22.5t-22.5 9.5h-128q-13 0 -22.5 -9.5t-9.5 -22.5zM320 160h-128v32h128v-32z" />
    <glyph glyph-name="uniE022" unicode="&#xe022;" 
d="M433 480h-145h-144h-63q-33 0 -56.5 -23t-24.5 -56v-67v-46v-175v-40v-24q0 -34 23.5 -57.5t57.5 -23.5h14h129h44h21h64q13 0 22 9.5t9 22.5v336q0 7 -4.5 11.5t-10.5 4.5h-288q-21 0 -35 13.5t-14 33.5t14.5 34.5t34.5 14.5h63h149h123v-368q0 -7 5 -11.5t11.5 -4.5
t11 4.5t4.5 11.5v384q0 7 -4.5 11.5t-10.5 4.5zM81 320h271l1 -320h-64h-21h-44h-129h-14q-20 0 -34.5 14.5t-14.5 34.5v24v40v175v46v2q21 -16 49 -16z" />
    <glyph glyph-name="uniE023" unicode="&#xe023;" 
d="M510 390q-3 10 -11 16.5t-19 6.5h-32v-32v-18q0 -20 -14 -34t-34 -14q-13 0 -24 6.5t-17.5 17.5t-6.5 24v18v32h-192v-32v-18q0 -20 -14 -34t-34 -14t-34 14t-14 34v18v32h-32q-23 0 -30 -23h-2v-9v-100v-281q0 -13 9.5 -22.5t22.5 -9.5h448q13 0 22.5 9.5t9.5 22.5v281
v100v9h-2zM480 0h-448v256h448v-256zM111.5 347q6.5 0 11.5 4.5t5 11.5v101q0 7 -5 11.5t-11.5 4.5t-11 -4.5t-4.5 -11.5v-101q0 -7 4.5 -11.5t11 -4.5zM400 347q7 0 11.5 4.5t4.5 11.5v101q0 7 -4.5 11.5t-11.5 4.5t-11.5 -4.5t-4.5 -11.5v-101q0 -7 4.5 -11.5t11.5 -4.5z
" />
    <glyph glyph-name="uniE024" unicode="&#xe024;" 
d="M480 480h-448q-13 0 -22.5 -9.5t-9.5 -22.5v-448q0 -13 9.5 -22.5t22.5 -9.5h448q13 0 22.5 9.5t9.5 22.5v448q0 13 -9.5 22.5t-22.5 9.5zM96 192v-64h-64v64h64zM32 256v64h64v-64h-64zM128 160h256v-160h-256v160zM384 192h-256v256h256v-256zM416 192h64v-64h-64v64z
M416 256v64h64v-64h-64zM416 384v64h64v-64h-64zM96 384h-64v64h64v-64zM32 64h64v-64h-64v64zM416 64h64v-64h-64v64z" />
    <glyph glyph-name="uniE025" unicode="&#xe025;" 
d="M511 418q0 8 -4.5 15t-11.5 11t-15 4h-448q-12 0 -21 -9t-10 -21h-1v-3v-63v-227v-29v-96q0 -13 9.5 -22.5t22.5 -9.5h448q13 0 22.5 9.5t9.5 22.5v352v63v3h-1zM192 256v96h128v-96h-128zM320 224v-99h-128v99h128zM160 352v-96h-128v96h128zM32 224h128v-99h-128v99z
M32 0v96h128v-96h-128zM192 0v96h128v-96h-128zM480 0h-128v96h128v-96zM480 125h-128v99h128v-99zM480 256h-128v96h128v-96z" />
    <glyph glyph-name="uniE026" unicode="&#xe026;" 
d="M416 480h-384q-13 0 -22.5 -9.5t-9.5 -22.5v-448q0 -13 9.5 -22.5t22.5 -9.5h384q13 0 22.5 9.5t9.5 22.5v448q0 13 -9.5 22.5t-22.5 9.5zM32 448h64v-448h-64v448zM416 0h-288v448h288v-448zM222 308q0 -5 1 -10.5t3.5 -10.5t6 -9t7.5 -7.5t9 -6t10.5 -3.5t10.5 -1
q31 0 44 28q4 10 5 20q0 31 -29 44q-10 4 -20 5q-31 0 -44 -29q-4 -10 -4 -20zM271 240q-33 0 -56 -31t-23 -75q0 -31 50 -41q53 -11 89 11q19 13 19 30q0 44 -23 75t-56 31zM480 448h32v-96h-32v96zM480 320h32v-96h-32v96zM480 192h32v-96h-32v96z" />
    <glyph glyph-name="uniE027" unicode="&#xe027;" 
d="M480 160v64q0 104 -67 164t-157 60q-88 0 -156 -60.5t-68 -163.5v-64q-13 0 -22.5 -9.5t-9.5 -22.5v-64q0 -13 9.5 -22.5t22.5 -9.5q0 -13 9.5 -22.5t22.5 -9.5t22.5 9.5t9.5 22.5v128q0 13 -9.5 22.5t-22.5 9.5v32q0 89 57.5 140.5t134.5 51.5t134.5 -50t57.5 -142v-32
q-13 0 -22.5 -9.5t-9.5 -22.5v-128q0 -13 9.5 -22.5t22.5 -9.5t22.5 9.5t9.5 22.5q13 0 22.5 9.5t9.5 22.5v64q0 13 -9.5 22.5t-22.5 9.5z" />
    <glyph glyph-name="uniE028" unicode="&#xe028;" 
d="M256 480q-50 0 -97 -19t-84 -56q-75 -75 -75 -181t75 -181t181 -75t181 75t75 181t-75 181q-15 15 -32 27t-34.5 21t-36.5 15t-38.5 9t-39.5 3zM165.5 133.5q-37.5 37.5 -37.5 90.5q0 13 2.5 25.5t7 23.5t11.5 21.5t17 19.5q37 38 90 38t90.5 -37.5t37.5 -90.5
t-37.5 -90.5t-90.5 -37.5t-90.5 37.5zM355 425l-49 -50q-27 9 -50 9q-21 0 -45 -7l-50 50q45 21 95 21h10.5t10.5 -0.5t10 -1.5l10 -2l10 -2t10 -2.5l10 -3t9.5 -3.5l9 -4t9.5 -4zM53 319l50 -50q-14 -48 2 -95l-50 -49q-11 23 -17 48t-6 51q0 50 21 95zM98 66zM165 20
l50 50q23 -6 41 -6q11 0 22 2t23 5l50 -50q-45 -21 -95 -21q-48 0 -91 20zM459 129l-50 50q12 43 1 86l50 50q20 -44 19.5 -93t-20.5 -93z" />
    <glyph glyph-name="uniE029" unicode="&#xe029;" 
d="M256 -32q61 0 114 26.5t89 73.5l-203 156v256q-106 0 -181 -75t-75 -181t75 -181t181 -75zM224 446v-222q0 -16 12 -25l176 -136q-65 -63 -156 -63q-93 0 -158.5 65.5t-65.5 158.5q0 55 25.5 103.5t69 79.5t97.5 39zM300 476v-229l183 -141q29 56 29 118q0 94 -60.5 165
t-151.5 87z" />
    <glyph glyph-name="uniE02A" unicode="&#xe02a;" 
d="M479.5 480q-13.5 0 -23 -9.5t-9.5 -22.5v-76q-3 3 -8 10q-18 23 -30 35t-35 29.5t-53 25.5t-68 8q-69 0 -127 -34t-92 -92t-34 -127q0 -104 74 -178t179 -74q82 0 148 48t92 126q4 13 -2 25t-19 16.5t-25.5 -2t-16.5 -19.5q-19 -57 -68 -92.5t-109 -35.5
q-78 0 -132.5 54.5t-54.5 132t54.5 132t132.5 54.5q26 0 48 -7.5t40 -22t31 -29t27 -34.5h-82q-13 0 -22.5 -9.5t-9.5 -23t9.5 -23t22.5 -9.5h163q13 0 22.5 9.5t9.5 22.5v160q0 13 -9.5 22.5t-23 9.5z" />
    <glyph glyph-name="uniE02B" unicode="&#xe02b;" 
d="M153 415q14 14 34 14t34 -14l171 -172q15 54 -24 93l-113 113q-28 28 -68 28t-68 -28l-25 -25q-29 -29 -29 -68.5t29 -67.5l113 -113q38 -39 92 -25l-172 172q-14 14 -14 34t14 34zM257 -1q28 -28 68 -28t68 28l25 25q29 29 29 68.5t-29 67.5l-113 113q-38 39 -92 25
l172 -172q9 -9 12 -21.5t0 -24.5t-12 -22l-26 -25q-14 -14 -34 -14t-34 14l-171 172q-15 -54 24 -93z" />
    <glyph glyph-name="uniE02C" unicode="&#xe02c;" 
d="M121 228q33 -33 78 -20l-152 151q-3 4 -5 9.5t-2 11.5q0 25 17 42q11 11 30.5 16t33.5 -5l151 -151q1 5 2 10.5t1 11.5q0 33 -23 55l-102 103q-24 22 -61.5 17.5t-60.5 -28.5q-28 -29 -29 -71q0 -15 5 -28t14 -22zM391 220q-33 33 -78 20l152 -151q7 -8 7 -21
q0 -25 -17 -42q-11 -11 -30.5 -16t-33.5 5l-151 151q-3 -11 -3 -22q0 -33 23 -55l102 -103q11 -11 28 -15.5t33.5 -2t33 10t27.5 18.5q13 13 21 32t8 39q0 31 -19 50zM146.5 333.5q-6.5 -6.5 -6.5 -15.5t7 -15l188 -188q6 -7 15 -7t15.5 6.5t6.5 15.5t-7 15l-188 188
q-6 7 -15 7t-15.5 -6.5z" />
    <glyph glyph-name="uniE02D" unicode="&#xe02d;" 
d="M432 115l3 -3q3 0 3 3t-3 3q-1 0 -2 -1t-1 -2zM368 49q2 -5 6 -6q4 1 6 6q0 5 -6 5q-5 -1 -6 -5zM281 14q0 -8 9 -8q7 1 9 8q0 9 -9 9q-7 -2 -9 -9zM188 19q0 -5 3.5 -8.5t8.5 -3.5q10 2 11 12q0 5 -3.5 8.5t-7.5 3.5q-11 -2 -12 -12zM105 61q2 -13 15 -14q13 2 14 14
q0 3 -1 6t-3 5t-4.5 3t-5.5 1q-6 0 -10.5 -4.5t-4.5 -10.5zM48 134q0 -15 14 -17q2 -1 3 -1q15 0 18 14v4q0 14 -14 17h-4q-7 0 -12 -5t-5 -12zM27 222q0 -16 15 -19q3 -1 5 -1q3 0 6 1t5.5 3t4.5 4.5t3 5.5t1 6q0 16 -15 20q-3 0 -5 1q-9 0 -14.5 -6t-5.5 -15zM44 310
q0 -17 17 -22q4 -1 6 -1q18 0 23 17q1 4 1 6q0 18 -17 23q-4 0 -7 1q-17 0 -22 -17q-1 -4 -1 -7zM97 381q0 -20 20 -25q4 -1 6 -1q11 0 19 8t8 18q0 21 -20 26h-7q-10 0 -18 -7.5t-8 -18.5zM175 422q0 -22 21 -28q5 -1 8 -1q12 0 20.5 8.5t8.5 20.5q0 22 -21 28q-4 1 -8 1
q-6 0 -11 -2.5t-9 -6t-6.5 -9t-2.5 -11.5zM263 425q0 -14 9.5 -23t22.5 -9q23 0 30 22l2 10q0 23 -23 30q-5 1 -9 1q-24 0 -31 -22q-1 -5 -1 -9zM343 388q0 -25 24 -33q6 -1 11 -1q25 0 33 23q1 6 2 11q0 10 -5 18t-13 12.5t-17 4.5q-15 0 -25 -10t-10 -25zM400 321
q0 -27 25 -36q7 -2 13 -2q10 0 18.5 5t13.5 14t5 19q0 6 -1.5 11.5t-5 10.5t-8.5 8.5t-10.5 5t-11.5 1.5q-16 0 -27 -11t-11 -26zM423 233q0 -28 26 -38q7 -2 14 -3q28 0 38 27q3 7 3 14q0 8 -3.5 15.5t-9 13t-13 9t-15.5 3.5q-6 0 -12.5 -2.5t-11.5 -6t-8.5 -8.5t-5.5 -11
t-2 -13z" />
    <glyph glyph-name="uniE02E" unicode="&#xe02e;" 
d="M256 480q-106 0 -181 -75t-75 -181t75 -181t181 -75t181 75t75 181t-75 181t-181 75zM256 416q79 0 135.5 -56.5t56.5 -135.5q0 -15 -2.5 -30t-7 -29t-11 -27t-15.5 -25l-267 267q50 36 111 36zM64 224q0 61 36 111l267 -267q-50 -36 -111 -36q-79 0 -135.5 56.5
t-56.5 135.5z" />
    <glyph glyph-name="uniE02F" unicode="&#xe02f;" 
d="M480 416h-448q-13 0 -22.5 -9.5t-9.5 -22.5v-64h512v64q0 13 -9.5 22.5t-22.5 9.5zM480 352h-448v32h448v-32zM32 0q0 -13 9.5 -22.5t22.5 -9.5h384q13 0 22.5 9.5t9.5 22.5v288h-448v-288zM64 256h384v-256h-384v256zM336 224h-160q-7 0 -11.5 -4.5t-4.5 -11.5
t4.5 -11.5t11.5 -4.5h160q7 0 11.5 4.5t4.5 11.5t-4.5 11.5t-11.5 4.5z" />
    <glyph glyph-name="uniE030" unicode="&#xe030;" 
d="M512 259q-1 39 -20 73t-52.5 54.5t-71.5 20.5q-68 0 -112 -59q-13 18 -30.5 31t-38.5 20.5t-43 7.5q-58 0 -100.5 -44.5t-43.5 -103.5v-1.5v-0.5v-1q0 -1 0.5 -3t0.5 -3q5 -144 166 -240q47 -29 87 -42q5 2 14 5t35 15.5t50 27.5t53.5 39t51 51.5t37 65t16.5 78.5
q0 1 0.5 3t0.5 3v1v1v1zM479 251q-1 -43 -21.5 -83t-46.5 -66t-60.5 -49t-56 -33t-40.5 -18q-19 8 -40 18t-55 33t-59.5 49t-45.5 66t-21 84q0 2 -1 4v1.5v0.5q1 48 34 82.5t78 34.5q52 0 86 -46q10 -13 26 -13q5 0 9.5 1.5t9 4.5t7.5 7q16 22 38.5 34t47.5 12
q22 0 42.5 -9.5t35.5 -25t24 -37.5t10 -45v-2t-0.5 -2.5t-0.5 -2.5z" />
    <glyph glyph-name="uniE031" unicode="&#xe031;" 
d="M510 273q-3 9 -10 14.5t-16 7.5l-138 20l-61 125q-4 8 -12 13t-17 5q-20 0 -29 -18l-61 -125l-138 -20q-9 -2 -16 -7.5t-10 -14.5q-6 -19 8 -33l100 -97l-24 -138q-3 -19 13 -31q8 -6 19 -6q8 0 15 4l123 65l123 -65q7 -4 15 -4q11 1 19 6q16 12 13 31l-24 138l100 97
q14 14 8 33zM368 154l26 -154l-138 73l-138 -73l26 154l-112 109l155 22l69 141l69 -141l155 -22z" />
    <glyph glyph-name="uniE032" unicode="&#xe032;" 
d="M510 273q-6 19 -26 22l-138 20l-61 125q-4 8 -12 13t-17 5q-20 0 -29 -18l-61 -125l-138 -20q-9 -2 -16 -7.5t-10 -14.5q-6 -19 8 -33l100 -97l-24 -138q-3 -19 13 -31q8 -6 19 -6q8 0 15 4l123 65l123 -65q7 -4 15 -4q11 1 19 6q16 12 13 31l-24 138l100 97q14 14 8 33z
M368 154l26 -154l-138 73v353l69 -141l155 -22z" />
    <glyph glyph-name="uniE033" unicode="&#xe033;" 
d="M332 292l-78 159l-79 -159l-175 -26l127 -123l-30 -175l157 82l156 -82l-29 175l126 123z" />
    <glyph glyph-name="uniE034" unicode="&#xe034;" 
d="M256 50v401l-78 -159l-176 -26l127 -123l-30 -175z" />
    <glyph glyph-name="uniE035" unicode="&#xe035;" 
d="M14 49q-14 -14 -14 -33.5t14 -33.5t33.5 -14t33.5 14l158 157l-68 68zM407 342l69 35l36 69l-34 34l-69 -36l-35 -69l-84 -83l34 -34zM422 159l-2.5 0.5t-3.5 0.5q-16 0 -33 -6l-197 197q3 8 4.5 16.5t1.5 16.5v4l-1 2q-1 25 -14 45.5t-34.5 32.5t-46.5 12q-21 0 -41 -10
l64 -63q4 -5 7 -12q2 -6 2 -12t-2.5 -11.5t-6.5 -10.5q-10 -9 -23 -9q-5 0 -11 2l-4 2t-4 2.5t-4 2.5l-63 64q-10 -20 -10 -41q0 -13 3 -24.5t9 -22t14 -19t18 -15t21.5 -10.5t24.5 -4l2.5 -0.5t3.5 -0.5q16 0 33 6l197 -197q-6 -17 -6 -33q0 -1 0.5 -3.5l0.5 -2.5
q2 -38 29.5 -64t65.5 -26q5 0 10.5 0.5t11 2t10 3t9.5 4.5l-64 63q-1 2 -2.5 4t-2.5 4l-2 4q-7 19 7 34q10 9 23 9l11 -2q3 -1 6 -3l6 -4l63 -64q10 20 10 41q0 38 -26 65.5t-64 29.5z" />
    <glyph glyph-name="uniE036" unicode="&#xe036;" 
d="M416 96l11 -2q3 -1 6 -3l6 -4l63 -64q10 20 10 41q0 38 -26 65.5t-64 29.5l-2.5 0.5t-3.5 0.5q-16 0 -33 -6l-197 197q3 8 4.5 16.5t1.5 16.5v4l-1 2q-1 25 -14 45.5t-34.5 32.5t-46.5 12q-21 0 -41 -10l64 -63q4 -5 7 -12q2 -6 2 -12t-2.5 -11.5t-6.5 -10.5
q-10 -9 -23 -9q-5 0 -11 2l-4 2t-4 2.5t-4 2.5l-63 64q-10 -20 -10 -41q0 -13 3 -24.5t9 -22t14 -19t18 -15t21.5 -10.5t24.5 -4l2.5 -0.5t3.5 -0.5q16 0 33 6l197 -197q-6 -17 -6 -33q0 -1 0.5 -3.5l0.5 -2.5q2 -38 29.5 -64t65.5 -26q5 0 10.5 0.5t11 2t10 3t9.5 4.5
l-64 63q-1 2 -2.5 4t-2.5 4l-2 4q-7 19 7 34q10 9 23 9z" />
    <glyph glyph-name="uniE037" unicode="&#xe037;" 
d="M440 277q-6 21 -16 40l32 67q-18 22 -40 40l-67 -32q-9 5 -19 9t-21 7l-25 70q-15 2 -28 2h-4.5h-5t-5 -0.5t-4.5 -0.5h-4.5t-4.5 -1l-25 -70q-21 -6 -40 -16l-67 32q-22 -18 -40 -40l32 -67q-5 -9 -9 -19t-7 -21l-70 -25q-2 -15 -2 -28t2 -28l70 -25q2 -7 4.5 -14
t5.5 -13.5t6 -12.5l-32 -67q18 -22 40 -40l67 32q5 -3 9.5 -5t9.5 -4t10.5 -4t10.5 -3l25 -70q15 -2 28 -2h3.5h3.5h3.5t3.5 0.5t3.5 0.5h3.5h3.5t3.5 1l25 70q5 1 10.5 3t10.5 4t9.5 4t9.5 5l67 -32q22 18 40 40l-32 67q10 19 16 40l70 25q2 15 2 28v9.5t-0.5 9t-1.5 9.5z
M256 96q-53 0 -90.5 37.5t-37.5 90.5t37.5 90.5t90.5 37.5t90.5 -37.5t37.5 -90.5t-37.5 -90.5t-90.5 -37.5zM192 224q0 -39 35 -57q14 -7 29 -7q39 0 57 35q7 14 7 29q0 39 -35 57q-14 7 -29 7q-39 0 -57 -35q-7 -14 -7 -29z" />
    <glyph glyph-name="uniE038" unicode="&#xe038;" 
d="M16 205l55 2q10 -13 23 -23l-4 -56q5 -3 9.5 -5t9.5 -4q9 -4 20 -8l38 41q16 -2 32 0l37 -42q20 5 39 16l-2 55q4 3 8 7t8 7.5t7 8.5l56 -4q5 10 9 19t8 20l-41 38q1 8 1 16t-1 16l42 37q-5 20 -16 39l-55 -2q-10 13 -23 23l4 56q-10 5 -19 9t-20 7l-38 -40q-16 2 -32 0
l-37 42q-20 -6 -39 -16l2 -55q-13 -10 -23 -23l-56 4q-2 -5 -4.5 -9.5t-4.5 -9.5l-4 -10t-3 -10l40 -38q-2 -16 0 -32l-42 -37q2 -7 4.5 -13.5l5 -13t6.5 -12.5zM223.5 383q36.5 -16 51 -53t-1.5 -73.5t-52.5 -51t-73 1.5t-51.5 52.5t1 73t53 51.5t73.5 -1zM137 295
q0 -32 29 -44q10 -4 19 -4q32 0 44 29q4 10 4 19q0 32 -29 44q-10 4 -19 4q-32 0 -44 -29q-4 -10 -4 -19zM481 103l-14 5l6 13l14 29q-7 10 -17 17l-29 -13l-13 -7l-5 14l-11 30q-6 1 -12 1t-12 -1l-11 -30l-5 -14l-13 6l-29 14q-10 -7 -17 -17l13 -29l7 -13l-14 -5l-30 -11
q-1 -6 -1 -12t1 -12l30 -11l14 -5l-6 -13l-14 -29q7 -10 17 -17l29 14l13 6l5 -14l11 -30q3 -1 6 -1h6q6 0 12 1l11 30l5 14l13 -6l29 -14q10 7 17 17l-13 29l-7 13l14 5l30 11q1 6 1 12t-1 12zM400 56q-10 0 -17 7t-7 17t7 17t17 7t17 -7t7 -17t-7 -17t-17 -7z" />
    <glyph glyph-name="uniE039" unicode="&#xe039;" 
d="M272 448q-99 0 -169.5 -70.5t-70.5 -169.5t70.5 -169.5t169.5 -70.5t169.5 70.5t70.5 169.5t-70.5 169.5t-169.5 70.5zM379.5 228.5q-11.5 -11.5 -22.5 0.5l-69 68v-249q0 -7 -4.5 -11.5t-11.5 -4.5t-11.5 4.5t-4.5 11.5v249l-69 -68q-11 -12 -22.5 -0.5t0.5 22.5l96 96
q2 3 5 4q6 2 12 0l5 -4l96 -96q12 -11 0.5 -22.5z" />
    <glyph glyph-name="uniE03A" unicode="&#xe03a;" 
d="M272 448q-99 0 -169.5 -70.5t-70.5 -169.5t70.5 -169.5t169.5 -70.5t169.5 70.5t70.5 169.5t-70.5 169.5t-169.5 70.5zM379 165l-96 -96l-5 -4q-3 -1 -6 -1t-6 1q-2 1 -3 2l-2 2l-96 96q-12 11 0 22q2 3 5 4t6 1t6 -1t5 -4l69 -68v249q0 7 4.5 11.5t11.5 4.5t11.5 -4.5
t4.5 -11.5v-249l69 68q11 12 22 0q5 -4 5 -11t-5 -11z" />
    <glyph glyph-name="uniE03B" unicode="&#xe03b;" 
d="M272 448q-99 0 -169.5 -70.5t-70.5 -169.5t70.5 -169.5t169.5 -70.5t169.5 70.5t70.5 169.5t-70.5 169.5t-169.5 70.5zM448 208q0 -7 -4.5 -11.5t-11.5 -4.5h-249l68 -69q12 -11 0 -22q-4 -5 -11 -5t-11 5l-96 96l-2 2t-2 3q-1 3 -1 6v0q0 4 1 6q1 3 4 5l96 96
q11 12 22.5 0.5t-0.5 -22.5l-68 -69h249q7 0 11.5 -4.5t4.5 -11.5z" />
    <glyph glyph-name="uniE03C" unicode="&#xe03c;" 
d="M272 448q-99 0 -169.5 -70.5t-70.5 -169.5t70.5 -169.5t169.5 -70.5t169.5 70.5t70.5 169.5t-70.5 169.5t-169.5 70.5zM416 208q0 -3 -1 -6q-1 -2 -2 -3l-2 -2l-96 -96q-11 -12 -22.5 -0.5t0.5 22.5l68 69h-249q-7 0 -11.5 4.5t-4.5 11.5t4.5 11.5t11.5 4.5h249l-68 69
q-12 11 -0.5 22.5t22.5 -0.5l96 -96q3 -2 4 -5t1 -6z" />
    <glyph glyph-name="uniE03D" unicode="&#xe03d;" 
d="M102.5 377.5q-70.5 -70.5 -70.5 -169.5t70.5 -169.5t169.5 -70.5t169.5 70.5t70.5 169.5t-70.5 169.5t-169.5 70.5t-169.5 -70.5zM391 89q-11 -11 -23 0l-176 176v-97q0 -6 -4.5 -11t-11.5 -5t-11.5 5t-4.5 11v136q0 3 1 6t4 5v0l5 4q3 1 6 1h136q6 0 11 -4.5t5 -11.5
t-5 -11.5t-11 -4.5h-97l176 -176q11 -12 0 -23z" />
    <glyph glyph-name="uniE03E" unicode="&#xe03e;" 
d="M102.5 377.5q-70.5 -70.5 -70.5 -169.5t70.5 -169.5t169.5 -70.5t169.5 70.5t70.5 169.5t-70.5 169.5t-169.5 70.5t-169.5 -70.5zM384 304v-136q0 -6 -4.5 -11t-11.5 -5t-11.5 5t-4.5 11v97l-176 -176q-3 -3 -7.5 -4t-8.5 0t-7 4q-11 11 0 23l176 176h-97q-6 0 -11 4.5
t-5 11.5t5 11.5t11 4.5h136q2 0 3.5 -0.5t2.5 -0.5q6 -3 9 -9q1 -3 1 -6z" />
    <glyph glyph-name="uniE03F" unicode="&#xe03f;" 
d="M102.5 377.5q-70.5 -70.5 -70.5 -169.5t70.5 -169.5t169.5 -70.5t169.5 70.5t70.5 169.5t-70.5 169.5t-169.5 70.5t-169.5 -70.5zM384 112q0 -3 -1 -6q-3 -6 -9 -9q-3 -1 -6 -1h-136q-6 0 -11 4.5t-5 11.5t5 11.5t11 4.5h97l-176 176q-11 12 0 23q2 2 5 3.5t6 1.5t6 -1.5
t6 -3.5l176 -176v97q0 6 4.5 11t11.5 5t11.5 -5t4.5 -11v-136z" />
    <glyph glyph-name="uniE040" unicode="&#xe040;" 
d="M102.5 377.5q-70.5 -70.5 -70.5 -169.5t70.5 -169.5t169.5 -70.5t169.5 70.5t70.5 169.5t-70.5 169.5t-169.5 70.5t-169.5 -70.5zM391 304l-176 -176h97q6 0 11 -4.5t5 -11.5t-5 -11.5t-11 -4.5h-136q-4 0 -6 1q-3 1 -5 4v0q-3 2 -4 5t-1 6v136q0 6 4.5 11t11.5 5
t11.5 -5t4.5 -11v-97l176 176q12 11 23 0t0 -23z" />
    <glyph glyph-name="uniE041" unicode="&#xe041;" 
d="M480 480h-448q-13 0 -22.5 -9.5t-9.5 -22.5v-448q0 -13 9.5 -22.5t22.5 -9.5h448q13 0 22.5 9.5t9.5 22.5v448q0 13 -9.5 22.5t-22.5 9.5zM224 176v-128q0 -7 -4.5 -11.5t-11.5 -4.5t-11.5 4.5t-4.5 11.5v89l-101 -100q-11 -12 -22 0q-5 4 -5 11t5 11l100 101h-89
q-7 0 -11.5 4.5t-4.5 11.5t4.5 11.5t11.5 4.5h128q4 0 6 -1q3 -1 5.5 -3.5t3.5 -5.5t1 -6zM432 288q7 0 11.5 -4.5t4.5 -11.5t-4.5 -11.5t-11.5 -4.5h-128q-2 0 -3.5 0.5t-2.5 0.5q-3 2 -5 4v0q-3 2 -4 5t-1 6v128q0 7 4.5 11.5t11.5 4.5t11.5 -4.5t4.5 -11.5v-89l101 100
q11 12 22.5 0.5t-0.5 -22.5l-100 -101h89z" />
    <glyph glyph-name="uniE042" unicode="&#xe042;" 
d="M480 480h-448q-13 0 -22.5 -9.5t-9.5 -22.5v-448q0 -13 9.5 -22.5t22.5 -9.5h448q13 0 22.5 9.5t9.5 22.5v448q0 13 -9.5 22.5t-22.5 9.5zM208 64q7 0 11.5 -4.5t4.5 -11.5t-4.5 -11.5t-11.5 -4.5h-128q-3 0 -6 1t-5 4v0q-3 2 -4 5l-1 6v128q0 7 4.5 11.5t11.5 4.5
t11.5 -4.5t4.5 -11.5v-89l101 100q11 12 22 0q3 -2 4 -5t1 -6t-1 -6t-4 -5l-100 -101h89zM448 400v-128q0 -7 -4.5 -11.5t-11.5 -4.5t-11.5 4.5t-4.5 11.5v89l-101 -100q-11 -12 -22.5 -0.5t0.5 22.5l100 101h-89q-7 0 -11.5 4.5t-4.5 11.5t4.5 11.5t11.5 4.5h128
q2 0 3.5 -0.5t2.5 -0.5q6 -3 9 -9q1 -3 1 -6z" />
    <glyph glyph-name="uniE043" unicode="&#xe043;" 
d="M272 -32q99 0 169.5 70.5t70.5 169.5t-70.5 169.5t-169.5 70.5t-169.5 -70.5t-70.5 -169.5t70.5 -169.5t169.5 -70.5zM157 179l104 104q4 5 11 5t11 -5l104 -104q2 -2 3.5 -5t1.5 -6t-1.5 -6t-3.5 -5q-11 -12 -22 0l-93 92l-93 -92q-2 -2 -5 -3.5t-6 -1.5t-6 1.5t-5 3.5
q-3 3 -4 7t0 8t4 7z" />
    <glyph glyph-name="uniE044" unicode="&#xe044;" 
d="M272 448q-99 0 -169.5 -70.5t-70.5 -169.5t70.5 -169.5t169.5 -70.5t169.5 70.5t70.5 169.5t-70.5 169.5t-169.5 70.5zM387 237l-104 -104q-4 -5 -11 -5t-11 5l-104 104q-11 11 0 22.5t22 -0.5l93 -92l93 92q11 12 22 0q5 -4 5 -11t-5 -11z" />
    <glyph glyph-name="uniE045" unicode="&#xe045;" 
d="M272 448q-99 0 -169.5 -70.5t-70.5 -169.5t70.5 -169.5t169.5 -70.5t169.5 70.5t70.5 169.5t-70.5 169.5t-169.5 70.5zM323 115q12 -11 0.5 -22t-22.5 0l-104 104q-5 4 -5 11q1 7 5 11l104 104q11 11 22.5 0t-0.5 -22l-92 -93z" />
    <glyph glyph-name="uniE046" unicode="&#xe046;" 
d="M272 448q-99 0 -169.5 -70.5t-70.5 -169.5t70.5 -169.5t169.5 -70.5t169.5 70.5t70.5 169.5t-70.5 169.5t-169.5 70.5zM347 197l-104 -104q-1 -2 -3 -3t-4 -1.5t-4 -0.5t-4 0.5t-4 1.5t-3 3q-12 11 0 22l92 93l-92 93q-12 11 0 22q2 2 5 3.5t6 1.5t6 -1.5t5 -3.5
l104 -104q5 -4 5 -11t-5 -11z" />
    <glyph glyph-name="uniE047" unicode="&#xe047;" 
d="M272 448q-99 0 -169.5 -70.5t-70.5 -169.5t70.5 -169.5t169.5 -70.5t169.5 70.5t70.5 169.5t-70.5 169.5t-169.5 70.5zM391 99q-4 -5 -11 -5t-12 5l-95 85l-96 -85q-12 -11 -23 0t0 23l107 95q1 1 2.5 2t3 1.5t3 0.5h3.5q6 0 11 -4l107 -95q3 -3 4.5 -7.5t0 -8.5t-4.5 -7
zM391 214q-3 -3 -7 -4t-8 0t-8 4l-95 85l-96 -85q-12 -12 -23 -0.5t0 23.5l107 94q5 5 12 5q3 0 6 -1t5 -4l107 -94q12 -12 0 -23z" />
    <glyph glyph-name="uniE048" unicode="&#xe048;" 
d="M273 446q-99 0 -169 -70t-70 -169t70 -169t169 -70t169 70t70 169q0 65 -32 120t-87 87t-120 32zM390 179l-107 -94q-5 -5 -11.5 -5t-11.5 5l-107 94q-12 12 -0.5 23.5t23.5 -0.5l95 -85l96 85q12 12 23 0.5t0 -23.5zM390 294l-107 -95q-5 -4 -12 -4q-2 0 -4 0.5t-4 1.5
t-3 2l-107 95q-12 12 -0.5 23t23.5 0l95 -85l96 85q12 11 23 0t0 -23z" />
    <glyph glyph-name="uniE049" unicode="&#xe049;" 
d="M273 446q-48 0 -92.5 -19t-76.5 -51t-51 -76.5t-19 -92.5q0 -99 70 -169t169 -70t169 70t70 169q0 65 -32 120t-87 87t-120 32zM266 90q-11 -11 -23 0l-94 107q-3 2 -4 5t-1 7q1 7 5 11l94 107q12 12 23 0q3 -3 4 -7t0 -8t-4 -8l-85 -95l85 -96q3 -3 4 -7.5t0 -8.5t-4 -7
zM381 113q11 -12 0 -23t-23 0l-95 107q-2 2 -3 5t-1 7q1 7 4 11l95 107q12 12 23 0q5 -4 5 -11t-5 -12l-85 -95z" />
    <glyph glyph-name="uniE04A" unicode="&#xe04a;" 
d="M273 446q-99 0 -169 -70t-70 -169t70 -169t169 -70t169 70t70 169t-70 169t-169 70zM163 89q-5 4 -5 11t5 12l85 95l-85 96q-11 12 0 23t23 0l95 -107q4 -5 4 -12q0 -6 -4 -11l-95 -107q-12 -12 -23 0zM395 196l-94 -107q-5 -5 -11.5 -5t-11.5 5q-12 11 0 23l85 95
l-85 96q-12 12 -0.5 23t23.5 0l94 -107q5 -5 5 -12q-1 -7 -5 -11z" />
    <glyph glyph-name="uniE04B" unicode="&#xe04b;" 
d="M272 448q-99 0 -169.5 -70.5t-70.5 -169.5t70.5 -169.5t169.5 -70.5t169.5 70.5t70.5 169.5t-70.5 169.5t-169.5 70.5zM380 166q-5 -6 -11 -6h-195q-2 0 -4 0.5t-3.5 2l-2.5 2.5v1q-10 12 0 25l98 123v1q4 5 10 5t10 -5l98 -124q9 -13 0 -25z" />
    <glyph glyph-name="uniE04C" unicode="&#xe04c;" 
d="M272 448q-99 0 -169.5 -70.5t-70.5 -169.5t70.5 -169.5t169.5 -70.5t169.5 70.5t70.5 169.5t-70.5 169.5t-169.5 70.5zM380 225l-98 -123q0 -1 -1 -1q-4 -5 -9.5 -5t-9.5 5l-98 124q-10 13 0 25q4 6 10 6h195q3 0 5.5 -1.5t4.5 -3.5l1 -1q9 -12 0 -25z" />
    <glyph glyph-name="uniE04D" unicode="&#xe04d;" 
d="M272 448q-99 0 -169.5 -70.5t-70.5 -169.5t70.5 -169.5t169.5 -70.5t169.5 70.5t70.5 169.5t-70.5 169.5t-169.5 70.5zM320 111q0 -6 -5 -10l-1 -1q-12 -9 -25 0l-123 98h-1q-2 2 -3 4t-1.5 4t0 4.5t1.5 4.5t3 3l124 98q4 3 8.5 4t9 0t7.5 -4q6 -4 6 -10v-195z" />
    <glyph glyph-name="uniE04E" unicode="&#xe04e;" 
d="M272 448q-99 0 -169.5 -70.5t-70.5 -169.5t70.5 -169.5t169.5 -70.5t169.5 70.5t70.5 169.5t-70.5 169.5t-169.5 70.5zM379 198l-124 -98q-13 -9 -25 0q-3 2 -4.5 5t-1.5 6v195q0 2 0.5 4t2 3.5l2.5 2.5h1q12 10 25 0l123 -98h1q5 -4 5 -10t-5 -10z" />
    <glyph glyph-name="uniE04F" unicode="&#xe04f;" 
d="M272 448q-99 0 -169.5 -70.5t-70.5 -169.5t70.5 -169.5t169.5 -70.5t169.5 70.5t70.5 169.5t-70.5 169.5t-169.5 70.5zM400 192h-256q-7 0 -11.5 4.5t-4.5 11.5t4.5 11.5t11.5 4.5h256q7 0 11.5 -4.5t4.5 -11.5t-4.5 -11.5t-11.5 -4.5z" />
    <glyph glyph-name="uniE050" unicode="&#xe050;" 
d="M272 448q-99 0 -169.5 -70.5t-70.5 -169.5t70.5 -169.5t169.5 -70.5t169.5 70.5t70.5 169.5t-70.5 169.5t-169.5 70.5zM400 192h-112v-112q0 -7 -4.5 -11.5t-11.5 -4.5t-11.5 4.5t-4.5 11.5v112h-112q-7 0 -11.5 4.5t-4.5 11.5t4.5 11.5t11.5 4.5h112v112q0 7 4.5 11.5
t11.5 4.5t11.5 -4.5t4.5 -11.5v-112h112q7 0 11.5 -4.5t4.5 -11.5t-4.5 -11.5t-11.5 -4.5z" />
    <glyph glyph-name="uniE051" unicode="&#xe051;" 
d="M272 448q-99 0 -169.5 -70.5t-70.5 -169.5t70.5 -169.5t169.5 -70.5t169.5 70.5t70.5 169.5t-70.5 169.5t-169.5 70.5zM383 297l-89 -90l79 -88q11 -11 0 -22.5t-23 0.5l-79 88l-88 -88q-3 -3 -7 -4t-8 0t-7 4q-12 11 0 22l89 90l-79 88q-11 11 0 22q3 3 7 4t8.5 0
t7.5 -4l79 -88l88 88q11 12 22.5 0.5t-0.5 -22.5z" />
    <glyph glyph-name="uniE052" unicode="&#xe052;" 
d="M257 480q-106 0 -181 -75t-75 -181t75 -181t181 -75t181 75t75 181q0 70 -34 128.5t-93 93t-129 34.5zM376 295l-123 -188l-0.5 -1t-1.5 -2l-2 -2h-1l-1 -1q-3 -2 -7 -3h-2q-2 -1 -5 0h-4q-1 0 -2 0.5t-2 1.5l-1 0.5t-2 0.5l-1 1v1h-1l-72 66q-6 6 -6.5 15.5t5.5 16.5
q4 4 10 6t11.5 0.5t10.5 -5.5l51 -48l108 165q6 8 15 10t16.5 -3t9.5 -14t-3 -17z" />
    <glyph glyph-name="uniE053" unicode="&#xe053;" 
d="M304 480q-86 0 -147 -61t-61 -147q0 -73 46 -130l-135 -136q-7 -7 -7 -16t6.5 -15.5t15.5 -6.5t16 7l136 135q57 -46 130 -46q86 0 147 61t61 147t-61 147t-147 61zM400 256h-192q-7 0 -11.5 4.5t-4.5 11.5t4.5 11.5t11.5 4.5h192q7 0 11.5 -4.5t4.5 -11.5t-4.5 -11.5
t-11.5 -4.5z" />
    <glyph glyph-name="uniE054" unicode="&#xe054;" 
d="M304 480q-86 0 -147 -61t-61 -147q0 -73 46 -130l-135 -136q-7 -7 -7 -16t6.5 -15.5t15.5 -6.5t16 7l136 135q57 -46 130 -46q86 0 147 61t61 147t-61 147t-147 61zM400 256h-80v-80q0 -7 -4.5 -11.5t-11.5 -4.5t-11.5 4.5t-4.5 11.5v80h-80q-7 0 -11.5 4.5t-4.5 11.5
t4.5 11.5t11.5 4.5h80v80q0 7 4.5 11.5t11.5 4.5t11.5 -4.5t4.5 -11.5v-80h80q7 0 11.5 -4.5t4.5 -11.5t-4.5 -11.5t-11.5 -4.5z" />
    <glyph glyph-name="uniE055" unicode="&#xe055;" 
d="M256 480q-106 0 -181 -75t-75 -181t75 -181t181 -75t181 75t75 181t-75 181t-181 75zM352 160q0 -13 -9.5 -22.5t-22.5 -9.5h-128q-13 0 -22.5 9.5t-9.5 22.5v128q0 13 9.5 22.5t22.5 9.5h128q13 0 22.5 -9.5t9.5 -22.5v-128z" />
    <glyph glyph-name="uniE056" unicode="&#xe056;" 
d="M480 448h-416q-13 0 -22.5 -9.5t-9.5 -22.5v-416q0 -13 9.5 -22.5t22.5 -9.5h416q13 0 22.5 9.5t9.5 22.5v416q0 13 -9.5 22.5t-22.5 9.5zM400 96h-256q-7 0 -11.5 4.5t-4.5 11.5t4.5 11.5t11.5 4.5h256q7 0 11.5 -4.5t4.5 -11.5t-4.5 -11.5t-11.5 -4.5zM400 192h-256
q-7 0 -11.5 4.5t-4.5 11.5t4.5 11.5t11.5 4.5h256q7 0 11.5 -4.5t4.5 -11.5t-4.5 -11.5t-11.5 -4.5zM400 288h-256q-7 0 -11.5 4.5t-4.5 11.5t4.5 11.5t11.5 4.5h256q7 0 11.5 -4.5t4.5 -11.5t-4.5 -11.5t-11.5 -4.5z" />
    <glyph glyph-name="uniE057" unicode="&#xe057;" 
d="M272 448q-99 0 -169.5 -70.5t-70.5 -169.5t70.5 -169.5t169.5 -70.5t169.5 70.5t70.5 169.5t-70.5 169.5t-169.5 70.5zM400 96h-256q-7 0 -11.5 4.5t-4.5 11.5t4.5 11.5t11.5 4.5h256q7 0 11.5 -4.5t4.5 -11.5t-4.5 -11.5t-11.5 -4.5zM400 192h-256q-7 0 -11.5 4.5
t-4.5 11.5t4.5 11.5t11.5 4.5h256q7 0 11.5 -4.5t4.5 -11.5t-4.5 -11.5t-11.5 -4.5zM400 288h-256q-7 0 -11.5 4.5t-4.5 11.5t4.5 11.5t11.5 4.5h256q7 0 11.5 -4.5t4.5 -11.5t-4.5 -11.5t-11.5 -4.5z" />
    <glyph glyph-name="uniE058" unicode="&#xe058;" 
d="M64 -32h385q14 0 23 9.5t9 22.5v448q0 7 -2.5 12.5t-6.5 10t-10 7t-13 2.5h-385q-13 0 -22.5 -9.5t-9.5 -22.5v-448q0 -13 9.5 -22.5t22.5 -9.5zM240 384h129q7 0 11.5 -4.5t4.5 -11.5t-4.5 -11.5t-11.5 -4.5h-129q-7 0 -11.5 4.5t-4.5 11.5t4.5 11.5t11.5 4.5zM144 288
h225q7 0 11.5 -4.5t4.5 -11.5t-4.5 -11.5t-11.5 -4.5h-225q-7 0 -11.5 4.5t-4.5 11.5t4.5 11.5t11.5 4.5zM144 192h225q7 0 11.5 -4.5t4.5 -11.5t-4.5 -11.5t-11.5 -4.5h-225q-7 0 -11.5 4.5t-4.5 11.5t4.5 11.5t11.5 4.5zM144 96h225q7 0 11.5 -4.5t4.5 -11.5t-4.5 -11.5
t-11.5 -4.5h-225q-7 0 -11.5 4.5t-4.5 11.5t4.5 11.5t11.5 4.5z" />
    <glyph glyph-name="uniE059" unicode="&#xe059;" 
d="M64 32h32v-32q0 -13 9.5 -22.5t22.5 -9.5h320q13 0 22.5 9.5t9.5 22.5v384q0 13 -9.5 22.5t-22.5 9.5h-32v32q0 13 -9.5 22.5t-22.5 9.5h-320q-13 0 -22.5 -9.5t-9.5 -22.5v-384q0 -13 9.5 -22.5t22.5 -9.5zM448 384v-384h-320v32h256q13 0 22.5 9.5t9.5 22.5v320h32z
M336 416q7 0 11.5 -4.5t4.5 -11.5t-4.5 -11.5t-11.5 -4.5h-129q-7 0 -11.5 4.5t-4.5 11.5t4.5 11.5t11.5 4.5h129zM111 320h225q7 0 11.5 -4.5t4.5 -11.5t-4.5 -11.5t-11.5 -4.5h-225q-7 0 -11.5 4.5t-4.5 11.5t4.5 11.5t11.5 4.5zM111 224h225q7 0 11.5 -4.5t4.5 -11.5
t-4.5 -11.5t-11.5 -4.5h-225q-7 0 -11.5 4.5t-4.5 11.5t4.5 11.5t11.5 4.5zM111 128h225q7 0 11.5 -4.5t4.5 -11.5t-4.5 -11.5t-11.5 -4.5h-225q-5 0 -8.5 2t-5.5 6t-2 8q0 7 4.5 11.5t11.5 4.5z" />
    <glyph glyph-name="uniE05A" unicode="&#xe05a;" 
d="M480 480h-448q-13 0 -22.5 -9.5t-9.5 -22.5v-448q0 -13 9.5 -22.5t22.5 -9.5h448q13 0 22.5 9.5t9.5 22.5v448q0 13 -9.5 22.5t-22.5 9.5zM89 333q-12 12 -12 29t12 29t29 12t29 -12l42 -43l-57 -57zM330 93l-165 164l58 58l164 -165l29 -86z" />
    <glyph glyph-name="uniE05B" unicode="&#xe05b;" 
d="M480 384h-160q-13 0 -22.5 -9.5t-9.5 -22.5q-4 -29 -32 -32h-224q-13 0 -22.5 -9t-9.5 -22v-289q0 -13 9.5 -22.5t22.5 -9.5h448q13 0 22.5 9.5t9.5 22.5v256v33v63q0 13 -9.5 22.5t-22.5 9.5z" />
    <glyph glyph-name="uniE05C" unicode="&#xe05c;" 
d="M480 416h-160q-13 0 -22.5 -9.5t-9.5 -22.5q-4 -29 -32 -32h-224q-13 0 -22.5 -9t-9.5 -22v-33h512v33v63q0 13 -9.5 22.5t-22.5 9.5zM0 0q0 -13 9.5 -22.5t22.5 -9.5h448q13 0 22.5 9.5t9.5 22.5v256h-512v-256z" />
    <glyph glyph-name="uniE05D" unicode="&#xe05d;" 
d="M480 384h-128q-13 0 -22.5 -9.5t-9.5 -22.5q-4 -29 -32 -32h-224q-13 0 -22.5 -9.5t-9.5 -22.5v-288q0 -13 9.5 -22.5t22.5 -9.5h416q13 0 22.5 9.5t9.5 22.5v352q0 13 -9.5 22.5t-22.5 9.5zM368 128h-80v-80q0 -7 -4.5 -11.5t-11.5 -4.5t-11.5 4.5t-4.5 11.5v80h-80
q-7 0 -11.5 4.5t-4.5 11.5t4.5 11.5t11.5 4.5h80v80q0 7 4.5 11.5t11.5 4.5t11.5 -4.5t4.5 -11.5v-80h80q7 0 11.5 -4.5t4.5 -11.5t-4.5 -11.5t-11.5 -4.5z" />
    <glyph glyph-name="uniE05E" unicode="&#xe05e;" 
d="M480 416h-160q-13 0 -22.5 -9.5t-9.5 -22.5q-4 -29 -32 -32h-224q-13 0 -22.5 -9t-9.5 -22v-289q0 -13 9.5 -22.5t22.5 -9.5h192v160h-68l100 128l100 -128h-68v-160h192q13 0 22.5 9.5t9.5 22.5v256v33v63q0 13 -9.5 22.5t-22.5 9.5z" />
    <glyph glyph-name="uniE05F" unicode="&#xe05f;" 
d="M480 416h-160q-13 0 -22.5 -9.5t-9.5 -22.5q-4 -29 -32 -32h-224q-13 0 -22.5 -9t-9.5 -22v-289q0 -13 9.5 -22.5t22.5 -9.5h448q13 0 22.5 9.5t9.5 22.5v256v33v63q0 13 -9.5 22.5t-22.5 9.5zM256 0l-100 128h68v128q0 13 9.5 22.5t22.5 9.5t22.5 -9.5t9.5 -22.5v-128
h68z" />
    <glyph glyph-name="uniE060" unicode="&#xe060;" 
d="M256 480q-106 0 -181 -75t-75 -181t75 -181t181 -75t181 75t75 181t-75 181t-181 75zM224 256q0 13 9.5 22.5t22.5 9.5t22.5 -9.5t9.5 -22.5v-160q0 -13 -9.5 -22.5t-22.5 -9.5t-22.5 9.5t-9.5 22.5v160zM256 319q-7 0 -12.5 3t-10 7t-7 10t-2.5 12q0 14 9.5 23t22.5 9
q4 0 8.5 -1t8 -3t6.5 -5t5 -6.5t3 -7.5t1 -9q0 -13 -9.5 -22.5t-22.5 -9.5z" />
    <glyph glyph-name="uniE061" unicode="&#xe061;" 
d="M256 -32q106 0 181 75t75 181t-75 181t-181 75t-181 -75t-75 -181t75 -181t181 -75zM288 192q0 -13 -9.5 -22.5t-22.5 -9.5t-22.5 9.5t-9.5 22.5v160q0 13 9.5 22.5t22.5 9.5t22.5 -9.5t9.5 -22.5v-160zM256 129q13 0 22.5 -9.5t9.5 -23t-9.5 -22.5t-22.5 -9q-9 0 -16 4
t-11.5 11.5t-4.5 16.5q0 13 9.5 22.5t22.5 9.5z" />
    <glyph glyph-name="uniE062" unicode="&#xe062;" 
d="M371 471q-9 9 -22 9h-186q-13 0 -22 -9l-132 -132q-9 -9 -9 -22v-186q0 -13 9 -22l132 -132q9 -9 22 -9h186q13 0 22 9l132 132q9 9 9 22v186q0 13 -9 22zM256 160q-13 0 -22.5 9.5t-9.5 22.5v192q0 13 9.5 22.5t22.5 9.5t22.5 -9.5t9.5 -22.5v-192q0 -13 -9.5 -22.5
t-22.5 -9.5zM288 64q0 -13 -9.5 -22.5t-22.5 -9.5t-22.5 9.5t-9.5 22.5t9.5 22.5t22.5 9.5t22.5 -9.5t9.5 -22.5z" />
    <glyph glyph-name="uniE063" unicode="&#xe063;" 
d="M33 -32h445q18 0 27.5 15.5t0.5 31.5l-222 416q-9 17 -28 17t-28 -17l-223 -416q-9 -16 0.5 -31.5t27.5 -15.5zM256 96q13 0 22.5 -9.5t9.5 -22.5t-9.5 -22.5t-22.5 -9.5t-22.5 9.5t-9.5 22.5t9.5 22.5t22.5 9.5zM224 159v128q0 14 9.5 23t22.5 9q7 0 12.5 -2.5t10 -6.5
t7 -10t2.5 -13v-128q0 -13 -9.5 -22.5t-22.5 -9.5q-9 0 -16 4.5t-11.5 12t-4.5 15.5z" />
    <glyph glyph-name="uniE064" unicode="&#xe064;" 
d="M256 -32q106 0 181 75t75 181t-75 181t-181 75t-181 -75t-75 -181t75 -181t181 -75zM256 416q53 0 90.5 -30.5t37.5 -87.5q0 -72 -70 -110q-10 -5 -18 -14t-8 -14q0 -13 -9.5 -22.5t-22.5 -9.5t-22.5 9.5t-9.5 22.5q0 27 19 49.5t40 34.5q37 20 37 54q0 54 -64 54
q-26 0 -45 -17t-19 -48q0 -13 -9.5 -22.5t-22.5 -9.5t-22.5 9.5t-9.5 22.5q0 60 39 94.5t89 34.5zM256 31q-3 0 -6.5 0.5t-6.5 1.5t-5.5 3l-5 4t-4 5l-3 6t-2 6t-0.5 7q0 13 9.5 23t23.5 10q3 0 6 -1t5.5 -2l5 -2t4.5 -3l4 -4t3.5 -4.5t2.5 -5.5t1.5 -5.5t0.5 -5.5
q0 -14 -9.5 -23.5t-23.5 -9.5z" />
    <glyph glyph-name="uniE065" unicode="&#xe065;" 
d="M81 88q-18 -47 -52 -88q106 0 168 38q30 -6 59 -6q106 0 181 61t75 147t-75 147t-181 61t-181 -61t-75 -147q0 -90 81 -152z" />
    <glyph glyph-name="uniE066" unicode="&#xe066;" 
d="M447 291q4 -20 4 -39q0 -77 -58 -135.5t-145 -72.5q39 -15 81 -15q40 0 77 14q20 -7 42.5 -10t45.5 -3q-18 22 -30 47q48 43 48 101q0 33 -17.5 62.5t-47.5 50.5zM403 252.5q0 44.5 -27 82t-73.5 59.5t-100.5 22q-84 0 -143 -48t-59 -116q0 -70 64 -119q-15 -38 -41 -70
q83 0 132 30q24 -4 47 -4q54 0 100.5 21.5t73.5 59.5t27 82.5z" />
    <glyph glyph-name="uniE067" unicode="&#xe067;" 
d="M32 92h73l140 -118q11 -7 20 -6q18 2 23 22v234v234q-5 20 -23 22h-4.5t-5 -1l-5 -2t-5.5 -3l-140 -122h-73q-13 0 -22.5 -9.5t-9.5 -22.5v-4v-188v-4q0 -9 4.5 -16.5t11.5 -11.5t16 -4zM506.5 307q-5.5 6 -14 6t-13.5 -6l-56 -55l-55 55q-6 6 -14 6t-13 -6
q-4 -4 -5.5 -9t0 -10t5.5 -9l55 -55l-55 -55q-6 -6 -6 -14t5.5 -14t13.5 -6t14 6l55 55l56 -55q5 -6 13.5 -6t14 6t5.5 14t-6 14l-55 55l55 55q6 6 6 14t-5.5 14z" />
    <glyph glyph-name="uniE068" unicode="&#xe068;" 
d="M329 480h-4.5t-5 -1l-5 -2t-5.5 -3l-140 -122h-73q-13 0 -22.5 -9.5t-9.5 -22.5v-4v-188v-4q0 -13 9.5 -22.5t22.5 -9.5h73q2 -2 17 -14.5t35 -29.5l40 -34t34 -28.5l14 -11.5q11 -7 20 -6q18 2 23 22v117v234v117q-1 4 -2.5 7t-3.5 5.5t-4.5 4.5t-5.5 3.5t-7 1.5z
M401 168q-4 -2 -6 -5.5t-2.5 -7.5t1.5 -8q2 -5 6 -7t8 -2q5 0 8 1q24 13 38 35.5t14 49.5t-14 49.5t-38 35.5q-6 3 -12.5 0.5t-9.5 -8.5t-1 -12t8 -9q4 -2 8 -4.5t7 -5.5t6 -6.5t5 -7t4 -7.5t3 -8t1.5 -8.5t0.5 -8.5q0 -38 -35 -56z" />
    <glyph glyph-name="uniE069" unicode="&#xe069;" 
d="M32 92h73l140 -118q11 -7 20 -6q18 2 23 22v234v234q-5 20 -23 22h-4.5t-5 -1l-5 -2t-5.5 -3l-140 -122h-73q-13 0 -22.5 -9.5t-9.5 -22.5v-4v-188v-4q0 -9 4.5 -16.5t11.5 -11.5t16 -4zM337 168q-4 -2 -6 -5.5t-2.5 -7.5t1.5 -8q2 -5 6 -7t8 -2q5 0 8 1q24 13 38 35.5
t14 49.5t-14 49.5t-38 35.5q-6 3 -12.5 0.5t-9.5 -8.5t-1 -12t8 -9q8 -4 14.5 -10t11 -13t7 -15.5t2.5 -17.5q0 -38 -35 -56zM315 40q3 -13 16 -13q1 0 1.5 0.5t1.5 0.5q70 13 116 68.5t46 127.5t-46 127.5t-116 68.5q-6 2 -11.5 -2t-7.5 -10q-1 -5 0.5 -9t5 -6.5t7.5 -3.5
q59 -12 97.5 -58.5t38.5 -106.5t-38.5 -106.5t-97.5 -58.5q-7 -1 -10.5 -6.5t-2.5 -12.5z" />
    <glyph glyph-name="uniE06A" unicode="&#xe06a;" 
d="M256 480q-106 0 -181 -75t-75 -181t75 -181t181 -75t181 75t75 181t-75 181t-181 75zM384 229q-4 -72 -76 -130q-4 -4 -9 -4q-4 0 -7 2t-5 5q-4 5 -3.5 11.5t5.5 10.5q33 27 47.5 53.5t16.5 50.5q-11 -7 -23 -7q-19 0 -33 14.5t-14 34.5q0 10 4 19t10 15.5t15 10.5t18 4
q8 0 17 -4v1l5 -3h1q4 -2 7 -5q0 -1 3 -4q11 -10 17.5 -28.5t3.5 -46.5zM175 221q-19 0 -33 14.5t-14 34.5q0 8 2.5 15.5t6.5 13.5t10 10.5t13 7t15 2.5q4 0 8 -1t9 -3l-1 1q3 -1 6 -3h1q3 -2 7 -5q0 -1 3 -4q25 -25 21 -75q-4 -72 -76 -130q-4 -4 -9 -4q-3 0 -5 1t-4 2.5
t-4 3.5q-2 3 -2.5 7.5t1 8.5t4.5 6q59 48 64 104q-5 -4 -11 -5.5t-12 -1.5z" />
    <glyph glyph-name="uniE06B" unicode="&#xe06b;" 
d="M104 376q-70 -70 -70 -169t70 -169t169 -70t169 70t70 169t-70 169t-169 70t-169 -70zM400 192h-127h-1q-7 0 -11.5 4.5t-4.5 11.5v160q0 7 4.5 11.5t11.5 4.5t11.5 -4.5t4.5 -11.5v-144h112q7 0 11.5 -4.5t4.5 -11.5t-4.5 -11.5t-11.5 -4.5z" />
    <glyph glyph-name="uniE06C" unicode="&#xe06c;" 
d="M256 480q-67 0 -114.5 -47.5t-47.5 -114.5v-30h-30q-13 0 -22.5 -9.5t-9.5 -22.5v-256q0 -13 9.5 -22.5t22.5 -9.5h384q13 0 22.5 9.5t9.5 22.5v256q0 13 -9.5 22.5t-22.5 9.5h-30v30q0 67 -47.5 114.5t-114.5 47.5zM158 318q0 40 28.5 69t69.5 29t69.5 -29t28.5 -69v-30
h-196v30zM256 64q-27 0 -45.5 18.5t-18.5 45.5t18.5 45.5t45.5 18.5t45.5 -18.5t18.5 -45.5t-18.5 -45.5t-45.5 -18.5z" />
    <glyph glyph-name="uniE06D" unicode="&#xe06d;" 
d="M416 288h-290v30q0 40 28.5 69t69.5 29q18 0 34 -6t28.5 -17t21.5 -25q1 0 1 1q10 -15 26 -15q13 0 22.5 9.5t9.5 22.5q0 4 -1 7l-2 6v0q-2 5 -6 9q-22 33 -57.5 52.5t-76.5 19.5q-67 0 -114.5 -47.5t-47.5 -114.5v-30h-30q-13 0 -22.5 -9.5t-9.5 -22.5v-256
q0 -13 9.5 -22.5t22.5 -9.5h384q13 0 22.5 9.5t9.5 22.5v256q0 13 -9.5 22.5t-22.5 9.5zM224 64q-27 0 -45.5 18.5t-18.5 45.5t18.5 45.5t45.5 18.5t45.5 -18.5t18.5 -45.5t-18.5 -45.5t-45.5 -18.5z" />
    <glyph glyph-name="uniE06E" unicode="&#xe06e;" 
d="M496 480h-64q-3 0 -5.5 -1t-5.5 -3l-220 -194q-27 6 -41 6q-66 0 -113 -47t-47 -113t47 -113t113 -47t113 47t47 113q0 31 -11 58l55 19q5 2 8 6t3 9l-2 61l61 4q4 1 7.5 3t5.5 5.5t2 7.5l3 73l47 10q13 3 13 16v64q0 7 -4.5 11.5t-11.5 4.5zM112 128q30 0 43 -28
q5 -9 5 -20q0 -20 -14 -34t-34 -14t-34 14t-14 34t14 34t34 14z" />
    <glyph glyph-name="uniE06F" unicode="&#xe06f;" 
d="M416 224h-2h-1q3 16 3 32q0 66 -47 113t-113 47t-113 -47t-47 -113v-1v-1q-41 -5 -68.5 -36.5t-27.5 -73.5t27.5 -73t68.5 -37v-2h320q40 0 68 28t28 68t-28 68t-68 28z" />
    <glyph glyph-name="uniE070" unicode="&#xe070;" 
d="M416 224h-2h-1q3 16 3 32q0 66 -47 113t-113 47t-113 -47t-47 -113v-1v-1q-41 -5 -68.5 -36.5t-27.5 -73.5q0 -46 33 -79t79 -33h80q13 0 22.5 9.5t9.5 22.5v96h-68l100 128l100 -128h-68v-96q0 -13 9.5 -22.5t22.5 -9.5h96q40 0 68 28t28 68t-28 68t-68 28z" />
    <glyph glyph-name="uniE071" unicode="&#xe071;" 
d="M416 224h-2h-1q3 16 3 32q0 66 -47 113t-113 47t-113 -47t-47 -113v-1v-1q-41 -5 -68.5 -36.5t-27.5 -73.5t27.5 -73t68.5 -37v-2h160l-100 128h68v128q0 13 9.5 22.5t22.5 9.5t22.5 -9.5t9.5 -22.5v-128h68l-100 -128h160q40 0 68 28t28 68t-28 68t-68 28z" />
    <glyph glyph-name="uniE072" unicode="&#xe072;" 
d="M435 222q1 2 2 5.5t2 6.5l2 6v2t1 1q1 8 3 18v2.5t1 2.5q1 11 1 22q0 79 -56.5 135.5t-135.5 56.5q-52 0 -96.5 -25.5t-70 -70t-25.5 -96.5q0 -11 1 -22q0 -1 0.5 -2.5t0.5 -2.5q1 -10 3 -18l1 -2v-1q3 -10 6 -18l1 -2q4 -11 8 -19v-1h1q5 -10 11 -19v0q3 -5 6.5 -9
t6.5 -9l0.5 -0.5l0.5 -0.5l6.5 -6.5l7.5 -7.5l3 -3l2 -2l2 -2l3 -2q9 -7 9.5 -7.5l1.5 -1.5t2 -1q7 -6 11 -13t5.5 -11t6 -6.5t13.5 -2.5h144q11 0 15 4t8 13t13 16l1.5 1t1.5 2q3 1 7 5l3 2q0 1 1 1q1 1 2 1q1 1 2 2.5t2 1.5l3 3l3.5 3.5l3.5 3.5l3.5 3.5l3.5 3.5l0.5 0.5
l0.5 0.5q1 3 3 5t3.5 4l3 4t3.5 5v0q6 9 11 19q1 0 1 1q4 8 8 19l1 1v1zM368 286q-7 0 -11.5 5t-4.5 11q0 35 -25.5 58.5t-54.5 23.5q-7 0 -11.5 4.5t-4.5 11.5t4.5 11.5t11.5 4.5q44 0 78 -31t34 -83q0 -6 -4.5 -11t-11.5 -5zM253 0h-35h-35l57 -30q7 -3 14.5 -3t14.5 3
l59 30h-36h-35h-4zM352 48q0 7 -4.5 11.5t-11.5 4.5h-160q-7 0 -11.5 -4.5t-4.5 -11.5t4.5 -11.5t11.5 -4.5h160q7 0 11.5 4.5t4.5 11.5z" />
    <glyph glyph-name="uniE073" unicode="&#xe073;" 
d="M480 352h-191v-96h223v64q0 13 -9.5 22.5t-22.5 9.5zM32 352q-13 0 -22.5 -9.5t-9.5 -22.5v-64h224v96h-192zM32 224v-224q0 -13 9.5 -22.5t22.5 -9.5h160v256h-192zM448 -32q13 0 22.5 9.5t9.5 22.5v224h-191v-256h159zM256 384v0h33h95q32 0 48 13.5t16 34.5t-16 34.5
t-48 13.5q-55 0 -96 -40q-16 9 -33 9q-16 0 -32 -9q-40 40 -95 40q-32 0 -48 -13.5t-16 -34.5t16 -34.5t48 -13.5h96h32zM416 432q0 -16 -32 -16h-73v1q6 7 13.5 12t16.5 9.5t20 7t23 2.5q32 0 32 -16zM96 432q0 16 32 16q41 0 72 -30l-1 -1v-1h-71q-32 0 -32 16z" />
    <glyph glyph-name="uniE074" unicode="&#xe074;" 
d="M26 196l230 199l230 -199q4 -4 10 -4q3 0 6.5 1.5t5.5 4.5q3 3 4 7t-0.5 8t-5.5 7l-240 208q-4 4 -10 4t-10 -4l-86 -74v30q0 13 -9.5 22.5t-22.5 9.5t-22.5 -9.5t-9.5 -22.5v-85l-90 -79q-13 -10 -2.5 -22.5t22.5 -1.5zM192 128h128v-160h96q13 0 22.5 9.5t9.5 22.5v157
q0 15 -12 25l-160 131q-9 7 -20 7t-20 -7l-160 -131q-12 -10 -12 -25v-157q0 -13 9.5 -22.5t22.5 -9.5h96v160z" />
    <glyph glyph-name="uniE075" unicode="&#xe075;" 
d="M480 320h-64q-2 0 -5.5 1t-12 9t-14.5 22q-14 32 -32 32h-128q-19 0 -32 -32q-6 -14 -14 -22t-13 -9l-5 -1h-32q0 13 -9.5 22.5t-22.5 9.5h-32q-13 0 -22.5 -9.5t-9.5 -22.5q-13 0 -22.5 -9.5t-9.5 -22.5v-64h178q17 29 46 46.5t64 17.5q23 0 44.5 -8t38 -22.5
t27.5 -33.5h114v64q0 13 -9.5 22.5t-22.5 9.5zM112 256h-64q-7 0 -11.5 4.5t-4.5 11.5t4.5 11.5t11.5 4.5h16h32h16q7 0 11.5 -4.5t4.5 -11.5t-4.5 -11.5t-11.5 -4.5zM192 160q0 -53 45 -81q24 -15 51 -15q53 0 81 45q15 24 15 51q0 53 -45 81q-24 15 -51 15q-53 0 -81 -45
q-15 -24 -15 -51zM416 160q0 -53 -37.5 -90.5t-90.5 -37.5t-90.5 37.5t-37.5 90.5q0 15 5 32h-165v-160q0 -13 9.5 -22.5t22.5 -9.5h448q13 0 22.5 9.5t9.5 22.5v160h-101l2 -6t1.5 -6.5t1 -6.5t0.5 -6.5v-6.5z" />
    <glyph glyph-name="uniE076" unicode="&#xe076;" 
d="M480 352h-448q-13 0 -22.5 -9.5t-9.5 -22.5v-54l256 -102l256 102v54q0 13 -9.5 22.5t-22.5 9.5zM0 214v-214q0 -13 9.5 -22.5t22.5 -9.5h448q13 0 22.5 9.5t9.5 22.5v214l-256 -102z" />
    <glyph glyph-name="uniE077" unicode="&#xe077;" 
d="M347 288l-61 171q-7 21 -30 21q-10 0 -18.5 -6t-11.5 -15l-61 -171h182zM427 64l-46 128h-250l-46 -128h342zM32 32q-13 0 -22.5 -9.5t-9.5 -22.5t9.5 -22.5t22.5 -9.5h64h320h64q13 0 22.5 9.5t9.5 22.5t-9.5 22.5t-22.5 9.5h-448z" />
    <glyph glyph-name="uniE078" unicode="&#xe078;" 
d="M64 384v-384q0 -21 20 -30q6 -2 12 -2q13 0 23 9l137 138l137 -138q10 -9 23 -9q2 0 4 0.5l4 1t4 0.5q20 9 20 30v384h-384zM448 416v32q0 13 -9.5 22.5t-22.5 9.5h-320q-13 0 -22.5 -9.5t-9.5 -22.5v-32h384z" />
    <glyph glyph-name="uniE079" unicode="&#xe079;" 
d="M96 -32h320q13 0 22.5 9.5t9.5 22.5v352q0 13 -9.5 22.5t-22.5 9.5h-64q-1 40 -29 68t-67 28t-67 -28t-29 -68h-64q-13 0 -22.5 -9.5t-9.5 -22.5v-352q0 -13 9.5 -22.5t22.5 -9.5zM304 288h-96q-7 0 -11.5 4.5t-4.5 11.5t4.5 11.5t11.5 4.5h96q7 0 11.5 -4.5t4.5 -11.5
t-4.5 -11.5t-11.5 -4.5zM256 448q26 0 44.5 -18.5t19.5 -45.5h-128q1 27 19.5 45.5t44.5 18.5z" />
    <glyph glyph-name="uniE07A" unicode="&#xe07a;" 
d="M480 352h-384q-1 0 -7 -1l-12 53q-4 11 -16 12h-46q-7 0 -11.5 -4.5t-4.5 -11.5q0 -4 2 -8t6 -6t8 -2h33l20 -85l28 -139v-2l1 -1l-17 -74q-1 -7 4 -13q2 -3 5 -4.5t7 -1.5h363q7 0 11.5 4.5t4.5 11.5t-4.5 11.5t-11.5 4.5h-343l7 33q1 0 2.5 -0.5t2.5 -0.5h292
q9 0 15 1.5t11.5 7t10.5 15.5l51 159q7 20 -3 30.5t-25 10.5zM96 0q0 -24 22 -31q6 -1 10 -1q24 0 31 22q1 6 1 10q0 24 -22 31q-6 1 -10 1q-24 0 -31 -22q-1 -6 -1 -10zM384 0q0 -13 9.5 -22.5t22.5 -9.5q24 0 31 22q1 6 1 10q0 13 -9.5 22.5t-22.5 9.5q-24 0 -31 -22
q-1 -6 -1 -10z" />
    <glyph glyph-name="uniE07B" unicode="&#xe07b;" 
d="M465 448h-1h-1h-201q-7 -1 -17 -9l-236 -236q-9 -9 -9 -22.5t9 -22.5l181 -181q5 -4 10.5 -6.5t12.5 -2.5q13 0 22 9l236 236q2 2 5.5 7.5t3.5 9.5v202q0 7 -4 11.5t-11 4.5zM432 384q-7 0 -11.5 4.5t-4.5 11.5t4.5 11.5t11.5 4.5t11.5 -4.5t4.5 -11.5t-4.5 -11.5
t-11.5 -4.5z" />
    <glyph glyph-name="uniE07C" unicode="&#xe07c;" 
d="M465 480h-1h-1h-169q-3 0 -9.5 -4t-7.5 -5l-204 -204q-6 -6 -8.5 -14.5t0 -16.5t8.5 -14l25 -26l-25 -25q-6 -6 -8.5 -14.5t0 -16.5t8.5 -14l149 -149q9 -9 22.5 -9t22.5 9l203 204q3 2 6.5 7.5t3.5 9.5v96v74v96q0 7 -4 11.5t-11 4.5zM432 448q7 0 11.5 -4.5t4.5 -11
t-4.5 -11.5t-11.5 -5t-11.5 5t-4.5 11.5t4.5 11t11.5 4.5zM448 203l-204 -203l-148 148l25 26l101 -101q4 -4 10 -6.5t12 -2.5q14 0 23 9l181 181v-50v-1z" />
    <glyph glyph-name="uniE07D" unicode="&#xe07d;" 
d="M416 448h-64q0 13 -9.5 22.5t-22.5 9.5h-96q-13 0 -22.5 -9.5t-9.5 -22.5h-64q-13 0 -22.5 -9.5t-9.5 -22.5h352q0 13 -9.5 22.5t-22.5 9.5zM96 0q0 -13 9.5 -22.5t22.5 -9.5h288q13 0 22.5 9.5t9.5 22.5v384h-352v-384zM352 304q0 7 4.5 11.5t11.5 4.5t11.5 -4.5
t4.5 -11.5v-256q0 -7 -4.5 -11.5t-11.5 -4.5t-11.5 4.5t-4.5 11.5v256zM256 304q0 7 4.5 11.5t11.5 4.5t11.5 -4.5t4.5 -11.5v-256q0 -7 -4.5 -11.5t-11.5 -4.5t-11.5 4.5t-4.5 11.5v256zM160 304q0 7 4.5 11.5t11.5 4.5t11.5 -4.5t4.5 -11.5v-256q0 -7 -4.5 -11.5
t-11.5 -4.5t-11.5 4.5t-4.5 11.5v256z" />
    <glyph glyph-name="uniE07E" unicode="&#xe07e;" 
d="M425 140q2 3 2 6t-0.5 6t-3.5 6l-266 316q-7 9 -17 5q-5 -2 -8 -6t-3 -9v-418q1 -11 11 -15l5 -1q8 0 13 7l71 96l50 -142q5 -13 18 -19.5t26.5 -1.5t20 18t1.5 26l-49 140l112 -22h5.5t4.5 1t4 2.5t3 4.5z" />
    <glyph glyph-name="uniE07F" unicode="&#xe07f;" 
d="M224 67v-67h-48q-7 0 -11.5 -4.5t-4.5 -11.5t4.5 -11.5t11.5 -4.5h80h80q7 0 11.5 4.5t4.5 11.5t-4.5 11.5t-11.5 4.5h-48v67q54 11 91 52t37 105v48q0 7 -4.5 11.5t-11.5 4.5t-11.5 -4.5t-4.5 -11.5v-48q0 -60 -38.5 -94t-89.5 -34t-89.5 33t-38.5 95v48q0 7 -4.5 11.5
t-11.5 4.5t-11.5 -4.5t-4.5 -11.5v-48q0 -65 36.5 -106t91.5 -51zM256 160q27 0 45.5 18.5t18.5 45.5v192q0 27 -18.5 45.5t-45.5 18.5t-45.5 -18.5t-18.5 -45.5v-192q0 -27 18.5 -45.5t45.5 -18.5z" />
    <glyph glyph-name="uniE080" unicode="&#xe080;" 
d="M256 480q-106 0 -181 -75t-75 -181t75 -181t181 -75t181 75t75 181t-75 181t-181 75zM382 328l-38 -60l-24 -40v-2v-2q0 -27 -18.5 -45.5t-45.5 -18.5h-2.5h-1.5l-40 -24l-60 -38q-3 -2 -8 -2q-7 0 -11 5q-4 4 -5 9.5t2 9.5l38 60l24 40v2v2q0 27 18.5 45.5t45.5 18.5
h2.5h1.5l40 24l60 38q10 6 19 -3t3 -19zM224 224q0 -24 22 -31q6 -1 10 -1q24 0 31 22q1 6 1 10q0 13 -9.5 22.5t-22.5 9.5t-22.5 -9.5t-9.5 -22.5z" />
    <glyph glyph-name="uniE081" unicode="&#xe081;" 
d="M244 -23q5 -4 8 -7q3 -1 5 -1q1 0 2.5 0.5t2.5 0.5q5 3 8 7q6 6 16 18t36.5 47.5t47.5 70t40.5 80.5t23.5 86q1 12 1 22q0 48 -24 89.5t-65 65.5t-90 24q-74 0 -126.5 -52.5t-52.5 -126.5q0 -11 1 -23q13 -118 143 -274q14 -17 23 -27zM256 416q48 0 81.5 -34t33.5 -81.5
t-33.5 -81.5t-81.5 -34t-81.5 34t-33.5 81.5t33.5 81.5t81.5 34z" />
    <glyph glyph-name="uniE082" unicode="&#xe082;" 
d="M128 168q0 -18 37 -28t91 -12v-96q0 -16 5 -40t11 -24t11 24t5 40v96q54 2 91 12t37 28q0 39 -64 55v166q29 10 46.5 24.5t17.5 26.5q0 11 -16 19.5t-41.5 13t-56 6.5t-61 0t-56 -6.5t-41.5 -13t-16 -19.5q0 -6 4.5 -13t12.5 -14t20 -13.5t27 -11.5v-165q-64 -16 -64 -55
z" />
    <glyph glyph-name="uniE083" unicode="&#xe083;" 
d="M161 387l-129 61v-384l129 -61v384zM193 4l128 57v384l-128 -57v-384zM353 60l127 -60v384l-127 60v-384z" />
    <glyph glyph-name="uniE084" unicode="&#xe084;" 
d="M448 416q-3 7 -8 13t-10.5 10.5t-11.5 6.5t-13 2h-301q-27 0 -40 -32l-64 -256v-1v-16v-16v-17v-95q0 -6 4.5 -11t11.5 -5h480q7 0 11.5 5t4.5 11v96v1v15v16v15v1zM94 405q1 3 2.5 5t3.5 4t4 2h301q3 0 6.5 -3t6.5 -8l56 -229q0 -7 -4.5 -11.5t-11.5 -4.5v-1h-42h-80
q-7 0 -11.5 -4.5t-4.5 -11.5v-31q0 -7 -4.5 -11.5t-11.5 -4.5h-0.5t-0.5 -1h-94l-1 1q-7 0 -11.5 4.5t-4.5 11.5v31q0 7 -4.5 11.5t-11.5 4.5h-112h-10v1q-7 0 -11.5 4.5t-4.5 11.5h-1z" />
    <glyph glyph-name="uniE085" unicode="&#xe085;" 
d="M480 320h-128v32q0 13 -9.5 22.5t-22.5 9.5h-128q-13 0 -22.5 -9.5t-9.5 -22.5v-32h-128q-13 0 -22.5 -9.5t-9.5 -22.5v-64h192h128h192v64q0 13 -9.5 22.5t-22.5 9.5zM192 352h128v-32h-128v32zM192 192h128v-32h-128v32zM352 160q0 -13 -9.5 -22.5t-22.5 -9.5h-128
q-13 0 -22.5 9.5t-9.5 22.5v32h-160v-192q0 -13 9.5 -22.5t22.5 -9.5h448q13 0 22.5 9.5t9.5 22.5v192h-160v-32z" />
    <glyph glyph-name="uniE086" unicode="&#xe086;" 
d="M81 -32h14h192h33h11h52q13 0 22.5 9.5t9.5 22.5v69v11v256q0 7 -4.5 11.5t-11.5 4.5h-271h-3h-1h-43q-21 0 -35 13.5t-14 33.5q0 14 6.5 25t17.5 17.5t24 6.5h64h176h128v-368q0 -7 4.5 -11.5t11 -4.5t11.5 4.5t5 11.5v384q0 7 -5 11.5t-12 4.5h-111h-208h-63
q-33 0 -56.5 -23t-24.5 -56v-67v-46v-175v-40v-24q0 -34 23.5 -57.5t57.5 -23.5z" />
    <glyph glyph-name="uniE087" unicode="&#xe087;" 
d="M32 480q-13 0 -22.5 -9.5t-9.5 -22.5v-448q0 -13 9.5 -22.5t22.5 -9.5h32v512h-32zM416 480h-320v-512h320q13 0 22.5 9.5t9.5 22.5v448q0 13 -9.5 22.5t-22.5 9.5zM270 357q20 0 34.5 -14.5t14.5 -34.5q0 -10 -4 -19t-10.5 -15.5t-15.5 -10t-19 -3.5q-20 0 -34 14
t-14 34t14 34.5t34 14.5zM192 134q0 29 10.5 53.5t29 38.5t39.5 14q33 0 56 -31t23 -75q0 -31 -50 -41q-53 -11 -88 11q-19 13 -20 30zM480 448h32v-96h-32v96zM480 320h32v-96h-32v96zM480 192h32v-96h-32v96z" />
    <glyph glyph-name="uniE088" unicode="&#xe088;" 
d="M480 416h-448q-13 0 -22.5 -9.5t-9.5 -22.5v-64h512v64q0 13 -9.5 22.5t-22.5 9.5zM32 0q0 -13 9.5 -22.5t22.5 -9.5h384q13 0 22.5 9.5t9.5 22.5v288h-448v-288zM192 224h128q13 0 22.5 -9.5t9.5 -22.5t-9.5 -22.5t-22.5 -9.5h-128q-13 0 -22.5 9.5t-9.5 22.5t9.5 22.5
t22.5 9.5z" />
    <glyph glyph-name="uniE089" unicode="&#xe089;" 
d="M512 259q-1 39 -20 73t-52.5 54.5t-71.5 20.5q-68 0 -112 -59q-13 18 -30.5 31t-38.5 20.5t-43 7.5q-58 0 -100.5 -44.5t-43.5 -103.5v-1.5v-0.5v-1q0 -1 0.5 -3t0.5 -3q5 -144 166 -240q47 -29 87 -42q5 2 14 5t35 15.5t50 27.5t53.5 39t51 51.5t37 65t16.5 78.5
q0 1 0.5 3t0.5 3v1v1v1z" />
    <glyph glyph-name="uniE08A" unicode="&#xe08a;" 
d="M352 384q0 39 -28.5 67.5t-67.5 28.5t-67.5 -28.5t-28.5 -67.5t28.5 -67.5t67.5 -28.5t67.5 28.5t28.5 67.5zM256 256q-64 0 -112 -60t-48 -143q0 -33 33 -55t80 -27t94 0t80 27t33 55q0 83 -48 143t-112 60z" />
    <glyph glyph-name="uniE08B" unicode="&#xe08b;" 
d="M224 400q0 32 -24 56t-56 24t-56 -24t-24 -56t24 -56t56 -24t56 24t24 56zM280 96q0 91 -40.5 141.5t-99.5 50.5t-99.5 -50.5t-40.5 -141.5q0 -41 70 -58.5t140 0t70 58.5zM376 258q32 0 56 24t24 56t-24 56t-56 24t-56 -24t-24 -56t24 -56t56 -24zM372 226
q-33 0 -62 -18q18 -50 18 -112q0 -65 -78 -96q30 -25 93.5 -31t116 12t52.5 53q0 91 -40.5 141.5t-99.5 50.5z" />
    <glyph glyph-name="uniE08C" unicode="&#xe08c;" 
d="M96 256h96q13 0 22.5 9.5t9.5 22.5v96q0 13 -9.5 22.5t-22.5 9.5h-96q-13 0 -22.5 -9.5t-9.5 -22.5v-96q0 -13 9.5 -22.5t22.5 -9.5zM320 256h96q13 0 22.5 9.5t9.5 22.5v96q0 13 -9.5 22.5t-22.5 9.5h-96q-13 0 -22.5 -9.5t-9.5 -22.5v-96q0 -13 9.5 -22.5t22.5 -9.5z
M64 64q0 -13 9.5 -22.5t22.5 -9.5h96q13 0 22.5 9.5t9.5 22.5v96q0 13 -9.5 22.5t-22.5 9.5h-96q-13 0 -22.5 -9.5t-9.5 -22.5v-96zM288 64q0 -13 9.5 -22.5t22.5 -9.5h96q13 0 22.5 9.5t9.5 22.5v96q0 13 -9.5 22.5t-22.5 9.5h-96q-13 0 -22.5 -9.5t-9.5 -22.5v-96z" />
    <glyph glyph-name="uniE08D" unicode="&#xe08d;" 
d="M64 320h64q13 0 22.5 9.5t9.5 22.5v64q0 13 -9.5 22.5t-22.5 9.5h-64q-13 0 -22.5 -9.5t-9.5 -22.5v-64q0 -13 9.5 -22.5t22.5 -9.5zM224 320h64q13 0 22.5 9.5t9.5 22.5v64q0 13 -9.5 22.5t-22.5 9.5h-64q-13 0 -22.5 -9.5t-9.5 -22.5v-64q0 -13 9.5 -22.5t22.5 -9.5z
M384 320h64q13 0 22.5 9.5t9.5 22.5v64q0 13 -9.5 22.5t-22.5 9.5h-64q-13 0 -22.5 -9.5t-9.5 -22.5v-64q0 -13 9.5 -22.5t22.5 -9.5zM32 192q0 -13 9.5 -22.5t22.5 -9.5h64q13 0 22.5 9.5t9.5 22.5v64q0 13 -9.5 22.5t-22.5 9.5h-64q-13 0 -22.5 -9.5t-9.5 -22.5v-64z
M192 192q0 -13 9.5 -22.5t22.5 -9.5h64q13 0 22.5 9.5t9.5 22.5v64q0 13 -9.5 22.5t-22.5 9.5h-64q-13 0 -22.5 -9.5t-9.5 -22.5v-64zM352 192q0 -13 9.5 -22.5t22.5 -9.5h64q13 0 22.5 9.5t9.5 22.5v64q0 13 -9.5 22.5t-22.5 9.5h-64q-13 0 -22.5 -9.5t-9.5 -22.5v-64z
M32 32q0 -13 9.5 -22.5t22.5 -9.5h64q13 0 22.5 9.5t9.5 22.5v64q0 13 -9.5 22.5t-22.5 9.5h-64q-13 0 -22.5 -9.5t-9.5 -22.5v-64zM192 32q0 -13 9.5 -22.5t22.5 -9.5h64q13 0 22.5 9.5t9.5 22.5v64q0 13 -9.5 22.5t-22.5 9.5h-64q-13 0 -22.5 -9.5t-9.5 -22.5v-64zM352 32
q0 -13 9.5 -22.5t22.5 -9.5h64q13 0 22.5 9.5t9.5 22.5v64q0 13 -9.5 22.5t-22.5 9.5h-64q-13 0 -22.5 -9.5t-9.5 -22.5v-64z" />
    <glyph glyph-name="uniE08E" unicode="&#xe08e;" 
d="M13 -7.5q18 -23.5 50 -24.5t60 20q22 17 31 42q6 11 6 27v239l288 55v-127q0 -15 -5 -26.5t-13.5 -17.5t-15 -9t-12.5 -4h-2h-1l-2 -1h1q-6 -1 -11 -2.5t-10.5 -3.5t-10.5 -5t-10 -7q-28 -22 -35 -53.5t11 -54.5q12 -15 31 -21t40 -2t40 18q28 22 35 54q1 4 1.5 8t0.5 8
v311q0 1 -0.5 3t-0.5 2.5t0.5 1.5l0.5 1v32q0 14 -9.5 20.5t-22.5 2.5l-288 -55q-13 -4 -22.5 -16t-9.5 -26v-32v-1v-1v-2v-169q0 -16 -5 -27.5t-13.5 -17.5t-15 -8.5t-12.5 -3.5h-1h-1l-3 -1h1q-23 -4 -41 -18q-28 -22 -35 -53.5t11 -55z" />
    <glyph glyph-name="uniE08F" unicode="&#xe08f;" 
d="M256 480q-106 0 -181 -75t-75 -181t75 -181t181 -75t181 75t75 181t-75 181t-181 75zM224 160q0 -13 -9.5 -22.5t-22.5 -9.5t-22.5 9.5t-9.5 22.5v128q0 13 9.5 22.5t22.5 9.5t22.5 -9.5t9.5 -22.5v-128zM352 160q0 -13 -9.5 -22.5t-22.5 -9.5t-22.5 9.5t-9.5 22.5v128
q0 13 9.5 22.5t22.5 9.5t22.5 -9.5t9.5 -22.5v-128z" />
    <glyph glyph-name="uniE090" unicode="&#xe090;" 
d="M211 351q0 10 -3 20t-7 18t-9 15.5t-11 14t-12 11.5t-11.5 9.5t-10.5 7.5t-9 5.5t-6 3.5t-3 1q-5 2 -9 1q-24 -4 -43 -12t-28.5 -16t-16.5 -17.5t-8.5 -13t-1.5 -6.5q-1 -2 -1 -4t1 -5q21 -64 50 -119t57 -92t64 -68t62 -48t59.5 -32t49 -20t38.5 -11q10 -3 13 -4
q2 -1 5 -1q4 1 6 2q2 0 4 1.5t7.5 5.5t11 9t12.5 13.5t12 18t10 23.5t8 30l-2 10q-1 2 -3.5 6t-11 13.5t-19 18t-28 17.5t-37.5 14q-8 2 -15 -3q-45 -39 -68 -43q-59 29 -100 78t-44 69q0 4 6 15t16.5 25t21.5 27q5 5 4 12z" />
    <glyph glyph-name="uniE091" unicode="&#xe091;" 
d="M96 288h96v-192h128l-1 192h97l-160 160zM384 32h-256v64h-64v-64v-64h384v64v64h-64v-64z" />
    <glyph glyph-name="uniE092" unicode="&#xe092;" 
d="M256 96l160 160h-96v192h-128l1 -192h-97zM64 32v-64h384v64v64h-64v-64h-256v64h-64v-64z" />
    <glyph glyph-name="uniE093" unicode="&#xe093;" 
d="M193 -32h96v256h87l9 88h-96v44q0 20 6 28t29 8h61v88h-88q-16 0 -29 -2t-23 -6t-18 -9.5t-14 -13.5t-10 -16.5t-6 -19.5t-3 -23t-1 -26v-52h-64v-88h64v-256z" />
    <glyph glyph-name="uniE094" unicode="&#xe094;" 
d="M498 424q-31 -18 -67 -25q-14 15 -34 24t-43 9q-28 0 -52 -14t-38.5 -38.5t-14.5 -52.5q0 -6 1 -12l2 -12q-32 2 -63 10.5t-58.5 22.5t-51.5 33.5t-43 43.5q-7 -12 -11 -25.5t-4 -27.5q0 -56 47 -87q-25 0 -47 13v-2q0 -37 23.5 -66t60.5 -37q-3 0 -6.5 -1t-7 -1.5
t-7 -0.5h-7.5q-5 0 -10 0.5t-10 1.5q11 -32 37.5 -52.5t60.5 -20.5q-18 -15 -38.5 -24.5t-44 -15t-47.5 -5.5q-12 0 -25 1q74 -47 161 -47q47 0 89 12.5t74.5 34t58.5 50.5t42.5 62.5t25.5 69t9 70.5v13q31 23 52 55q-29 -13 -60 -17q34 21 46 58z" />
    <glyph glyph-name="uniE095" unicode="&#xe095;" 
d="M129 184q9 15 9 27.5t-4.5 19.5t-10.5 17.5t-7 20.5q-6 37 8 71.5t41.5 55.5t60.5 32t68 3t61 -34q15 -16 22 -41t7 -53t-8 -55.5t-21.5 -48.5t-34 -32t-44.5 -6q-26 5 -32 25t2 46t17 52.5t7 49t-23 30.5q-16 6 -28.5 2.5t-22.5 -13t-16 -24t-8.5 -30t0 -31.5t9.5 -29
q-4 -20 -12 -50t-13.5 -51t-11 -53t-5.5 -56t3 -61q33 24 49.5 66t29.5 107q6 -3 16 -10t16 -10.5t15.5 -7t20.5 -4.5q42 -4 76.5 15.5t55 52.5t29.5 75.5t3 85.5q-10 73 -74.5 111.5t-148.5 28.5q-32 -3 -62.5 -17.5t-54.5 -37t-39.5 -54.5t-16.5 -67q-4 -101 72 -118z" />
    <glyph glyph-name="uniE096" unicode="&#xe096;" 
d="M137 14q61 0 96.5 29t35.5 68q0 20 -4.5 34.5t-14.5 27t-28 25.5q-7 5 -14.5 12t-14 15.5t-6.5 14.5q0 11 4.5 18.5t20.5 19.5q38 30 38 70q0 26 -11.5 47.5t-31.5 29.5h43l30 22h-134q-46 0 -81.5 -29.5t-35.5 -68.5q0 -41 28.5 -69.5t73.5 -28.5q3 0 6.5 0.5t5.5 0.5
q-6 -13 -6 -25q0 -19 18 -37h-7.5h-8.5h-7q-55 0 -93.5 -29.5t-38.5 -67.5q0 -46 64 -68q34 -10 73 -11zM150 265q-17 1 -32.5 12t-26.5 30.5t-14 41.5q-4 34 11 57t41 22t47.5 -25t26 -58t-11 -57.5t-41.5 -22.5zM146 177q17 0 33 -5q4 -3 10.5 -7.5t9.5 -6.5t8 -5.5
t7.5 -6l6 -6t5.5 -6.5t4 -7t3 -8q1 -7 1 -14q0 -15 -5 -27t-16 -22t-30.5 -15t-45.5 -5q-38 0 -63.5 21t-25.5 50q0 37 45 59q25 11 53 11zM416 352v95h-32v-95h-96v-32h96v-97h32v97h96v32h-96z" />
    <glyph glyph-name="uniE097" unicode="&#xe097;" 
d="M165 91q0 -35 7 -54q4 -9 10.5 -18t16 -17t21 -14.5t25.5 -10.5q27 -9 55 -9q15 0 29.5 1.5t27.5 4.5q10 2 18.5 5t19 7t21.5 9v77q-31 -21 -67 -21q-22 0 -39 11q-6 3 -11.5 9t-7.5 13q-3 7 -3 55v117h128v96h-128v128h-83q-1 -10 -2.5 -19t-4 -17t-5 -15.5t-6.5 -13.5
q-6 -13 -14.5 -24t-19.5 -20q-18 -16 -57 -28v-87h69v-165z" />
    <glyph glyph-name="uniE098" unicode="&#xe098;" 
d="M352 229l-34 -12l-30 12v-62q0 -44 28 -73.5t68 -29.5t68 28t28 68v64h-64v-64q0 -13 -9.5 -22.5t-22.5 -9.5q-14 0 -23 10.5t-9 28.5v62zM128 64q40 0 68 28t28 68v128q0 13 9.5 22.5t22.5 9.5t22.5 -8t9.5 -17v-31l30 -12l34 12v31q0 35 -28.5 62t-67.5 27
q-40 0 -68 -28t-28 -68v-128q0 -13 -9.5 -22.5t-22.5 -9.5t-22.5 9.5t-9.5 22.5v64h-64v-64q0 -40 28 -68t68 -28z" />
    <glyph glyph-name="uniE099" unicode="&#xe099;" 
d="M256 480q-106 0 -181 -75t-75 -181t75 -181t181 -75t181 75t75 181t-75 181t-181 75zM37 224q0 45 19 87l104 -279q-18 8 -34.5 20t-30 26t-24.5 31t-18.5 35.5t-11.5 38.5t-4 41zM256 10q-16 0 -31.5 2.5t-30.5 6.5l66 186l67 -180q1 -1 2 -3q-17 -6 -35.5 -9t-37.5 -3z
M286 324q6 0 12.5 0.5t9.5 1.5h3q6 1 8 5.5t-0.5 8.5t-8.5 4q-4 0 -10.5 -0.5t-22 -1.5t-26.5 -1q-6 0 -14 0.5t-15.5 0.5t-14 0.5t-9.5 1.5h-4q-6 0 -8.5 -4t-0.5 -8.5t7 -5.5q11 -1 23 -2l34 -91l-48 -140l-79 231q5 0 11.5 0.5t9.5 1.5h4q9 1 8 9.5t-10 8.5
q-35 -3 -58 -3h-14q30 45 78 71t105 26q85 0 148 -56h-1h-2q-15 0 -26 -11.5t-11 -26.5q0 -16 19 -46q2 -3 3 -4q18 -31 18 -59q0 -17 -17 -69l-21 -72zM475 224q0 -58 -29.5 -107t-79.5 -78l67 189q17 41 17 77q0 11 -1 22q13 -24 19.5 -50t6.5 -53z" />
    <glyph glyph-name="uniE09A" unicode="&#xe09a;" 
d="M489 480h-466q-6 0 -11.5 -3t-8.5 -8.5t-3 -11.5v-466q0 -9 7 -16t16 -7h466q9 0 16 7t7 16v466q0 6 -3 11.5t-8.5 8.5t-11.5 3zM345 224q0 -24 -12 -44.5t-32.5 -32.5t-44.5 -12q-37 0 -63 26t-26 63t26 63t63 26t63 -26t26 -63zM448 32h-384v224h42q-3 -16 -3 -32
q0 -63 45 -108t108 -45q31 0 59.5 12t49 32.5t32.5 49t12 59.5q0 16 -3 32h42v-224zM448 320h-96v96h96v-96z" />
    <glyph glyph-name="uniE09B" unicode="&#xe09b;" 
d="M256 480q-106 0 -181 -75t-75 -181t75 -181t181 -75t181 75t75 181t-75 181t-181 75zM256 442q41 0 78 -14.5t67 -40.5q-5 -7 -14 -16.5t-37.5 -29.5t-63.5 -33q-12 23 -26 46t-26 40.5t-18.5 26.5t-10.5 15q8 2 16.5 3.5t17 2t17.5 0.5zM163 422q44 -60 81 -127
q-105 -28 -202 -27q11 51 43 91.5t78 62.5zM37 224v6q112 -2 225 31q5 -9 9.5 -18t8.5 -19q-2 0 -4.5 -1t-4.5 -1q-26 -9 -51 -22.5t-44 -29.5t-34 -30.5t-26 -29t-15.5 -21.5t-6.5 -12q-57 63 -57 147zM256 5q-75 0 -134 46q2 4 5.5 10t12.5 19t23 26.5t32 28t43.5 29
t54.5 24.5h2q14 -36 25 -74.5t15 -57t6 -34.5q-8 -3 -16 -5.5t-16.5 -5t-17 -4t-17.5 -2t-18 -0.5zM378 42q-2 13 -5.5 29.5t-13.5 54t-23 72.5q70 12 136 -9q-3 -18 -9 -35.5t-14.5 -33t-19 -29.5t-23.5 -26.5t-28 -22.5zM322 233q-2 6 -4 11q-7 16 -15 32q28 11 52 25.5
t38.5 28t21.5 20.5t10 12q49 -60 50 -136q-78 16 -153 7z" />
    <glyph glyph-name="uniE09C" unicode="&#xe09c;" 
d="M294 327q28 17 48 10t22.5 -29t-11.5 -51q-49 -92 -71 -92q-5 0 -10 6t-10 21t-10 31.5t-12 43.5q-3 15 -8 45t-9.5 51t-12.5 43t-22.5 31.5t-34.5 5.5q-18 -4 -40.5 -17.5t-42 -30t-35.5 -32.5l-26 -26l-9 -11l21 -27q2 1 4.5 3t11 7t15.5 8t14.5 3t11.5 -4.5
t12.5 -29.5t19 -58.5t21 -68t20 -63.5t14.5 -39q9 -19 24.5 -33.5t37.5 -21.5t46 9q22 15 54 43.5t71 71.5t70 100.5t41 113.5q14 79 -41 101q-48 20 -105 -14q-59 -35 -69 -100z" />
    <glyph glyph-name="uniE09D" unicode="&#xe09d;" 
d="M33 320h95v-352h-95v352zM323 320q-7 0 -13 -1t-10.5 -2t-9.5 -3t-8 -3.5t-7.5 -4.5t-6.5 -4.5t-6.5 -5t-5.5 -4.5v28h-95v-352h95v222v1v4t1 6t2.5 7t3.5 7.5t6 7t9 6t12 4t15 1.5q12 0 21 -3.5t14.5 -9.5t8.5 -14t3 -17v-222h101v218q0 35 -11 60.5t-25.5 39t-34 22
t-33 10.5t-26.5 2zM32 400q0 -32 29 -44q10 -4 19 -4q32 0 44 29q4 10 4 19q0 32 -29 44q-10 4 -19 4q-32 0 -44 -29q-4 -10 -4 -19z" />
    <glyph glyph-name="uniE09E" unicode="&#xe09e;" 
d="M0 480v-98q112 0 207.5 -55.5t151 -151t55.5 -207.5h98q0 104 -40.5 199t-109 163.5t-163.5 109t-199 40.5zM239 -32h99q0 92 -45.5 169.5t-123 123t-169.5 45.5v-98q99 0 169 -70q34 -34 52 -78t18 -92zM68 -31q28 0 48 19.5t20 48t-20 48.5t-48 20t-48 -20t-20 -48.5
t20 -48t48 -19.5z" />
    <glyph glyph-name="uniE09F" unicode="&#xe09f;" 
d="M364 313q-80 19 -183 3q-2 0 -3.5 -0.5t-3.5 -0.5l-21 39q-31 -4 -58 -13l20 -42q-49 -19 -79 -52q-25 -28 -33 -60.5t4 -67.5q4 -13 12 -25l239 66l-66 122q4 1 7 2q73 13 121 -0.5t77 -41.5l-82 -20l-34 55q-31 1 -68 -5l60 -108l239 65q-2 5 -5 9.5t-6 8.5
q-13 14 -34 27t-47.5 23t-55.5 16zM87 167q-14 64 46 96l36 -76z" />
    <glyph glyph-name="uniE0A0" unicode="&#xe0a0;" 
d="M377 329q23 -17 51 -17q35 0 59.5 24.5t24.5 59.5t-24.5 59.5t-59.5 24.5t-59.5 -24.5t-24.5 -59.5l-208 -100q-23 18 -52 18q-35 0 -59.5 -24.5t-24.5 -59.5t24.5 -59.5t59.5 -24.5q25 0 46 13l214 -103q0 -35 24.5 -60t59.5 -25t59.5 25t24.5 59.5t-24.5 59.5t-59.5 25
q-28 0 -51 -17l-209 101v4z" />
    <glyph glyph-name="uniE0A1" unicode="&#xe0a1;" 
d="M253 352q18 18 18 45q0 9 -2 17t-6 15t-10 13.5t-13.5 10.5t-15.5 6t-17 2q-13 0 -24.5 -4.5t-20.5 -14.5q-19 -18 -19 -45t19 -45q6 -6 13 -10.5t15 -6.5t17 -2q27 1 46 19zM310 338q12 -11 26 -18q8 -3 16 -5t16.5 -2t17 2t15.5 5q15 7 26.5 18t18 26t6.5 33
q0 9 -1.5 17t-5.5 15q-7 15 -18 27q-11 11 -26 17q-7 4 -15.5 5.5t-16.5 1.5q-18 0 -33 -7t-26 -17q-12 -12 -18.5 -27t-6.5 -32.5t6.5 -32.5t18.5 -26zM85 348q20 0 34 14t14 35q0 19 -14 33.5t-34 14.5q-10 0 -19 -3.5t-16 -10.5t-10.5 -15.5t-3.5 -18.5q0 -21 14.5 -35
t34.5 -14zM449 248q-15 15 -36 24q-4 2 -8.5 3l-9 2l-9 2t-9 1.5t-8.5 0.5q-24 0 -44.5 -9t-35.5 -24q-7 27 -30 45q-5 5 -11 8.5t-12.5 5.5t-13.5 3t-15 1q-6 0 -12 -1t-12 -2.5t-12 -4.5q-17 -8 -29 -22q-5 19 -20.5 31.5t-36.5 12.5q-25 0 -42 -17q-4 -4 -6.5 -8.5
t-3.5 -11t-1 -10v-12.5v-103h84v-83h141v-112h225v199q0 12 -2 23t-7 21q-9 22 -24 37z" />
    <glyph glyph-name="uniE0A2" unicode="&#xe0a2;" 
d="M490 223q0 97 -69 165.5t-166 68.5q-19 0 -38 -3q-35 22 -77 22q-58 0 -99 -41t-41 -99q0 -42 23 -76q-3 -19 -3 -37q0 -64 31.5 -118t85.5 -85t118 -31q21 0 43 4q34 -21 74 -21q58 0 99 41t41 99q0 43 -24 79q2 16 2 32zM277 50q-53 -2 -84.5 8.5t-57.5 34.5
q-17 16 -20.5 33.5t5 28.5t23.5 12q10 1 19.5 -4.5t16 -12.5t14 -15t12.5 -11q10 -6 27 -11.5t41 -3t38 18.5q11 15 10 26t-14 19t-28 13t-32 7q-53 8 -92.5 34.5t-35.5 69.5q4 45 33.5 70.5t69.5 29.5q86 8 139 -38q9 -8 14.5 -16.5t6.5 -16t-1 -14.5t-6 -12t-9.5 -8.5
t-11.5 -4.5q-7 -1 -18.5 7.5t-22.5 18.5t-28 19t-35 10q-39 0 -56 -27q-17 -25 14 -41q7 -4 17 -6q9 -2 33.5 -7.5t35 -8.5t30 -10t29.5 -14t21.5 -19t17.5 -27q19 -45 -19.5 -87t-95.5 -45z" />
    <glyph glyph-name="uniE0A3" unicode="&#xe0a3;" 
d="M443 399q-208 14 -374 0q-26 -3 -44 -29t-21 -54q-7 -92 0 -184q3 -28 21 -54t44 -30q202 -13 374 0q26 5 44 31t21 53q7 94 0 189q-1 8 -3 17t-6 18t-9.5 16.5t-12 13.5t-15.5 9.5t-19 3.5zM192 133v184l160 -92z" />
    <glyph glyph-name="uniE0A4" unicode="&#xe0a4;" 
d="M128 2v227l-107 -107q34 -77 107 -120zM160 -13q46 -19 96 -19q70 0 129 35t93 93h-318v-109zM213 368l-80 80q-61 -33 -97 -93t-36 -131q0 -31 7 -62zM352 461q-46 19 -96 19q-11 0 -22.5 -1t-22 -3t-21 -4.5t-20.5 -6.5l182 -182v178zM384 446v-318h109q19 46 19 96
q0 47 -16 89.5t-45 76.5t-67 56z" />
    <glyph glyph-name="uniE0A5" unicode="&#xe0a5;" 
d="M488 192l-147 254h-170l146 -254h171zM232 256l-86 148l-146 -254l85 -148zM144 -1h283l85 161h-276z" />
    <glyph glyph-name="uniE0A6" unicode="&#xe0a6;" 
d="M0 226q0 -58 48 -90q27 -17 59 -17q57 0 89 48q17 28 17 59q0 57 -48 89q-27 17 -58 17q-58 0 -90 -48q-17 -27 -17 -58zM299 226q0 -58 48 -90q27 -17 58 -17q58 0 90 48q17 28 17 59q0 57 -48 89q-27 17 -59 17q-57 0 -89 -48q-17 -27 -17 -58z" />
    <glyph glyph-name="uniE0A7" unicode="&#xe0a7;" 
d="M479 288h-28h-1q-13 0 -23 9.5t-11 22.5q0 81 -65 128q-45 32 -101 32h-84q-68 0 -117 -48.5t-49 -116.5v-182q0 -68 49 -116.5t117 -48.5h180q69 0 117.5 48.5t48.5 116.5v117q0 15 -10 26.5t-23 11.5zM160 352h96q13 0 22.5 -9.5t9.5 -22.5t-9.5 -22.5t-22.5 -9.5h-96
q-13 0 -22.5 9.5t-9.5 22.5t9.5 22.5t22.5 9.5zM352 96h-192q-13 0 -22.5 9.5t-9.5 22.5t9.5 22.5t22.5 9.5h192q13 0 22.5 -9.5t9.5 -22.5t-9.5 -22.5t-22.5 -9.5z" />
    <glyph glyph-name="uniE0A8" unicode="&#xe0a8;" 
d="M256 480q-106 0 -181 -75t-75 -181t75 -181t181 -75t181 75t75 181t-75 181t-181 75zM374 74q-5 -9 -15 -9q-2 0 -4.5 0.5t-4.5 1.5q-62 35 -134 35q-43 0 -83 -13q-3 -1 -6.5 -0.5t-6.5 2t-5.5 4t-3.5 6.5q-2 7 1.5 18t10.5 14q22 6 45.5 10t47.5 4q81 0 151 -39
q7 -4 9 -16t-2 -18zM407 170q-10 -18 -18 -18q-3 0 -5.5 0.5t-4.5 1.5q-19 10 -39 17.5t-40 12.5t-41.5 7.5t-42.5 2.5q-24 0 -47.5 -3t-46.5 -10q-5 -1 -10.5 0.5t-9.5 5t-5 9.5q-2 9 2.5 19.5t11.5 12.5q52 14 105 14q97 0 182 -44q8 -4 10.5 -12t-1.5 -16zM441 263
q-2 -4 -5 -7.5t-7 -5.5t-9 -2t-10 2q-91 46 -194 46q-54 0 -105 -13q-10 -3 -18 2t-11 15q-1 5 0 10t3 9t6 7.5t8 4.5q57 14 117 14q56 0 110 -12.5t105 -38.5q9 -4 12 -13t-2 -18z" />
    <glyph glyph-name="uniE0A9" unicode="&#xe0a9;" 
d="M480 480h-224h-224h-9q-5 0 -9 -2t-7 -5t-5 -7t-2 -9v-9v-224v-224q0 -13 9.5 -22.5t22.5 -9.5h224h224h9q10 0 16.5 6.5t6.5 16.5v9v223v225q0 13 -9.5 22.5t-22.5 9.5zM256 223v-223h-224v224h224v224h224v-225h-224z" />
    <glyph glyph-name="uniE0AA" unicode="&#xe0aa;" 
d="M256 480q-106 0 -181 -75t-75 -181t75 -181t181 -75t181 75t75 181t-75 181t-181 75zM322 224h-42v-154h-57v154h-39v53h39v31q0 35 13 52.5t49 17.5h42v-53h-26q-7 0 -11.5 -1.5t-6.5 -4.5t-2.5 -6t-0.5 -10v-26h48z" />
    <glyph glyph-name="uniE0AB" unicode="&#xe0ab;" 
d="M256 480q-106 0 -181 -75t-75 -181t75 -181t181 -75t181 75t75 181t-75 181t-181 75zM383 281q1 -4 1 -8q0 -68 -49 -123.5t-131 -55.5q-52 0 -96 28h3h4t4 -0.5t4 -0.5q43 0 78 27q-21 1 -37 13t-22 31l12 -1h4t4 0.5t4.5 1t4.5 0.5q-9 2 -17 6t-14 10t-10.5 13t-7 15.5
t-2.5 17.5v1q13 -8 29 -8q-29 19 -29 52q0 9 2.5 17t6.5 15q50 -62 130 -66q-2 8 -2 15q0 12 5 24t13.5 20.5t20 13.5t24.5 5q28 0 46 -20q22 4 40 15q-7 -23 -27 -35q2 0 4 0.5l4 1l4 1l4 1l4 1l4 1t4 1.5t4 1.5t4 1.5q-13 -19 -32 -33z" />
    <glyph glyph-name="uniE0AC" unicode="&#xe0ac;" 
d="M256 480q-106 0 -181 -75t-75 -181t75 -181t181 -75t181 75t75 181t-75 181t-181 75zM276 155q-7 0 -12.5 2t-9 4.5t-10 6.5t-9.5 6q-8 -39 -18 -64t-29 -40q-3 14 -2.5 31t2 29t5 27t6 25.5t6.5 25t6 25.5q-6 11 -6 26.5t5 28t16 19t24 1.5t14 -18.5t-4 -29t-10 -31.5
t-1.5 -28t19.5 -15q17 -3 31.5 6.5t22 27.5t10.5 38t-1.5 39.5t-15.5 30.5q-13 13 -30 18t-33.5 3t-32.5 -10.5t-27.5 -21t-17 -30t-2.5 -36.5q1 -7 6.5 -16t6.5 -14.5t-5 -20.5q-46 10 -43 71q1 42 32 71.5t72 34.5q50 5 88.5 -18t44.5 -67q8 -54 -20.5 -97.5t-77.5 -39.5z
" />
    <glyph glyph-name="uniE0AD" unicode="&#xe0ad;" 
d="M256 480q-106 0 -181 -75t-75 -181t75 -181t181 -75t181 75t75 181t-75 181t-181 75zM185 52q-44 0 -74.5 16.5t-30.5 43.5q0 28 29.5 50.5t70.5 22.5h6h6.5h5.5q-14 14 -14 29q0 9 5 19q-4 -1 -9 -1q-9 0 -17 1.5t-15 4.5t-13 7t-11 9t-9 11t-7 12.5t-4.5 14t-1.5 14.5
q0 30 27 52.5t62 22.5h102l-23 -16h-32q15 -6 24 -22.5t9 -36.5q0 -31 -29 -53q-12 -10 -16 -15.5t-4 -14.5q0 -12 27 -31q35 -29 36 -67q0 -19 -11.5 -35.5t-34.5 -27t-54 -10.5zM448 255h-64v-63h-32v63h-64v33h64v64h32v-64h64v-33zM217 172q-13 4 -26 4q-29 0 -51.5 -16
t-22.5 -37q0 -23 19 -39t48 -16q75 0 75 53q0 5 -2 11q0 3 -1.5 6t-4.5 6.5t-5 5.5t-6 5t-6.5 5t-8.5 6t-8 6zM234 304q-2 17 -10.5 31.5t-20.5 22.5t-25 9q-20 0 -31.5 -17.5t-7.5 -42.5q1 -11 5 -20.5t9 -17t12 -13.5t14.5 -9.5t15.5 -3.5q19 -1 30.5 17t8.5 44z" />
    <glyph glyph-name="uniE0AE" unicode="&#xe0ae;" 
d="M256 480q-106 0 -181 -75t-75 -181t75 -181t181 -75t181 75t75 181t-75 181t-181 75zM352 243h-77v-70q0 -29 2 -33q1 -4 4.5 -7.5t7.5 -5.5q10 -7 23 -7q21 0 40 13v-47q-17 -8 -35 -12q-16 -4 -35 -4q-10 0 -17 1.5t-16 4.5q-16 5 -27.5 15t-16 21t-4.5 32v108h-41v43
q23 8 34 17q2 1 3.5 2.5l3 3t3 3.5t2.5 3.5t2.5 3t2.5 3.5l2 4t2 3q2 4 3.5 8.5t3 9.5t2.5 10.5t2 11.5h49v-77h77v-58z" />
    <glyph glyph-name="uniE0AF" unicode="&#xe0af;" 
d="M256 480q-106 0 -181 -75t-75 -181t75 -181t181 -75t181 75t75 181t-75 181t-181 75zM256 293q-9 0 -16 -7t-7 -16v-92q0 -28 -20 -48t-48.5 -20t-48.5 20t-20 48v46h46v-46q0 -9 6.5 -16t16 -7t16 7t6.5 16v92q0 28 20.5 48t48.5 20q18 0 34 -9t25.5 -23.5t9.5 -30.5
v-22l-30 -9l-16 9v22q0 2 -1 4t-2.5 4t-3.5 3.5t-4.5 3t-5.5 2.5t-6 1zM416 178q0 -28 -20 -48t-49 -20q-28 0 -48 21t-20 52v45l16 -9l30 9v-45q0 -13 6.5 -20.5t15.5 -7.5q10 0 16.5 7t6.5 16v46h46v-46z" />
    <glyph glyph-name="uniE0B0" unicode="&#xe0b0;" 
d="M256 480q-106 0 -181 -75t-75 -181t75 -181t181 -75t181 75t75 181t-75 181t-181 75zM37 224q0 45 19 87l104 -279q-18 8 -34.5 20t-30 26t-24.5 31t-18.5 35.5t-11.5 38.5t-4 41zM256 10q-16 0 -31.5 2.5t-30.5 6.5l66 186l67 -180q1 -1 2 -3q-17 -6 -35.5 -9t-37.5 -3z
M286 324q6 0 12.5 0.5t9.5 1.5h3q6 1 8 5.5t-0.5 8.5t-8.5 4q-4 0 -10.5 -0.5t-22 -1.5t-26.5 -1q-6 0 -14 0.5t-15.5 0.5t-14 0.5t-9.5 1.5h-4q-6 0 -8.5 -4t-0.5 -8.5t7 -5.5q11 -1 23 -2l34 -91l-48 -140l-79 231q5 0 11.5 0.5t9.5 1.5h4q9 1 8 9.5t-10 8.5
q-35 -3 -58 -3h-14q30 45 78 71t105 26q85 0 148 -56h-1h-2q-15 0 -26 -11.5t-11 -26.5q0 -16 19 -46q2 -3 3 -4q18 -31 18 -59q0 -17 -17 -69l-21 -72zM475 224q0 -58 -29.5 -107t-79.5 -78l67 189q17 41 17 77q0 11 -1 22q13 -24 19.5 -50t6.5 -53z" />
    <glyph glyph-name="uniE0B1" unicode="&#xe0b1;" 
d="M256 480q-106 0 -181 -75t-75 -181t75 -181t181 -75t181 75t75 181t-75 181t-181 75zM416 76q0 -5 -3.5 -8.5t-8.5 -3.5h-296q-5 0 -8.5 3.5t-3.5 8.5v296q0 5 3.5 8.5t8.5 3.5h296q5 0 8.5 -3.5t3.5 -8.5v-296zM192 224q0 -39 35 -57q14 -7 29 -7q39 0 57 35q7 14 7 29
q0 39 -35 57q-14 7 -29 7q-39 0 -57 -35q-7 -14 -7 -29zM320 352h64v-64h-64v64zM351 224q0 -39 -28 -67t-67 -28t-67 28t-28 67q0 6 2 16h-35v-144h256v144h-35q2 -10 2 -16z" />
    <glyph glyph-name="uniE0B2" unicode="&#xe0b2;" 
d="M316 205q9 -27 17 -55t10.5 -40.5t3.5 -21.5q19 13 33.5 29.5t24 37t13.5 43.5q-49 15 -102 7zM284 197q-26 -9 -48.5 -22.5t-36 -25.5t-24 -25.5t-14 -19t-5.5 -9.5q44 -35 100 -35q33 0 64 13q-10 60 -35 124h-1zM291 263q6 -12 11 -24l4 -8q22 4 52 1.5t42 -4t20 -3.5
q-1 58 -37 102q-3 -3 -8 -8.5t-16 -15.5t-29 -21t-39 -19zM267 222q5 2 7 2q-6 14 -13 28q-84 -25 -169 -23v-5q0 -63 42 -110q4 7 11.5 17t24.5 29t42.5 36t54.5 26zM247 277q-28 51 -61 95q-34 -16 -58 -46.5t-32 -68.5q72 -1 151 20zM364 346q-46 41 -108 41
q-20 0 -38 -4q33 -45 61 -96q26 10 47 24.5t28 22t10 12.5zM256 480q-106 0 -181 -75t-75 -181t75 -181t181 -75t181 75t75 181t-75 181t-181 75zM256 32q-79 0 -135.5 56.5t-56.5 135.5q0 39 15.5 74.5t41 61t61 41t74.5 15.5t74.5 -15.5t61 -41t41 -61t15.5 -74.5
q0 -79 -56.5 -135.5t-135.5 -56.5z" />
    <glyph glyph-name="uniE0B3" unicode="&#xe0b3;" 
d="M256 480q-106 0 -181 -75t-75 -181t75 -181t181 -75t181 75t75 181t-75 181t-181 75zM408 294q-5 -28 -18.5 -56t-30 -50t-36 -42t-33.5 -31.5t-24 -18.5q-11 -6 -21 -6t-18.5 5.5t-15 13t-10.5 15.5q-5 10 -26 79.5t-26 75.5q-5 4 -12.5 2t-14.5 -7l-7 -5l-13 16
q53 62 92 70q12 3 20.5 -3t13.5 -19t8 -25.5t5.5 -30.5t5.5 -27q15 -62 25 -62q13 0 42 56q15 25 2.5 41t-37.5 1q7 46 53 65q41 18 65 -6q17 -17 11 -51z" />
    <glyph glyph-name="uniE0B4" unicode="&#xe0b4;" 
d="M256 480q-106 0 -181 -75t-75 -181t75 -181t181 -75t181 75t75 181t-75 181t-181 75zM192 100h-64v224h64v-224zM162 338q-12 0 -21 8.5t-9 21t9 21.5t21 9t21 -9t9 -21q0 -8 -4 -15t-11 -11t-15 -4zM416 100h-64v138q0 14 -5.5 21t-19.5 7t-24 -7t-12 -14l-3 -7v-138
h-64v224h64v-21q28 21 64 21q7 0 14.5 -2t17 -7.5t16 -14.5t11.5 -25.5t5 -37.5v-137z" />
    <glyph glyph-name="uniE0B5" unicode="&#xe0b5;" 
d="M256 480q-106 0 -181 -75t-75 -181t75 -181t181 -75t181 75t75 181t-75 181t-181 75zM138 65q-17 0 -29.5 12t-12.5 29t12.5 29.5t29.5 12.5q11 0 21 -5.5t15.5 -15t5.5 -21.5q0 -8 -3.5 -16t-9 -13.5t-13 -8.5t-16.5 -3zM243 64q0 30 -11 56.5t-32 47.5q-43 43 -104 43
v60q86 0 146.5 -60.5t60.5 -146.5h-60zM349 64q0 105 -74 179.5t-178 74.5v60q129 0 221 -92t92 -222h-61z" />
    <glyph glyph-name="uniE0B6" unicode="&#xe0b6;" 
d="M256 480q-106 0 -181 -75t-75 -181t75 -181t181 -75t181 75t75 181t-75 181t-181 75zM274 183l-41 73q25 5 46 3l23 -36l55 13q-45 44 -133 28q-1 0 -3 -0.5l-2 -0.5l45 -82l-161 -45q-3 4 -5 8.5t-4 9.5q-15 45 20 85q20 23 54 36l-14 28q18 6 39 9l14 -27q3 1 5 1
q69 10 123 -2q65 -13 92 -44l4 -6l4 -6zM149 186l55 13l-25 51q-40 -21 -30 -64z" />
    <glyph glyph-name="uniE0B7" unicode="&#xe0b7;" 
d="M256 480q-106 0 -181 -75t-75 -181t75 -181t181 -75t181 75t75 181t-75 181t-181 75zM309 166q3 2 6.5 4t7 3t7.5 2t8 1q9 0 18 -4t15 -10.5t10 -15t4 -18.5q0 -13 -6.5 -23.5t-17.5 -17t-23 -6.5q-20 0 -34 14t-14 33l-120 59q-2 -2 -4 -3t-4 -1.5t-4 -1.5t-4.5 -1.5
t-5 -0.5h-4.5q-19 0 -33 14t-14 33.5t14 33.5t33 14q17 0 30 -11l116 57q0 13 6.5 23.5t17.5 17t24 6.5q19 0 33 -14t14 -33.5t-14 -33.5t-33 -14q-16 0 -29 10l-118 -57v-2z" />
    <glyph glyph-name="uniE0B8" unicode="&#xe0b8;" 
d="M256 480q-106 0 -181 -75t-75 -181t75 -181t181 -75t181 75t75 181t-75 181t-181 75zM265 352q1 3 2.5 5t2.5 4t2.5 4t3.5 4q7 7 16.5 11t20.5 4t20 -4q5 -2 9 -5l8 -6q2 -3 4 -5.5t4 -5.5t3 -6l2 -6t1.5 -6.5t0.5 -7.5q0 -11 -4 -20.5t-11 -16.5t-17 -11l-6 -2
t-6.5 -1.5t-7.5 -0.5q-11 0 -20 4q-10 5 -17 11q-1 2 -2.5 3.5t-2.5 3l-2 3t-2 3.5l-2 4q-4 9 -4 20t4 20zM184 361q6 5 13 8t15 3q17 -1 29 -11q11 -12 11 -29q0 -16 -11.5 -28t-28.5 -12q-16 0 -28 12t-12 28q0 17 12 29zM114 353q9 9 22 9q4 0 8 -1t7 -3t6 -5q9 -9 9 -21
q0 -13 -8.5 -22t-21.5 -9q-7 0 -12 2.5t-10 6.5q-9 9 -9 22q0 12 9 21zM384 64h-141v64h-88v64h-52v58q0 20 7 26q10 11 26 11q4 0 8 -1t8 -2.5t7 -4.5q9 -9 12 -20q4 5 8.5 8.5t10.5 5.5q10 5 22 5q9 0 17.5 -2.5t15.5 -8.5q14 -11 18 -28q3 3 7 6t7.5 5t8.5 4q6 3 13 4
t14 1q15 0 28 -5.5t22 -14.5l4 -4t3.5 -4.5t3 -4.5t2.5 -4.5t3 -5.5q1 -4 2.5 -8.5t2 -9t0.5 -9.5v-125z" />
    <glyph glyph-name="uniE0B9" unicode="&#xe0b9;" 
d="M256 480q-106 0 -181 -75t-75 -181t75 -181t181 -75t181 75t75 181t-75 181t-181 75zM325 73q-24 0 -44 12q-13 -2 -26 -2q-38 0 -70.5 18.5t-51.5 51t-19 70.5q0 11 2 22q-7 10 -10.5 22t-3.5 24q0 23 11.5 42.5t31 30.5t42.5 11q25 0 46 -13q3 0 7 0.5t7.5 1t7.5 0.5
q59 0 100 -41.5t41 -99.5q0 -9 -1 -19q7 -10 11 -22t4 -25q0 -23 -11.5 -42.5t-31 -30.5t-42.5 -11zM238 250q-30 7 -21 27q10 17 35 18q18 -1 37.5 -17.5t25.5 -15.5q13 1 16 14.5t-12 28.5q-32 27 -83 23q-25 -2 -42.5 -17.5t-19.5 -42.5q-3 -26 21 -42t55 -21
q24 -3 38.5 -13t0.5 -26q-9 -9 -23 -10.5t-24 1.5t-17 7q-3 2 -9 9t-13 12t-15 5q-9 -1 -14 -7.5t-3 -17t12 -20.5q31 -28 85 -25q35 2 58 27t12 52q-4 8 -8.5 14t-11.5 10.5t-13 8t-16 6.5t-16.5 4.5t-18 4t-16.5 3.5z" />
    <glyph glyph-name="uniE0BA" unicode="&#xe0ba;" 
d="M256 480q-106 0 -181 -75t-75 -181t75 -181t181 -75t181 75t75 181t-75 181t-181 75zM413 167q-1 -11 -6 -22.5t-14 -20t-20 -10.5q-36 -2 -76.5 -3t-80 0t-77.5 3q-16 2 -27.5 18.5t-12.5 34.5q-5 57 0 115q1 17 12.5 33.5t27.5 18.5q104 8 234 0q18 -1 28.5 -16
t11.5 -34q5 -58 0 -117zM224 160l96 64l-96 64v-128z" />
    <glyph glyph-name="uniE0BB" unicode="&#xe0bb;" 
d="M256 480q-106 0 -181 -75t-75 -181t75 -181t181 -75t181 75t75 181t-75 181t-181 75zM256 416q37 0 72 -14v-134l-137 137q32 11 65 11zM70 178q-3 11 -4.5 22.5t-1.5 23.5q0 36 12.5 68.5t35 58t52.5 41.5l60 -60zM160 58q-55 31 -80 90l80 80v-170zM256 32
q-19 0 -37 3.5t-35 10.5v82h238q-16 -29 -41.5 -50.5t-57.5 -33.5t-67 -12zM434 152h-82v238q29 -16 50.5 -41.5t33.5 -57.5t12 -67q0 -38 -14 -72z" />
    <glyph glyph-name="uniE0BC" unicode="&#xe0bc;" 
d="M256 480q-106 0 -181 -75t-75 -181t75 -181t181 -75t181 75t75 181t-75 181t-181 75zM305 352l85 -147h-99l-84 147h98zM108 181l85 147l49 -86l-85 -146zM355 96h-164l50 85h163z" />
    <glyph glyph-name="uniE0BD" unicode="&#xe0bd;" 
d="M256 480q-106 0 -181 -75t-75 -181t75 -181t181 -75t181 75t75 181t-75 181t-181 75zM162 160q-27 0 -46 19t-19 46t19 46t46 19q13 0 25 -5.5t20.5 -14t14 -20.5t5.5 -25q0 -27 -19 -46t-46 -19zM351 160q-18 0 -33 8.5t-23.5 23.5t-8.5 33q0 10 3.5 20t9.5 18t13.5 14
t17.5 9.5t21 3.5q18 0 32.5 -9t23.5 -24t9 -32.5t-9 -32.5t-23.5 -23.5t-32.5 -8.5z" />
    <glyph glyph-name="uniE0BE" unicode="&#xe0be;" 
d="M316 184h-120q-5 0 -9.5 -2.5t-7.5 -7t-3 -10.5q0 -8 6 -14t14 -6h120q5 0 9.5 3t7.5 7.5t3 9.5q0 8 -6 14t-14 6zM196 264h60q5 0 10 2.5t7.5 7t2.5 10.5q0 8 -6 14t-14 6h-60q-8 0 -14 -6t-6 -14t6 -14t14 -6zM256 480q-106 0 -181 -75t-75 -181t75 -181t181 -75
t181 75t75 181t-75 181t-181 75zM416 167q0 -42 -30.5 -72.5t-73.5 -30.5h-112q-43 0 -73.5 30.5t-30.5 72.5v114q0 42 30.5 72.5t73.5 30.5h53q43 0 73 -29t30 -71q0 -5 3 -10t8 -7.5t10 -2.5h18q8 0 14.5 -7.5t6.5 -15.5v-74z" />
    <glyph glyph-name="uniE0BF" unicode="&#xe0bf;" 
d="M226 315q-45 0 -88 -11q-7 -2 -10.5 -9t-1.5 -14q1 -5 4 -8t7.5 -4.5t9.5 -0.5q39 10 79 10q77 0 145 -34q4 -2 8 -2q10 0 16 11q3 7 1 14t-9 10q-38 19 -78.5 28.5t-82.5 9.5zM226 166q-18 0 -35.5 -2.5t-34.5 -8.5q-5 -1 -7.5 -9.5t-1.5 -13.5q4 -13 17 -9q30 9 62 9
q54 0 101 -26q3 -1 6 -1q2 0 3.5 0.5l3 1t3 2l2.5 2.5q1 3 1.5 6.5t-0.5 7.5t-2.5 7.5t-3.5 4.5q-26 14 -55 21.5t-59 7.5zM363 205q-65 33 -137 33q-40 0 -78 -11q-2 0 -4 -1.5t-3.5 -3.5t-2.5 -4.5t-1.5 -5t-0.5 -5t1 -4.5q1 -6 7 -9.5t12 -1.5q17 5 34.5 7.5t35.5 2.5
q65 0 122 -30q4 -2 7 -2q7 0 14 14q3 5 1 11.5t-7 9.5zM256 480q-106 0 -181 -75t-75 -181t75 -181t181 -75t181 75t75 181t-75 181t-181 75zM256 32q-80 0 -136 56t-56 136t56 136t136 56t136 -56t56 -136t-56 -136t-136 -56z" />
    <glyph glyph-name="uniE0C0" unicode="&#xe0c0;" 
d="M256 480q-106 0 -181 -75t-75 -181t75 -181t181 -75t181 75t75 181t-75 181t-181 75zM416 224v-144v-5q0 -4 -3.5 -7.5t-7.5 -3.5h-5h-144h-144q-7 0 -11.5 4.5t-4.5 11.5v144v144v5q0 4 3.5 7.5t7.5 3.5h5h144h144q7 0 11.5 -4.5t4.5 -11.5v-144zM128 224h128v-128h-128
v128zM256 352h128v-128h-128v128z" />
    <glyph glyph-name="uniE0C1" unicode="&#xe0c1;" 
d="M416 480h-320q-40 0 -68 -28t-28 -68v-320q0 -40 28 -68t68 -28h320q40 0 68 28t28 68v320q0 40 -28 68t-68 28zM322 224h-42v-154h-57v154h-39v53h39v31q0 35 13 52.5t49 17.5h42v-53h-26q-7 0 -11.5 -1.5t-6.5 -4.5t-2.5 -6t-0.5 -10v-26h48z" />
    <glyph glyph-name="uniE0C2" unicode="&#xe0c2;" 
d="M416 480h-320q-40 0 -68 -28t-28 -68v-320q0 -40 28 -68t68 -28h320q40 0 68 28t28 68v320q0 40 -28 68t-68 28zM383 281q1 -4 1 -8q0 -68 -49 -123.5t-131 -55.5q-52 0 -96 28h3h4t4 -0.5t4 -0.5q43 0 78 27q-21 1 -37 13t-22 31l12 -1h4t4 0.5t4.5 1t4.5 0.5
q-9 2 -17 6t-14 10t-10.5 13t-7 15.5t-2.5 17.5v1q13 -8 29 -8q-29 19 -29 52q0 9 2.5 17t6.5 15q50 -62 130 -66q-2 8 -2 15q0 12 5 24t13.5 20.5t20 13.5t24.5 5q28 0 46 -20q22 4 40 15q-7 -23 -27 -35q2 0 4 0.5l4 1l4 1l4 1l4 1l4 1t4 1.5t4 1.5t4 1.5q-13 -19 -32 -33
z" />
    <glyph glyph-name="uniE0C3" unicode="&#xe0c3;" 
d="M416 480h-320q-40 0 -68 -28t-28 -68v-320q0 -40 28 -68t68 -28h320q40 0 68 28t28 68v320q0 40 -28 68t-68 28zM276 155q-7 0 -12.5 2t-9 4.5t-10 6.5t-9.5 6q-8 -39 -18 -64t-29 -40q-3 14 -2.5 31t2 29t5 27t6 25.5t6.5 25t6 25.5q-6 11 -6 26.5t5 28t16 19t24 1.5
t14 -18.5t-4 -29t-10 -31.5t-1.5 -28t19.5 -15q17 -3 31.5 6.5t22 27.5t10.5 38t-1.5 39.5t-15.5 30.5q-13 13 -30 18t-33.5 3t-32.5 -10.5t-27.5 -21t-17 -30t-2.5 -36.5q1 -7 6.5 -16t6.5 -14.5t-5 -20.5q-46 10 -43 71q1 42 32 71.5t72 34.5q50 5 88.5 -18t44.5 -67
q8 -54 -20.5 -97.5t-77.5 -39.5z" />
    <glyph glyph-name="uniE0C4" unicode="&#xe0c4;" 
d="M416 480h-320q-40 0 -68 -28t-28 -68v-320q0 -40 28 -68t68 -28h320q40 0 68 28t28 68v320q0 40 -28 68t-68 28zM185 52q-44 0 -74.5 16.5t-30.5 43.5q0 28 29.5 50.5t70.5 22.5h6h6.5h5.5q-14 14 -14 29q0 9 5 19q-4 -1 -9 -1q-9 0 -17 1.5t-15 4.5t-13 7t-11 9t-9 11
t-7 12.5t-4.5 14t-1.5 14.5q0 30 27 52.5t62 22.5h102l-23 -16h-32q15 -6 24 -22.5t9 -36.5q0 -31 -29 -53q-12 -10 -16 -15.5t-4 -14.5q0 -12 27 -31q35 -29 36 -67q0 -19 -11.5 -35.5t-34.5 -27t-54 -10.5zM448 255h-64v-63h-32v63h-64v33h64v64h32v-64h64v-33zM234 304
q-2 17 -10.5 31.5t-20.5 22.5t-25 9q-20 0 -31.5 -17.5t-7.5 -42.5q1 -11 5 -20.5t9 -17t12 -13.5t14.5 -9.5t15.5 -3.5q19 -1 30.5 17t8.5 44zM217 172q-13 4 -26 4q-29 0 -51.5 -16t-22.5 -37q0 -23 19 -39t48 -16q75 0 75 53q0 5 -2 11q0 3 -1.5 6t-4.5 6.5t-5 5.5t-6 5
t-6.5 5t-8.5 6t-8 6z" />
    <glyph glyph-name="uniE0C5" unicode="&#xe0c5;" 
d="M416 480h-320q-40 0 -68 -28t-28 -68v-320q0 -40 28 -68t68 -28h320q40 0 68 28t28 68v320q0 40 -28 68t-68 28zM352 243h-77v-70q0 -29 2 -33q1 -4 4.5 -7.5t7.5 -5.5q10 -7 23 -7q21 0 40 13v-47q-17 -8 -35 -12q-16 -4 -35 -4q-10 0 -17 1.5t-16 4.5q-16 5 -27.5 15
t-16 21t-4.5 32v108h-41v43q23 8 34 17q2 1 3.5 2.5l3 3t3 3.5t2.5 3.5t2.5 3t2.5 3.5l2 4t2 3q2 4 3.5 8.5t3 9.5t2.5 10.5t2 11.5h49v-77h77v-58z" />
    <glyph glyph-name="uniE0C6" unicode="&#xe0c6;" 
d="M416 480h-320q-40 0 -68 -28t-28 -68v-320q0 -40 28 -68t68 -28h320q40 0 68 28t28 68v320q0 40 -28 68t-68 28zM256 293q-9 0 -16 -7t-7 -16v-92q0 -28 -20 -48t-48.5 -20t-48.5 20t-20 48v46h46v-46q0 -9 6.5 -16t16 -7t16 7t6.5 16v92q0 28 20.5 48t48.5 20
q18 0 34 -9t25.5 -23.5t9.5 -30.5v-22l-30 -9l-16 9v22q0 2 -1 4t-2.5 4t-3.5 3.5t-4.5 3t-5.5 2.5t-6 1zM416 178q0 -28 -20 -48t-49 -20q-28 0 -48 21t-20 52v45l16 -9l30 9v-45q0 -13 6.5 -20.5t15.5 -7.5q10 0 16.5 7t6.5 16v46h46v-46z" />
    <glyph glyph-name="uniE0C7" unicode="&#xe0c7;" 
d="M416 480h-320q-40 0 -68 -28t-28 -68v-320q0 -40 28 -68t68 -28h320q40 0 68 28t28 68v320q0 40 -28 68t-68 28zM59 224q0 41 17 78l94 -251q-76 36 -102 114q-9 29 -9 59zM256 32q-28 0 -56 8l62 161l58 -155q0 -1 0.5 -1.5t0.5 -1.5q-15 -5 -31.5 -8t-33.5 -3zM283 314
q3 0 7 0.5t6.5 0.5t4.5 0.5t3 0.5h2q3 0 5 3t2 5.5t-2.5 5t-6.5 2.5q-32 -3 -52 -3l-52 3q-5 0 -7.5 -4t-0.5 -8t7 -4q1 0 3 -0.5t7.5 -1t9.5 -0.5l31 -82l-47 -126l-68 208l23 2q8 1 7 8.5t-8 7.5q-32 -3 -53 -3h-13q18 27 43 46t56.5 30t65.5 11q77 0 133 -50h-1h-1
q-8 0 -14 -3t-10.5 -7.5t-7 -11t-2.5 -12.5q0 -8 3.5 -16.5t6 -12.5t10.5 -16q13 -22 13 -44q0 -15 -15 -62l-20 -64zM355 58l60 170q15 36 15 68q0 11 -1 20q24 -43 24 -92q0 -52 -26.5 -96.5t-71.5 -69.5z" />
    <glyph glyph-name="uniE0C8" unicode="&#xe0c8;" 
d="M416 480h-320q-40 0 -68 -28t-28 -68v-320q0 -40 28 -68t68 -28h320q40 0 68 28t28 68v320q0 40 -28 68t-68 28zM416 76q0 -5 -3.5 -8.5t-8.5 -3.5h-296q-5 0 -8.5 3.5t-3.5 8.5v296q0 5 3.5 8.5t8.5 3.5h296q5 0 8.5 -3.5t3.5 -8.5v-296zM320 352h64v-64h-64v64z
M192 224q0 -39 35 -57q14 -7 29 -7q39 0 57 35q7 14 7 29q0 39 -35 57q-14 7 -29 7q-39 0 -57 -35q-7 -14 -7 -29zM351 224q0 -39 -28 -67t-67 -28t-67 28t-28 67q0 6 2 16h-35v-144h256v144h-35q2 -10 2 -16z" />
    <glyph glyph-name="uniE0C9" unicode="&#xe0c9;" 
d="M247 277q-28 51 -61 95q-34 -16 -58 -46.5t-32 -68.5q72 -1 151 20zM416 480h-320q-40 0 -68 -28t-28 -68v-320q0 -40 28 -68t68 -28h320q40 0 68 28t28 68v320q0 40 -28 68t-68 28zM256 32q-79 0 -135.5 56.5t-56.5 135.5q0 39 15.5 74.5t41 61t61 41t74.5 15.5
t74.5 -15.5t61 -41t41 -61t15.5 -74.5q0 -79 -56.5 -135.5t-135.5 -56.5zM267 222q5 2 7 2q-6 14 -13 28q-84 -25 -169 -23v-5q0 -63 42 -110q4 7 11.5 17t24.5 29t42.5 36t54.5 26zM291 263q6 -12 11 -24l4 -8q22 4 52 1.5t42 -4t20 -3.5q-1 58 -37 102q-3 -3 -8 -8.5
t-16 -15.5t-29 -21t-39 -19zM284 197q-26 -9 -48.5 -22.5t-36 -25.5t-24 -25.5t-14 -19t-5.5 -9.5q44 -35 100 -35q33 0 64 13q-10 60 -35 124h-1zM364 346q-46 41 -108 41q-20 0 -38 -4q33 -45 61 -96q26 10 47 24.5t28 22t10 12.5zM316 205q9 -27 17 -55t10.5 -40.5
t3.5 -21.5q19 13 33.5 29.5t24 37t13.5 43.5q-49 15 -102 7z" />
    <glyph glyph-name="uniE0CA" unicode="&#xe0ca;" 
d="M416 480h-320q-40 0 -68 -28t-28 -68v-320q0 -40 28 -68t68 -28h320q40 0 68 28t28 68v320q0 40 -28 68t-68 28zM408 294q-5 -28 -18.5 -56t-30 -50t-36 -42t-33.5 -31.5t-24 -18.5q-11 -6 -21 -6t-18.5 5.5t-15 13t-10.5 15.5q-5 10 -26 79.5t-26 75.5q-5 4 -12.5 2
t-14.5 -7l-7 -5l-13 16q53 62 92 70q12 3 20.5 -3t13.5 -19t8 -25.5t5.5 -30.5t5.5 -27q15 -62 25 -62q13 0 42 56q15 25 2.5 41t-37.5 1q7 46 53 65q41 18 65 -6q17 -17 11 -51z" />
    <glyph glyph-name="uniE0CB" unicode="&#xe0cb;" 
d="M416 480h-320q-40 0 -68 -28t-28 -68v-320q0 -40 28 -68t68 -28h320q40 0 68 28t28 68v320q0 40 -28 68t-68 28zM192 100h-64v224h64v-224zM162 338q-12 0 -21 8.5t-9 21t9 21.5t21 9t21 -9t9 -21q0 -8 -4 -15t-11 -11t-15 -4zM416 100h-64v138q0 14 -5.5 21t-19.5 7
t-24 -7t-12 -14l-3 -7v-138h-64v224h64v-21q28 21 64 21q7 0 14.5 -2t17 -7.5t16 -14.5t11.5 -25.5t5 -37.5v-137z" />
    <glyph glyph-name="uniE0CC" unicode="&#xe0cc;" 
d="M416 480h-320q-40 0 -68 -28t-28 -68v-320q0 -40 28 -68t68 -28h320q40 0 68 28t28 68v320q0 40 -28 68t-68 28zM138 65q-17 0 -29.5 12t-12.5 29t12.5 29.5t29.5 12.5q11 0 21 -5.5t15.5 -15t5.5 -21.5q0 -8 -3.5 -16t-9 -13.5t-13 -8.5t-16.5 -3zM243 64q0 30 -11 56.5
t-32 47.5q-43 43 -104 43v60q86 0 146.5 -60.5t60.5 -146.5h-60zM349 64q0 105 -74 179.5t-178 74.5v60q129 0 221 -92t92 -222h-61z" />
    <glyph glyph-name="uniE0CD" unicode="&#xe0cd;" 
d="M416 480h-320q-40 0 -68 -28t-28 -68v-320q0 -40 28 -68t68 -28h320q40 0 68 28t28 68v320q0 40 -28 68t-68 28zM274 183l-41 73q25 5 46 3l23 -36l55 13q-45 44 -133 28q-1 0 -3 -0.5l-2 -0.5l45 -82l-161 -45q-3 4 -5 8.5t-4 9.5q-15 45 20 85q20 23 54 36l-14 28
q18 6 39 9l14 -27q3 1 5 1q69 10 123 -2q65 -13 92 -44l4 -6l4 -6zM149 186l55 13l-25 51q-40 -21 -30 -64z" />
    <glyph glyph-name="uniE0CE" unicode="&#xe0ce;" 
d="M416 480h-320q-40 0 -68 -28t-28 -68v-320q0 -40 28 -68t68 -28h320q40 0 68 28t28 68v320q0 40 -28 68t-68 28zM309 166q3 2 6.5 4t7 3t7.5 2t8 1q9 0 18 -4t15 -10.5t10 -15t4 -18.5q0 -13 -6.5 -23.5t-17.5 -17t-23 -6.5q-20 0 -34 14t-14 33l-120 59q-2 -2 -4 -3
t-4 -1.5t-4 -1.5t-4.5 -1.5t-5 -0.5h-4.5q-19 0 -33 14t-14 33.5t14 33.5t33 14q17 0 30 -11l116 57q0 13 6.5 23.5t17.5 17t24 6.5q19 0 33 -14t14 -33.5t-14 -33.5t-33 -14q-16 0 -29 10l-118 -57v-2z" />
    <glyph glyph-name="uniE0CF" unicode="&#xe0cf;" 
d="M416 480h-320q-40 0 -68 -28t-28 -68v-320q0 -40 28 -68t68 -28h320q40 0 68 28t28 68v320q0 40 -28 68t-68 28zM265 352q1 3 2.5 5t2.5 4t2.5 4t3.5 4q7 7 16.5 11t20.5 4t20 -4q5 -2 9 -5l8 -6q2 -3 4 -5.5t4 -5.5t3 -6l2 -6t1.5 -6.5t0.5 -7.5q0 -11 -4 -20.5
t-11 -16.5t-17 -11l-6 -2t-6.5 -1.5t-7.5 -0.5q-11 0 -20 4q-10 5 -17 11q-1 2 -2.5 3.5t-2.5 3l-2 3t-2 3.5l-2 4q-4 9 -4 20t4 20zM184 361q6 5 13 8t15 3q17 -1 29 -11q11 -12 11 -29q0 -16 -11.5 -28t-28.5 -12q-16 0 -28 12t-12 28q0 17 12 29zM114 353q9 9 22 9
q4 0 8 -1t7 -3t6 -5q9 -9 9 -21q0 -13 -8.5 -22t-21.5 -9q-7 0 -12 2.5t-10 6.5q-9 9 -9 22q0 12 9 21zM384 64h-141v64h-88v64h-52v58q0 20 7 26q10 11 26 11q4 0 8 -1t8 -2.5t7 -4.5q9 -9 12 -20q4 5 8.5 8.5t10.5 5.5q10 5 22 5q9 0 17.5 -2.5t15.5 -8.5q14 -11 18 -28
q3 3 7 6t7.5 5t8.5 4q6 3 13 4t14 1q15 0 28 -5.5t22 -14.5l4 -4t3.5 -4.5t3 -4.5t2.5 -4.5t3 -5.5q1 -4 2.5 -8.5t2 -9t0.5 -9.5v-125z" />
    <glyph glyph-name="uniE0D0" unicode="&#xe0d0;" 
d="M416 480h-320q-40 0 -68 -28t-28 -68v-320q0 -40 28 -68t68 -28h320q40 0 68 28t28 68v320q0 40 -28 68t-68 28zM325 73q-24 0 -44 12q-13 -2 -26 -2q-38 0 -70.5 18.5t-51.5 51t-19 70.5q0 11 2 22q-7 10 -10.5 22t-3.5 24q0 23 11.5 42.5t31 30.5t42.5 11q25 0 46 -13
q3 0 7 0.5t7.5 1t7.5 0.5q59 0 100 -41.5t41 -99.5q0 -9 -1 -19q7 -10 11 -22t4 -25q0 -23 -11.5 -42.5t-31 -30.5t-42.5 -11zM238 250q-30 7 -21 27q10 17 35 18q18 -1 37.5 -17.5t25.5 -15.5q13 1 16 14.5t-12 28.5q-32 27 -83 23q-25 -2 -42.5 -17.5t-19.5 -42.5
q-3 -26 21 -42t55 -21q24 -3 38.5 -13t0.5 -26q-9 -9 -23 -10.5t-24 1.5t-17 7q-3 2 -9 9t-13 12t-15 5q-9 -1 -14 -7.5t-3 -17t12 -20.5q31 -28 85 -25q35 2 58 27t12 52q-4 8 -8.5 14t-11.5 10.5t-13 8t-16 6.5t-16.5 4.5t-18 4t-16.5 3.5z" />
    <glyph glyph-name="uniE0D1" unicode="&#xe0d1;" 
d="M224 160l96 64l-96 64v-128zM416 480h-320q-40 0 -68 -28t-28 -68v-320q0 -40 28 -68t68 -28h320q40 0 68 28t28 68v320q0 40 -28 68t-68 28zM413 167q-1 -11 -6 -22.5t-14 -20t-20 -10.5q-36 -2 -76.5 -3t-80 0t-77.5 3q-16 2 -27.5 18.5t-12.5 34.5q-5 57 0 115
q1 17 12.5 33.5t27.5 18.5q104 8 234 0q18 -1 28.5 -16t11.5 -34q5 -58 0 -117z" />
    <glyph glyph-name="uniE0D2" unicode="&#xe0d2;" 
d="M416 480h-320q-40 0 -68 -28t-28 -68v-320q0 -40 28 -68t68 -28h320q40 0 68 28t28 68v320q0 40 -28 68t-68 28zM256 416q37 0 72 -14v-134l-137 137q32 11 65 11zM64 224q0 36 12.5 68.5t35 58t52.5 41.5l60 -60l-154 -154q-2 7 -3.5 14.5t-2 15.5t-0.5 16zM160 58
q-55 31 -80 90l80 80v-170zM256 32q-19 0 -37 3.5t-35 10.5v82h238q-16 -29 -41.5 -50.5t-57.5 -33.5t-67 -12zM434 152h-82v238q29 -16 50.5 -41.5t33.5 -57.5t12 -67q0 -38 -14 -72z" />
    <glyph glyph-name="uniE0D3" unicode="&#xe0d3;" 
d="M416 480h-320q-40 0 -68 -28t-28 -68v-320q0 -40 28 -68t68 -28h320q40 0 68 28t28 68v320q0 40 -28 68t-68 28zM305 352l85 -147h-99l-84 147h98zM108 181l85 147l49 -86l-85 -146zM355 96h-164l50 85h163z" />
    <glyph glyph-name="uniE0D4" unicode="&#xe0d4;" 
d="M416 480h-320q-40 0 -68 -28t-28 -68v-320q0 -40 28 -68t68 -28h320q40 0 68 28t28 68v320q0 40 -28 68t-68 28zM162 160q-27 0 -46 19t-19 46t19 46t46 19q13 0 25 -5.5t20.5 -14t14 -20.5t5.5 -25q0 -27 -19 -46t-46 -19zM351 160q-18 0 -33 8.5t-23.5 23.5t-8.5 33
q0 10 3.5 20t9.5 18t13.5 14t17.5 9.5t21 3.5q18 0 32.5 -9t23.5 -24t9 -32.5t-9 -32.5t-23.5 -23.5t-32.5 -8.5z" />
    <glyph glyph-name="uniE0D5" unicode="&#xe0d5;" 
d="M416 480h-320q-40 0 -68 -28t-28 -68v-320q0 -40 28 -68t68 -28h320q40 0 68 28t28 68v320q0 40 -28 68t-68 28zM416 167q0 -42 -30.5 -72.5t-73.5 -30.5h-112q-43 0 -73.5 30.5t-30.5 72.5v114q0 42 30.5 72.5t73.5 30.5h53q43 0 73 -29t30 -71q0 -5 3 -10t8 -7.5
t10 -2.5h18q8 0 14.5 -7.5t6.5 -15.5v-74zM316 184h-120q-5 0 -9.5 -2.5t-7.5 -7t-3 -10.5q0 -8 6 -14t14 -6h120q5 0 9.5 3t7.5 7.5t3 9.5q0 8 -6 14t-14 6zM196 264h60q5 0 10 2.5t7.5 7t2.5 10.5q0 8 -6 14t-14 6h-60q-8 0 -14 -6t-6 -14t6 -14t14 -6z" />
    <glyph glyph-name="uniE0D6" unicode="&#xe0d6;" 
d="M363 205q-65 33 -137 33q-40 0 -78 -11q-2 0 -4 -1.5t-3.5 -3.5t-2.5 -4.5t-1.5 -5t-0.5 -5t1 -4.5q1 -6 7 -9.5t12 -1.5q17 5 34.5 7.5t35.5 2.5q65 0 122 -30q4 -2 7 -2q7 0 14 14q3 5 1 11.5t-7 9.5zM416 480h-320q-40 0 -68 -28t-28 -68v-320q0 -40 28 -68t68 -28
h320q40 0 68 28t28 68v320q0 40 -28 68t-68 28zM256 32q-80 0 -136 56t-56 136t56 136t136 56t136 -56t56 -136t-56 -136t-136 -56zM226 315q-45 0 -88 -11q-7 -2 -10.5 -9t-1.5 -14q1 -5 4 -8t7.5 -4.5t9.5 -0.5q39 10 79 10q77 0 145 -34q4 -2 8 -2q10 0 16 11q3 7 1 14
t-9 10q-38 19 -78.5 28.5t-82.5 9.5zM226 166q-18 0 -35.5 -2.5t-34.5 -8.5q-5 -1 -7.5 -9.5t-1.5 -13.5q4 -13 17 -9q30 9 62 9q54 0 101 -26q3 -1 6 -1q2 0 3.5 0.5l3 1t3 2l2.5 2.5q1 3 1.5 6.5t-0.5 7.5t-2.5 7.5t-3.5 4.5q-26 14 -55 21.5t-59 7.5z" />
    <glyph glyph-name="uniE0D7" unicode="&#xe0d7;" 
d="M256 352h128v-128h-128v128zM416 480h-320q-40 0 -68 -28t-28 -68v-320q0 -40 28 -68t68 -28h320q40 0 68 28t28 68v320q0 40 -28 68t-68 28zM416 224v-144v-5q0 -4 -3.5 -7.5t-7.5 -3.5h-5h-144h-144q-7 0 -11.5 4.5t-4.5 11.5v144v144v5q0 4 3.5 7.5t7.5 3.5h5h144h144
q7 0 11.5 -4.5t4.5 -11.5v-144zM128 224h128v-128h-128v128z" />
    <glyph glyph-name="uniE0D8" unicode="&#xe0d8;" 
d="M352 96v96q0 13 9.5 22.5t22.5 9.5h96v64q0 13 -9.5 22.5t-22.5 9.5h-37l-15 93q-1 6 -6.5 10t-12.5 3l-316 -58q-7 -1 -10.5 -7t-2.5 -12l6 -29h-22q-13 0 -22.5 -9.5t-9.5 -22.5v-288q0 -13 9.5 -22.5t22.5 -9.5h416q13 0 22.5 9.5t9.5 22.5v64h-96q-13 0 -22.5 9.5
t-9.5 22.5zM83 339l284 52l12 -71h-292zM496 192h-112v-96h112q7 0 11.5 4.5t4.5 11.5v64q0 7 -4.5 11.5t-11.5 4.5zM432 128q-7 0 -11.5 4.5t-4.5 11.5t4.5 11.5t11.5 4.5t11.5 -4.5t4.5 -11.5t-4.5 -11.5t-11.5 -4.5z" />
    <glyph glyph-name="uniE0D9" unicode="&#xe0d9;" 
d="M247 -31q5 -1 9 -1h2.5t3 0.5t3.5 0.5q41 12 75 32.5t56.5 45.5t40 54.5t26 59.5t14.5 60t5 55.5t-2 47.5q-2 12 -11 20t-21 8q-2 0 -5 1t-8 5t-9 10t-7 18.5t-3 29.5q0 13 -9 23q-7 7 -19 14t-48.5 17t-83.5 10t-83.5 -10t-48.5 -17t-19 -14q-9 -10 -9 -23
q0 -17 -3 -29.5t-7 -18.5t-9 -10t-8 -5t-6 -1q-8 0 -14.5 -3.5t-11 -10t-5.5 -14.5q-5 -24 -2 -56.5t8.5 -66.5t22.5 -70t40 -66.5t61 -56t85 -39.5zM64 320q3 0 7 0.5t15 6t19.5 14.5t15.5 28.5t7 46.5q4 4 12 9t40.5 14t75.5 9v-224h188q-5 -34 -16 -64t-32 -62.5
t-56.5 -58t-83.5 -39.5v224h-188q-4 24 -5 48t0 36z" />
    <glyph glyph-name="uniE0DA" unicode="&#xe0da;" 
d="M160 305q0 -7 5 -12t12 -5q3 0 6.5 1.5t5.5 3.5t3.5 5.5t1.5 6.5q-3 14 -17 17q-3 0 -6.5 -1.5t-5.5 -3.5t-3.5 -5.5t-1.5 -6.5zM256 480q-106 0 -181 -75t-75 -181t75 -181t181 -75t181 75t75 181t-75 181t-181 75zM128 305q0 20 14.5 34.5t34.5 14.5t34.5 -14.5
t14.5 -34.5t-14.5 -34.5t-34.5 -14.5q-10 0 -19 4t-15.5 10.5t-10.5 15.5t-4 19zM171 117q-2 -3 -5 -4t-6 -1q-7 0 -11 5q-12 11 0 22l192 192q11 12 22.5 0.5t-0.5 -22.5zM335 96q-20 0 -34.5 14.5t-14.5 34.5t14.5 34.5t34.5 14.5t34.5 -14.5t14.5 -34.5q0 -10 -4 -19
t-10.5 -15.5t-15.5 -10.5t-19 -4zM318 145q0 -3 1.5 -6.5t3.5 -5.5t5.5 -3.5t6.5 -1.5q14 0 17 14v3q-3 14 -17 17q-7 0 -12 -5t-5 -12z" />
    <glyph glyph-name="uniE0DB" unicode="&#xe0db;" 
d="M64 416v-32v-256l5 -12l59 -148l64 160v0v256v32q0 27 -18.5 45.5t-45.5 18.5t-45.5 -18.5t-18.5 -45.5zM96 416q0 13 9.5 22.5t22.5 9.5t22.5 -9.5t9.5 -22.5v-32h-64v32zM128 54l-16 41l-7 16v2l23 11l23 -11v-2l-7 -16zM403 385l-30 77h-1q-1 8 -6.5 13t-13.5 5
t-13.5 -5t-7.5 -13l-30 -77l-13 -33v-320q0 -27 18.5 -45.5t45.5 -18.5t45.5 18.5t18.5 45.5q13 0 22.5 9.5t9.5 22.5v96q0 13 -9.5 22.5t-22.5 9.5v160zM373 373l9 -21h-60l9 21l4 11l17 42l17 -42z" />
    <glyph glyph-name="uniE0DC" unicode="&#xe0dc;" 
d="M414 320q1 9 1.5 17t0.5 14q0 4 -1 8t-3 8t-5 7q-4 5 -10 7.5t-13 2.5h-352q-14 0 -23 -10q-3 -3 -5 -7t-3 -8t-1 -8q1 -28 4 -61t10.5 -87.5t23.5 -99t37 -63.5l6 -4t7 -3t8 -1h224q6 0 11.5 2t9.5 6q26 23 44 88h28q14 0 26.5 3.5t23.5 9.5t20 14.5t15.5 19t10 23
t3.5 26.5q0 22 -7 39.5t-18 27.5t-24.5 17t-25.5 9.5t-23 2.5zM413 176h-10h-6q8 43 13 96h3h6t8 -1.5l10 -3t10 -5.5t8.5 -8.5t6 -12.5t2.5 -17q0 -37 -36 -46q-8 -2 -15 -2z" />
    <glyph glyph-name="uniE0DD" unicode="&#xe0dd;" 
d="M434 320h-145v87q1 31 -7.5 52t-26.5 21q-11 0 -19.5 -3.5t-12.5 -8.5t-6 -10t-2 -9v-3q-3 -34 -16 -62.5t-29.5 -45.5t-34 -29t-28 -16.5t-11.5 -4.5v-256l15 -2q19 0 33.5 -2t23.5 -5.5t16.5 -8.5t14 -10t14.5 -10t20 -10t27.5 -8.5t40.5 -5.5t57 -2q31 0 56 8t41 20
t27 32t17 37t9 43t3.5 42.5t0.5 41.5q0 63 -23.5 95.5t-54.5 32.5zM32 0q13 0 22.5 9.5t9.5 22.5v255q0 13 -9.5 22.5t-22.5 9.5q-7 0 -12.5 -2.5t-10 -7t-7 -10t-2.5 -12.5v-255q0 -13 9.5 -22.5t22.5 -9.5z" />
    <glyph glyph-name="uniE0DE" unicode="&#xe0de;" 
d="M482 134q-65 -66 -158 -66t-158 66q-32 31 -49 72t-17 86q0 93 66 158q11 11 0 22q-5 5 -11.5 5t-11.5 -5q-18 -18 -32 -38.5t-23.5 -43.5t-14.5 -48t-5 -50q0 -106 75 -181q60 -60 145 -72v-39h-48q-7 0 -11.5 -4.5t-4.5 -11.5t4.5 -11.5t11.5 -4.5h128q7 0 11.5 4.5
t4.5 11.5t-4.5 11.5t-11.5 4.5h-48v37q1 0 2 -0.5t2 -0.5q106 0 181 75q11 11 0 23q-5 4 -11.5 4t-11.5 -4zM136 292q0 -78 55 -133t133 -55t133 55t55 133q0 38 -15 73t-40 60t-60 40t-73 15q-78 0 -133 -55t-55 -133z" />
    <glyph glyph-name="uniE0DF" unicode="&#xe0df;" 
d="M480 160v64q0 13 -9.5 22.5t-22.5 9.5h-160v64h96q13 0 22.5 9.5t9.5 22.5v32q0 13 -9.5 22.5t-22.5 9.5h-224q-13 0 -22.5 -9.5t-9.5 -22.5v-32q0 -13 9.5 -22.5t22.5 -9.5h96v-64h-160q-13 0 -22.5 -9.5t-9.5 -22.5v-64q-13 0 -22.5 -9.5t-9.5 -22.5v-64
q0 -13 9.5 -22.5t22.5 -9.5h32q13 0 22.5 9.5t9.5 22.5v32v32q0 13 -9.5 22.5t-22.5 9.5v64h160v-64q-13 0 -22.5 -9.5t-9.5 -22.5v-32v-32q0 -13 9.5 -22.5t22.5 -9.5h32q13 0 22.5 9.5t9.5 22.5v32v32q0 13 -9.5 22.5t-22.5 9.5v64h160v-64q-13 0 -22.5 -9.5t-9.5 -22.5
v-32v-32q0 -13 9.5 -22.5t22.5 -9.5h32q13 0 22.5 9.5t9.5 22.5v64q0 13 -9.5 22.5t-22.5 9.5z" />
    <glyph glyph-name="uniE0E0" unicode="&#xe0e0;" 
d="M480 384h-448q-13 0 -22.5 -9.5t-9.5 -22.5v-288q0 -13 9.5 -22.5t22.5 -9.5h448q13 0 22.5 9.5t9.5 22.5v288q0 13 -9.5 22.5t-22.5 9.5zM435 192h-195q-7 0 -11.5 4.5t-4.5 11.5t4.5 11.5t11.5 4.5h195q6 0 11 -4.5t5 -11.5t-5 -11.5t-11 -4.5zM451 144q0 -7 -5 -11.5
t-11 -4.5h-195q-7 0 -11.5 4.5t-4.5 11.5t4.5 11.5t11.5 4.5h195q6 0 11 -4.5t5 -11.5zM435 256h-195q-7 0 -11.5 4.5t-4.5 11.5t4.5 11.5t11.5 4.5h195q6 0 11 -4.5t5 -11.5t-5 -11.5t-11 -4.5zM129 227q26 0 44.5 -24.5t18.5 -60.5q0 -26 -44 -33q-47 -8 -72 13
q-10 9 -10 20q0 36 18.5 60.5t44.5 24.5zM89 281q0 16 11.5 27.5t27.5 11.5t27.5 -11.5t11.5 -27.5t-11.5 -27t-27.5 -11q-11 0 -19.5 5t-14 14t-5.5 19z" />
    <glyph glyph-name="uniE0E1" unicode="&#xe0e1;" 
d="M416 310v138h16q6 0 11 4.5t5 11.5t-5 11.5t-11 4.5h-320q-6 0 -11 -4.5t-5 -11.5t5 -11.5t11 -4.5h16v-138q0 -7 3 -13.5t8 -10.5l69 -62l-69 -62q-11 -9 -11 -24v-138h-16q-4 0 -8 -2t-6 -6t-2 -8q0 -7 5 -11.5t11 -4.5h320q7 0 11.5 4.5t4.5 11.5t-5 11.5t-11 4.5h-16
v138q0 15 -11 24l-69 62l69 62q11 9 11 24zM384 310l-96 -86l96 -86v-138h-224v138l96 86l-96 86v138h224v-138zM352 356v28h-160v-28l80 -71zM192 92v-60h160v60l-40 36h-80z" />
    <glyph glyph-name="uniE0E2" unicode="&#xe0e2;" 
d="M482 134q-65 -66 -158 -66t-158 66q-32 31 -49 72t-17 86q0 93 66 158q11 11 0 22q-5 5 -11.5 5t-11.5 -5q-18 -18 -32 -38.5t-23.5 -43.5t-14.5 -48t-5 -50q0 -106 75 -181q60 -60 145 -72v-39h-48q-7 0 -11.5 -4.5t-4.5 -11.5t4.5 -11.5t11.5 -4.5h128q7 0 11.5 4.5
t4.5 11.5t-4.5 11.5t-11.5 4.5h-48v37q1 0 2 -0.5t2 -0.5q106 0 181 75q11 11 0 23q-5 4 -11.5 4t-11.5 -4zM324 480q-78 0 -133 -55t-55 -133q0 -51 25 -94.5t68.5 -68.5t94.5 -25q78 0 133 55t55 133q0 51 -25 94.5t-68.5 68.5t-94.5 25zM324 136q-43 0 -78.5 21
t-56.5 56.5t-21 78.5q0 64 45.5 110t110.5 46q21 0 41.5 -5.5t37.5 -15.5t31.5 -24.5t24.5 -31.5t15.5 -37.5t5.5 -41.5t-5.5 -41.5t-15.5 -37.5t-24.5 -31.5t-31.5 -24.5t-37.5 -15.5t-41.5 -5.5z" />
    <glyph glyph-name="uniE0E3" unicode="&#xe0e3;" 
d="M272 448q-99 0 -169.5 -70.5t-70.5 -169.5t70.5 -169.5t169.5 -70.5t169.5 70.5t70.5 169.5t-70.5 169.5t-169.5 70.5zM447 320h-48q-14 44 -37 75q26 -12 47.5 -31.5t37.5 -43.5zM288 320v93q23 -6 43.5 -30.5t34.5 -62.5h-78zM375 288q7 -30 9 -64h-96v64h87zM256 413
v-93h-78q14 38 34.5 62.5t43.5 30.5zM256 288v-64h-96q1 17 3 33t6 31h87zM128 224h-63q2 34 15 64h56q-6 -31 -8 -64zM128 192q1 -17 3 -33t5 -31h-56q-13 30 -15 64h63zM160 192h96v-64h-87q-7 30 -9 64zM256 96v-93q-23 6 -43.5 30.5t-34.5 62.5h78zM288 3v93h78
q-28 -79 -78 -93zM288 128v64h96q-2 -34 -9 -64h-87zM416 192h63q-1 -17 -5 -33t-10 -31h-56q6 31 8 64zM416 224l-2 22t-2.5 21.5t-3.5 20.5h56q13 -30 15 -64h-63zM182 395q-23 -31 -37 -75h-48q32 50 85 75zM97 96h48q7 -22 16.5 -41t20.5 -34q-53 25 -85 75zM362 21
q23 31 37 75h48q-32 -50 -85 -75z" />
    <glyph glyph-name="uniE0E4" unicode="&#xe0e4;" 
d="M384 480h-256h-96q-13 0 -22.5 -9.5t-9.5 -22.5v-448q0 -13 9.5 -22.5t22.5 -9.5h448q13 0 22.5 9.5t9.5 22.5v384l-96 96h-32zM352 320v128h32v-128q0 -13 -9.5 -22.5t-22.5 -9.5h-192q-13 0 -22.5 9.5t-9.5 22.5v128h128v-128h96zM96 192q0 13 9.5 22.5t22.5 9.5h256
q13 0 22.5 -9.5t9.5 -22.5v-192h-320v192z" />
    <glyph glyph-name="uniE0E5" unicode="&#xe0e5;" 
d="M64 -32h384q27 0 45.5 18.5t18.5 45.5v32v2.5v2v2.5v2l-32 343q-2 25 -20 44.5t-44 19.5h-320q-26 0 -44 -19.5t-20 -44.5l-32 -343v-3v-1.5v-2v-2.5v-32q0 -27 18.5 -45.5t45.5 -18.5zM32 32v32q0 13 9.5 22.5t22.5 9.5h384q13 0 22.5 -9.5t9.5 -22.5v-32
q0 -13 -9.5 -22.5t-22.5 -9.5h-384q-13 0 -22.5 9.5t-9.5 22.5zM416 48q0 -7 4.5 -11.5t11.5 -4.5q13 3 16 16q0 7 -4.5 11.5t-11.5 4.5t-11.5 -4.5t-4.5 -11.5zM355 48.5q0 -6.5 5 -11t11 -4.5q5 0 8.5 2t5.5 5.5t2 8.5q0 6 -4.5 11t-11 5t-11.5 -5t-5 -11.5zM80 32h224
q7 0 11.5 4.5t4.5 11.5t-4.5 11.5t-11.5 4.5h-224q-7 0 -11.5 -4.5t-4.5 -11.5t4.5 -11.5t11.5 -4.5z" />
    <glyph glyph-name="uniE0E6" unicode="&#xe0e6;" 
d="M416 448h-96q0 13 -9.5 22.5t-22.5 9.5h-64q-13 0 -22.5 -9.5t-9.5 -22.5h-96q-13 0 -22.5 -9.5t-9.5 -22.5v-416q0 -13 9.5 -22.5t22.5 -9.5h320q13 0 22.5 9.5t9.5 22.5v416q0 13 -9.5 22.5t-22.5 9.5zM416 32h-320v384h64q0 -13 9.5 -22.5t22.5 -9.5h32h64h32
q13 0 22.5 9.5t9.5 22.5h64v-384zM128 304q0 -7 4.5 -11.5t11.5 -4.5h224q7 0 11.5 4.5t4.5 11.5t-4.5 11.5t-11.5 4.5h-224q-7 0 -11.5 -4.5t-4.5 -11.5zM368 224h-224q-7 0 -11.5 -4.5t-4.5 -11.5t4.5 -11.5t11.5 -4.5h224q7 0 11.5 4.5t4.5 11.5t-4.5 11.5t-11.5 4.5z
M368 128h-224q-7 0 -11.5 -4.5t-4.5 -11.5t4.5 -11.5t11.5 -4.5h224q7 0 11.5 4.5t4.5 11.5t-4.5 11.5t-11.5 4.5z" />
    <glyph glyph-name="uniE0E7" unicode="&#xe0e7;" 
d="M96 -32h320q13 0 22.5 9.5t9.5 22.5v448q0 13 -9.5 22.5t-22.5 9.5h-320q-13 0 -22.5 -9.5t-9.5 -22.5v-448q0 -13 9.5 -22.5t22.5 -9.5zM352 128q-13 0 -22.5 9.5t-9.5 22.5t9.5 22.5t22.5 9.5t22.5 -9.5t9.5 -22.5t-9.5 -22.5t-22.5 -9.5zM384 64q0 -13 -9.5 -22.5
t-22.5 -9.5t-22.5 9.5t-9.5 22.5t9.5 22.5t22.5 9.5t22.5 -9.5t9.5 -22.5zM352 224q-13 0 -22.5 9.5t-9.5 22.5t9.5 22.5t22.5 9.5t22.5 -9.5t9.5 -22.5t-9.5 -22.5t-22.5 -9.5zM128 352v64h256v-64h-256zM256 128q-13 0 -22.5 9.5t-9.5 22.5t9.5 22.5t22.5 9.5t22.5 -9.5
t9.5 -22.5t-9.5 -22.5t-22.5 -9.5zM288 64q0 -13 -9.5 -22.5t-22.5 -9.5t-22.5 9.5t-9.5 22.5t9.5 22.5t22.5 9.5t22.5 -9.5t9.5 -22.5zM256 224q-13 0 -22.5 9.5t-9.5 22.5t9.5 22.5t22.5 9.5t22.5 -9.5t9.5 -22.5t-9.5 -22.5t-22.5 -9.5zM160 288q13 0 22.5 -9.5
t9.5 -22.5t-9.5 -22.5t-22.5 -9.5t-22.5 9.5t-9.5 22.5t9.5 22.5t22.5 9.5zM160 192q13 0 22.5 -9.5t9.5 -22.5t-9.5 -22.5t-22.5 -9.5t-22.5 9.5t-9.5 22.5t9.5 22.5t22.5 9.5zM160 96q13 0 22.5 -9.5t9.5 -22.5t-9.5 -22.5t-22.5 -9.5t-22.5 9.5t-9.5 22.5t9.5 22.5
t22.5 9.5z" />
    <glyph glyph-name="uniE0E8" unicode="&#xe0e8;" 
d="M384 480h-64h-192h-96q-13 0 -22.5 -9.5t-9.5 -22.5v-448q0 -13 9.5 -22.5t22.5 -9.5h448q13 0 22.5 9.5t9.5 22.5v384l-96 96h-32zM384 448v-128h-64v128h64zM288 448v-128h-160v128h160zM128 0v192h256v-192h-256zM480 0h-64v192q0 13 -9.5 22.5t-22.5 9.5h-256
q-13 0 -22.5 -9.5t-9.5 -22.5v-192h-64v448h64v-128q0 -13 9.5 -22.5t22.5 -9.5h192h64q13 0 22.5 9.5t9.5 22.5v115l64 -64v-371z" />
    <glyph glyph-name="uniE0E9" unicode="&#xe0e9;" 
d="M144 216q8 0 13 6l71 91l48 -57q4 -5 12 -5t12 5l112 134q11 12 -1.5 22.5t-22.5 -2.5l-100 -119l-49 58q-4 5 -12 5t-13 -6l-82 -106q-10 -13 3 -23q4 -3 9 -3zM496 480h-48h-352h-48q-6 0 -11 -4.5t-5 -11.5q0 -4 2 -8t6 -6t8 -2h16v-288q0 -13 9.5 -22.5t22.5 -9.5
h160v-50l-91 -82q-12 -11 -1 -23q5 -5 11.5 -5t11.5 4l69 63v-51q0 -7 4.5 -11.5t11.5 -4.5t11.5 4.5t4.5 11.5v51l69 -63q3 -2 5.5 -3t5.5 -1t6 1.5t6 3.5q4 5 4 11.5t-5 11.5l-91 82v50h160q13 0 22.5 9.5t9.5 22.5v288h16q6 0 11 4.5t5 11.5q0 4 -2 8t-6 6t-8 2zM448 160
h-352v288h352v-288z" />
    <glyph glyph-name="uniE0EA" unicode="&#xe0ea;" 
d="M480 416q-2 25 -20 44.5t-44 19.5h-320q-26 0 -44 -19.5t-20 -44.5l-32 -343v-3v-1.5v-2v-2.5v-32q0 -27 18.5 -45.5t45.5 -18.5h384q27 0 45.5 18.5t18.5 45.5v32v2.5v2v2.5v2zM32 32v32q0 13 9.5 22.5t22.5 9.5h384q13 0 22.5 -9.5t9.5 -22.5v-32q0 -13 -9.5 -22.5
t-22.5 -9.5h-384q-13 0 -22.5 9.5t-9.5 22.5zM64 414q1 12 10.5 23t21.5 11h320q8 0 15.5 -5.5t12 -13.5t4.5 -16l27 -291q-13 6 -27 6h-384q-14 0 -27 -6zM416 48q0 -7 4.5 -11.5t11.5 -4.5q13 3 16 16q0 7 -4.5 11.5t-11.5 4.5t-11.5 -4.5t-4.5 -11.5zM352 48
q0 -7 4.5 -11.5t11.5 -4.5q13 3 16 16q0 7 -4.5 11.5t-11.5 4.5t-11.5 -4.5t-4.5 -11.5zM80 32h224q7 0 11.5 4.5t4.5 11.5t-4.5 11.5t-11.5 4.5h-224q-7 0 -11.5 -4.5t-4.5 -11.5t4.5 -11.5t11.5 -4.5z" />
    <glyph glyph-name="uniE0EB" unicode="&#xe0eb;" 
d="M78 128h146v-83q-2 -77 47 -77q18 0 30.5 9t15.5 16t3 9q6 96 100 146l28 12v256l-47 2q-24 0 -41 3.5t-26.5 9t-17.5 12t-19.5 13t-27.5 12t-45.5 9t-69.5 3.5q-31 0 -56 -8t-41 -20t-27 -32t-17 -37t-9 -43t-3.5 -42.5t-0.5 -41.5q0 -63 23.5 -95.5t54.5 -32.5z
M154 448q36 0 61.5 -2.5t41 -8t22.5 -9t16 -10.5q22 -16 43.5 -24t61.5 -8l16 -1v-204q-19 -8 -36.5 -20.5t-38.5 -33t-35.5 -51.5t-17.5 -68q0 -1 -1 -2t-3 -2.5t-5.5 -2.5t-7.5 -1q-6 0 -8 2q-8 8 -7 43v83v32h-32h-146q-7 0 -13.5 4t-12.5 12t-10.5 19t-7 27t-2.5 34
q0 28 1.5 50t5 42.5t9.5 35.5t15 27.5t22 20t30 12t39 4.5zM496 448q-7 0 -11.5 -4.5t-4.5 -11.5v-287q0 -6 4.5 -11t11.5 -5t11.5 5t4.5 11v287q0 7 -4.5 11.5t-11.5 4.5z" />
    <glyph glyph-name="uniE0EC" unicode="&#xe0ec;" 
d="M32 0q0 -13 9.5 -22.5t22.5 -9.5h384q13 0 22.5 9.5t9.5 22.5v448q0 13 -9.5 22.5t-22.5 9.5h-384q-13 0 -22.5 -9.5t-9.5 -22.5v-448zM64 448h384v-448h-384v448zM128 192h64v-128h-64v128zM224 352h64v-288h-64v288zM320 288h64v-224h-64v224z" />
    <glyph glyph-name="uniE0ED" unicode="&#xe0ed;" 
d="M272 448q-99 0 -169.5 -70.5t-70.5 -169.5t70.5 -169.5t169.5 -70.5t169.5 70.5t70.5 169.5t-70.5 169.5t-169.5 70.5zM272 0q-86 0 -147 61t-61 147t61 147t147 61t147 -61t61 -147t-61 -147t-147 -61zM299 320q22 0 37.5 -14t15.5 -34q0 -7 4.5 -11.5t11.5 -4.5
t11.5 4.5t4.5 11.5q0 33 -25 56.5t-60 23.5h-11v16q0 7 -4.5 11.5t-11.5 4.5t-11.5 -4.5t-4.5 -11.5v-16h-11q-23 0 -42.5 -10.5t-31 -29t-11.5 -40.5t11.5 -40.5t31 -29t42.5 -10.5h11v-96h-11q-22 0 -37.5 14t-15.5 34q0 7 -4.5 11.5t-11.5 4.5t-11.5 -4.5t-4.5 -11.5
q0 -22 11.5 -40.5t31 -29t42.5 -10.5h11v-16q0 -7 4.5 -11.5t11.5 -4.5t11.5 4.5t4.5 11.5v16h11q35 0 60 23.5t25 56.5t-25 56.5t-60 23.5h-11v96h11zM299 192q22 0 37.5 -14t15.5 -34t-15.5 -34t-37.5 -14h-11v96h11zM256 224h-11q-22 0 -37.5 14t-15.5 34q0 8 2.5 15
t7.5 13t11.5 10.5t14.5 7t17 2.5h11v-96z" />
    <glyph glyph-name="uniE0EE" unicode="&#xe0ee;" 
d="M96 -32h320q13 0 22.5 9.5t9.5 22.5v448q0 13 -9.5 22.5t-22.5 9.5h-320q-13 0 -22.5 -9.5t-9.5 -22.5v-448q0 -13 9.5 -22.5t22.5 -9.5zM96 448h320v-448h-320v448zM352 416h-192q-13 0 -22.5 -9.5t-9.5 -22.5v-32q0 -13 9.5 -22.5t22.5 -9.5h192q13 0 22.5 9.5
t9.5 22.5v32q0 13 -9.5 22.5t-22.5 9.5zM352 352h-192v32h192v-32zM128 256q0 -13 9.5 -22.5t22.5 -9.5t22.5 9.5t9.5 22.5t-9.5 22.5t-22.5 9.5t-22.5 -9.5t-9.5 -22.5zM128 160q0 -13 9.5 -22.5t22.5 -9.5t22.5 9.5t9.5 22.5t-9.5 22.5t-22.5 9.5t-22.5 -9.5t-9.5 -22.5z
M128 64q0 -13 9.5 -22.5t22.5 -9.5q32 0 32 32q0 13 -9.5 22.5t-22.5 9.5t-22.5 -9.5t-9.5 -22.5zM224 256q0 -13 9.5 -22.5t22.5 -9.5t22.5 9.5t9.5 22.5t-9.5 22.5t-22.5 9.5t-22.5 -9.5t-9.5 -22.5zM224 160q0 -13 9.5 -22.5t22.5 -9.5t22.5 9.5t9.5 22.5t-9.5 22.5
t-22.5 9.5t-22.5 -9.5t-9.5 -22.5zM224 64q0 -13 9.5 -22.5t22.5 -9.5q32 0 32 32q0 13 -9.5 22.5t-22.5 9.5t-22.5 -9.5t-9.5 -22.5zM320 256q0 -13 9.5 -22.5t22.5 -9.5t22.5 9.5t9.5 22.5t-9.5 22.5t-22.5 9.5t-22.5 -9.5t-9.5 -22.5zM320 160q0 -13 9.5 -22.5t22.5 -9.5
t22.5 9.5t9.5 22.5t-9.5 22.5t-22.5 9.5t-22.5 -9.5t-9.5 -22.5zM320 64q0 -13 9.5 -22.5t22.5 -9.5q32 0 32 32q0 13 -9.5 22.5t-22.5 9.5t-22.5 -9.5t-9.5 -22.5z" />
    <glyph glyph-name="uniE0EF" unicode="&#xe0ef;" 
d="M320 416h32v-32h-32v32zM384 416h32v-32h-32v32zM320 352h32v-32h-32v32zM384 352h32v-32h-32v32zM320 288h32v-32h-32v32zM384 288h32v-32h-32v32zM320 224h32v-32h-32v32zM384 224h32v-32h-32v32zM320 160h32v-32h-32v32zM384 160h32v-32h-32v32zM448 480h-160
q-13 0 -22.5 -9.5t-9.5 -22.5v-96h-160q-13 0 -22.5 -9.5t-9.5 -22.5v-320q0 -13 9.5 -22.5t22.5 -9.5h352q13 0 22.5 9.5t9.5 22.5v448q0 13 -9.5 22.5t-22.5 9.5zM192 0h-32v64h32v-64zM224 0v64v32h-32h-32h-32v-32v-64h-32v320h160v-320h-32zM384 0h-32v64h32v-64z
M448 0h-32v64v32h-32h-32h-32v-96h-32v320v128h160v-448zM128 288h32v-32h-32v32zM192 288h32v-32h-32v32zM128 224h32v-32h-32v32zM192 224h32v-32h-32v32zM128 160h32v-32h-32v32zM192 160h32v-32h-32v32z" />
    <glyph glyph-name="uniE0F0" unicode="&#xe0f0;" 
d="M480 480h-416q-13 0 -22.5 -9.5t-9.5 -22.5t9.5 -22.5t22.5 -9.5v-256q0 -13 9.5 -22.5t22.5 -9.5h160v-50l-91 -82q-12 -11 -1 -23q5 -5 11.5 -5t11.5 4l69 63v-51q0 -7 4.5 -11.5t11.5 -4.5t11.5 4.5t4.5 11.5v51l69 -63q3 -2 5.5 -3t5.5 -1t6 1.5t6 3.5q4 5 4 11.5
t-5 11.5l-91 82v50h160q13 0 22.5 9.5t9.5 22.5v256q13 0 22.5 9.5t9.5 22.5t-9.5 22.5t-22.5 9.5zM411 356l-112 -108q-11 -10 -22 0l-49 47l-72 -74q-2 -2 -5 -3.5t-6.5 -1.5t-6 1t-5.5 3q-11 11 0 23l82 86q12 11 23 1l50 -48l101 98q12 11 23 -0.5t-1 -23.5z" />
    <glyph glyph-name="uniE0F1" unicode="&#xe0f1;" 
d="M78 128h145v-87q-1 -31 7.5 -52t26.5 -21q11 0 19.5 3.5t12.5 8t6 10.5t2 8v4q2 25 9.5 47t18 37.5t23 28.5t24.5 21t22 13.5t16 8l6 2.5v256l-15 2q-24 0 -41 3.5t-26.5 9t-17.5 12t-19.5 13t-27.5 12t-45.5 9t-69.5 3.5q-28 0 -50 -5.5t-37.5 -17t-27.5 -24t-19 -31.5
t-11 -34.5t-6 -38.5t-2.5 -37t-0.5 -36q0 -43 12 -73t29.5 -42.5t36.5 -12.5zM480 448q-4 0 -8.5 -1t-8 -3t-6.5 -5t-5 -6.5t-3 -8t-1 -8.5v-255q0 -13 9.5 -22.5t22.5 -9.5q9 0 16 4t11.5 11.5t4.5 16.5v255q0 13 -9.5 22.5t-22.5 9.5z" />
    <glyph glyph-name="uniE0F2" unicode="&#xe0f2;" 
d="M64 480q-13 0 -22.5 -9.5t-9.5 -22.5v-448q0 -13 9.5 -22.5t22.5 -9.5h416q13 0 22.5 9.5t9.5 22.5v448q0 13 -9.5 22.5t-22.5 9.5h-416zM448 306v-274h-96v274h96zM320 384v-352h-96v352h96zM192 188v-156h-96v156h96z" />
    <glyph glyph-name="uniE0F3" unicode="&#xe0f3;" 
d="M272 448q-99 0 -169.5 -70.5t-70.5 -169.5t70.5 -169.5t169.5 -70.5t169.5 70.5t70.5 169.5t-70.5 169.5t-169.5 70.5zM299 224q35 0 60 -23.5t25 -56.5q0 -22 -11.5 -40.5t-31 -29t-42.5 -10.5h-11v-16q0 -7 -4.5 -11.5t-11.5 -4.5t-11.5 4.5t-4.5 11.5v16h-11
q-35 0 -60 23.5t-25 56.5q0 7 4.5 11.5t11.5 4.5t11.5 -4.5t4.5 -11.5q0 -10 4 -19t11 -15t17 -10t21 -4h11v96h-11q-35 0 -60 23.5t-25 56.5t25 56.5t60 23.5h11v16q0 7 4.5 11.5t11.5 4.5t11.5 -4.5t4.5 -11.5v-16h11q35 0 60 -23.5t25 -56.5q0 -7 -4.5 -11.5t-11.5 -4.5
t-11.5 4.5t-4.5 11.5q0 20 -15.5 34t-37.5 14h-11v-96h11zM192 272q0 -8 2.5 -15t7.5 -13t11.5 -10.5t14.5 -7t17 -2.5h11v96h-11q-22 0 -37.5 -14t-15.5 -34zM299 96q22 0 37.5 14t15.5 34q0 13 -7 24t-19 17.5t-27 6.5h-11v-96h11z" />
    <glyph glyph-name="uniE0F4" unicode="&#xe0f4;" 
d="M480 352h-96v64q0 13 -9.5 22.5t-22.5 9.5h-192q-13 0 -22.5 -9.5t-9.5 -22.5v-64h-96q-13 0 -22.5 -9.5t-9.5 -22.5v-288q0 -13 9.5 -22.5t22.5 -9.5h448q13 0 22.5 9.5t9.5 22.5v288q0 13 -9.5 22.5t-22.5 9.5zM160 416h192v-64h-192v64z" />
    <glyph glyph-name="uniE0F5" unicode="&#xe0f5;" 
d="M256 480q-106 0 -181 -75t-75 -181t75 -181t181 -75t181 75t75 181t-75 181t-181 75zM256 0q-93 0 -158.5 65.5t-65.5 158.5t65.5 158.5t158.5 65.5t158.5 -65.5t65.5 -158.5t-65.5 -158.5t-158.5 -65.5zM256 384q-66 0 -113 -47t-47 -113t47 -113t113 -47t113 47t47 113
t-47 113t-113 47zM256 128q-40 0 -68 28t-28 68t28 68t68 28t68 -28t28 -68t-28 -68t-68 -28zM224 224q0 -13 9.5 -22.5t22.5 -9.5t22.5 9.5t9.5 22.5t-9.5 22.5t-22.5 9.5t-22.5 -9.5t-9.5 -22.5z" />
    <glyph glyph-name="uniE0F6" unicode="&#xe0f6;" 
d="M247 -31q5 -1 9 -1h2.5t3 0.5t3.5 0.5q41 12 75 32.5t56.5 45.5t40 54.5t26 59.5t14.5 60t5 55.5t-2 47.5q-2 12 -11 20t-21 8q-2 0 -5 1t-8 5t-9 10t-7 18.5t-3 29.5q0 13 -9 23q-7 7 -19 14t-48.5 17t-83.5 10t-83.5 -10t-48.5 -17t-19 -14q-9 -10 -9 -23
q0 -17 -3 -29.5t-7 -18.5t-9 -10t-8 -5t-6 -1q-8 0 -14.5 -3.5t-11 -10t-5.5 -14.5q-5 -24 -2 -56.5t8.5 -66.5t22.5 -70t40 -66.5t61 -56t85 -39.5zM64 320q3 0 7 0.5t15 6t19.5 14.5t15.5 28.5t7 46.5q4 4 12 9t40.5 14t75.5 9t75 -8t43 -16l10 -8q0 -27 6.5 -46.5
t16 -28.5t19 -14.5t16.5 -6.5h6q1 -5 1.5 -14.5t-0.5 -37.5t-5.5 -54.5t-18 -60.5t-33.5 -62t-55 -53t-81 -38q-63 18 -105.5 57.5t-59 83t-24 84.5t-5.5 68zM256 160q13 0 22.5 9.5t9.5 22.5v160q0 13 -9.5 22.5t-22.5 9.5t-22.5 -9.5t-9.5 -22.5v-160q0 -13 9.5 -22.5
t22.5 -9.5zM224 96q0 -13 9.5 -22.5t22.5 -9.5q24 0 31 22q1 6 1 10q0 13 -9.5 22.5t-22.5 9.5t-22.5 -9.5t-9.5 -22.5z" />
    <glyph glyph-name="uniE0F7" unicode="&#xe0f7;" 
d="M32 0h288q13 0 22.5 9.5t9.5 22.5v43q10 5 19 12l98 -98q5 -5 11.5 -5t11.5 4.5t5 11.5t-5 11l-98 99q10 14 16 31t6 35q0 33 -17.5 60t-46.5 41v171q0 13 -9.5 22.5t-22.5 9.5h-288q-13 0 -22.5 -9.5t-9.5 -22.5v-416q0 -13 9.5 -22.5t22.5 -9.5zM304 96
q-33 0 -56.5 23.5t-23.5 56.5t23.5 56.5t56.5 23.5t56.5 -23.5t23.5 -56.5t-23.5 -56.5t-56.5 -23.5zM272 352h-192q-7 0 -11.5 4.5t-4.5 11.5t4.5 11.5t11.5 4.5h192q7 0 11.5 -4.5t4.5 -11.5t-4.5 -11.5t-11.5 -4.5zM80 288h192q4 0 8 -3q-31 -6 -54 -29h-146
q-7 0 -11.5 4.5t-4.5 11.5t4.5 11.5t11.5 4.5zM80 192h114q-2 -11 -2 -16t1 -14q1 -1 1 -2h-114q-7 0 -11.5 4.5t-4.5 11.5t4.5 11.5t11.5 4.5z" />
    <glyph glyph-name="uniE0F8" unicode="&#xe0f8;" 
d="M320 256h-128v-160q0 -18 -32 -53.5t-32 -42.5v-16q0 -7 4.5 -11.5t11.5 -4.5h224q7 0 11.5 4.5t4.5 11.5v16q0 7 -32 42.5t-32 53.5v160zM371 447v1h-32v-1q-1 0 -1.5 0.5t-1.5 0.5q-7 0 -11.5 -4.5t-4.5 -11.5v-16h-32v16q0 4 -2 7.5t-5 5.5t-6 2v1h-32v-1
q-1 0 -1.5 0.5t-1.5 0.5q-7 0 -11.5 -4.5t-4.5 -11.5v-16h-32v16q0 13 -13 15v1h-32v-1q-1 0 -1.5 0.5t-1.5 0.5q-7 0 -11.5 -4.5t-4.5 -11.5v-48v-32q0 -13 9 -23l32 -32q10 -9 23 -9h128q13 0 23 9l32 32q9 10 9 23v32v48q0 4 -2 7.5t-5 5.5t-6 2z" />
    <glyph glyph-name="uniE0F9" unicode="&#xe0f9;" 
d="M190 79q-30 0 -50 22q-8 9 -15.5 11.5t-13 -0.5t-9 -9.5t-5.5 -15.5q-15 -58 -8.5 -84.5t11 -30.5t8.5 -4l340 -1q26 0 45 19t19 45v224v4v3v4v17t-0.5 16.5t-2.5 14t-5 10.5t-8 4.5t-12 -2.5q-45 -20 -107 -7q-12 2 -19.5 8t-7 15t11.5 20q11 10 16.5 22.5t5.5 27.5
q0 28 -19.5 48t-48.5 20q-9 0 -17.5 -2.5t-16 -7t-14 -10.5t-11 -13.5t-7 -16.5t-2.5 -18q0 -15 7 -28t19 -25q30 -30 -27 -40q-26 -5 -59.5 1t-48.5 11t-26 0q-32 -34 -16 -116q3 -14 6 -22.5t7.5 -11t7.5 -3.5t7.5 2t6.5 4.5t5 5.5q8 7 15.5 12.5t17.5 9t20 3.5
q28 0 48 -20t20 -48q0 -14 -5.5 -26.5t-14.5 -21.5t-21.5 -14.5t-26.5 -5.5z" />
    <glyph glyph-name="uniE0FA" unicode="&#xe0fa;" 
d="M480 320h-32v128q0 13 -9.5 22.5t-22.5 9.5h-320q-13 0 -22.5 -9.5t-9.5 -22.5v-128h-32q-13 0 -22.5 -9.5t-9.5 -22.5v-160q0 -13 9.5 -22.5t22.5 -9.5h32v-96q0 -13 9.5 -22.5t22.5 -9.5h320q13 0 22.5 9.5t9.5 22.5v96h32q13 0 22.5 9.5t9.5 22.5v160q0 13 -9.5 22.5
t-22.5 9.5zM96 160h320v-160h-320v160zM352 240q0 7 4.5 11.5t11.5 4.5t11.5 -4.5t4.5 -11.5t-4.5 -11.5t-11.5 -4.5t-11.5 4.5t-4.5 11.5zM80 224q-7 0 -11.5 4.5t-4.5 11.5t4.5 11.5t11.5 4.5t11.5 -4.5t4.5 -11.5t-4.5 -11.5t-11.5 -4.5zM432 224q-7 0 -11.5 4.5
t-4.5 11.5t4.5 11.5t11.5 4.5t11.5 -4.5t4.5 -11.5t-4.5 -11.5t-11.5 -4.5zM96 448h320v-128h-320v128zM384 112q0 7 -4.5 11.5t-11.5 4.5h-224q-7 0 -11.5 -4.5t-4.5 -11.5t4.5 -11.5t11.5 -4.5h224q7 0 11.5 4.5t4.5 11.5zM368 64h-224q-7 0 -11.5 -4.5t-4.5 -11.5
t4.5 -11.5t11.5 -4.5h224q7 0 11.5 4.5t4.5 11.5t-4.5 11.5t-11.5 4.5z" />
    <glyph glyph-name="uniE0FB" unicode="&#xe0fb;" 
d="M256 480q-106 0 -181 -75t-75 -181t75 -181t181 -75t181 75t75 181t-75 181t-181 75zM256 0q-93 0 -158.5 65.5t-65.5 158.5t65.5 158.5t158.5 65.5t158.5 -65.5t65.5 -158.5t-65.5 -158.5t-158.5 -65.5zM226 305q0 20 -14.5 34.5t-34.5 14.5t-34.5 -14.5t-14.5 -34.5
t14.5 -34.5t34.5 -14.5t34.5 14.5t14.5 34.5zM160 305q0 7 5 12t12 5t12 -5t5 -12t-5 -12t-12 -5t-12 5t-5 12zM335 194q-20 0 -34.5 -14.5t-14.5 -34.5t14.5 -34.5t34.5 -14.5t34.5 14.5t14.5 34.5t-14.5 34.5t-34.5 14.5zM335 128q-7 0 -12 5t-5 12t5 12t12 5t12 -5t5 -12
t-5 -12t-12 -5zM363.5 331.5q-11.5 11.5 -22.5 -0.5l-192 -192q-5 -4 -5 -11t5 -11q1 -2 3 -3t4 -1.5t4 -0.5q7 0 11 5l192 192q12 11 0.5 22.5z" />
    <glyph glyph-name="uniE0FC" unicode="&#xe0fc;" 
d="M480 384h-160v-32q13 0 22.5 -9.5t9.5 -22.5t-9.5 -22.5t-22.5 -9.5h-32h-64h-32q-13 0 -22.5 9.5t-9.5 22.5t9.5 22.5t22.5 9.5v32h-160q-13 0 -22.5 -9.5t-9.5 -22.5v-352q0 -13 9.5 -22.5t22.5 -9.5h448q13 0 22.5 9.5t9.5 22.5v352q0 13 -9.5 22.5t-22.5 9.5z
M240 224h195q6 0 11 -4.5t5 -11.5t-5 -11.5t-11 -4.5h-195q-7 0 -11.5 4.5t-4.5 11.5t4.5 11.5t11.5 4.5zM240 160h195q6 0 11 -4.5t5 -11.5t-5 -11.5t-11 -4.5h-195q-7 0 -11.5 4.5t-4.5 11.5t4.5 11.5t11.5 4.5zM240 96h195q6 0 11 -4.5t5 -11.5t-5 -11.5t-11 -4.5h-195
q-7 0 -11.5 4.5t-4.5 11.5t4.5 11.5t11.5 4.5zM192 78q0 -26 -44 -33q-47 -8 -72 13q-10 9 -10 20q0 36 18.5 60.5t44.5 24.5t44.5 -24.5t18.5 -60.5zM167 217q0 -16 -11.5 -27t-27.5 -11t-27.5 11t-11.5 27t11.5 27.5t27.5 11.5q10 0 19 -5t14.5 -14t5.5 -20zM224 448h64
v-128h-64v128z" />
    <glyph glyph-name="uniE0FD" unicode="&#xe0fd;" 
d="M32 -32h416q13 0 22.5 9.5t9.5 22.5v192q0 13 -9.5 22.5t-22.5 9.5h-96q-13 0 -22.5 -9.5t-9.5 -22.5v256q0 13 -9.5 22.5t-22.5 9.5h-96q-13 0 -22.5 -9.5t-9.5 -22.5v-128q0 13 -9.5 22.5t-22.5 9.5h-96q-13 0 -22.5 -9.5t-9.5 -22.5v-320q0 -13 9.5 -22.5t22.5 -9.5z
M32 0v64h32v-64h-32zM64 192v-32h-32v32h32zM32 224v32h32v-32h-32zM64 128v-32h-32v32h32zM96 160v32h32v-32h-32zM128 128v-32h-32v32h32zM96 224v32h32v-32h-32zM96 0v64h32v-64h-32zM128 288h-32v32h32v-32zM64 288h-32v32h32v-32zM256 0v64h32v-64h-32zM224 320v-32
h-32v32h32zM192 352v32h32v-32h-32zM224 256v-32h-32v32h32zM224 192v-32h-32v32h32zM224 128v-32h-32v32h32zM256 160v32h32v-32h-32zM288 128v-32h-32v32h32zM256 224v32h32v-32h-32zM256 288v32h32v-32h-32zM256 352v32h32v-32h-32zM288 416h-32v32h32v-32zM224 416h-32
v32h32v-32zM192 64h32v-64h-32v64zM384 96h-32v32h32v-32zM416 128h32v-32h-32v32zM416 64h32v-64h-32v64zM448 160h-32v32h32v-32zM384 160h-32v32h32v-32zM352 64h32v-64h-32v64z" />
    <glyph glyph-name="uniE0FE" unicode="&#xe0fe;" 
d="M480 352h-96v64q0 13 -9.5 22.5t-22.5 9.5h-192q-13 0 -22.5 -9.5t-9.5 -22.5v-64h-96q-13 0 -22.5 -9.5t-9.5 -22.5v-288q0 -13 9.5 -22.5t22.5 -9.5h448q13 0 22.5 9.5t9.5 22.5v288q0 13 -9.5 22.5t-22.5 9.5zM32 320h128h192h128v-288h-448v288zM160 416h192v-64
h-192v64z" />
    <glyph glyph-name="uniE0FF" unicode="&#xe0ff;" 
d="M507 251l-77 141q-1 0 -1 1q-3 4 -8 6t-10 0l-123 -41v42q0 7 -4.5 11.5t-11.5 4.5t-11.5 -4.5t-4.5 -11.5v-52l-134 -45l-2 -1h-1q-3 -3 -5 -6v0l-80 -140q-2 -4 -2 -10v-1v-1q0 -26 31 -53t65 -27t65 27t31 53q0 1 -0.5 2.5t-0.5 3.5v0l-2 6l-70 123l105 35v-266
q0 -7 4.5 -11.5t11.5 -4.5t11.5 4.5t4.5 11.5v277l94 31l-57 -105q-5 -4 -5 -11q0 -26 31 -53t65 -27t65 27t31 53q0 7 -5 11zM73 160l54 96l55 -96h-109zM364 256l52 95l52 -95h-104z" />
    <glyph glyph-name="uniE100" unicode="&#xe100;" 
d="M480 256v96q0 13 -9.5 22.5t-22.5 9.5h-10l-10 67q-1 6 -6.5 10t-12.5 3l-348 -57q-6 -1 -10 -6t-3 -12l1 -5h-17q-13 0 -22.5 -9.5t-9.5 -22.5v-352q0 -13 9.5 -22.5t22.5 -9.5h416q13 0 22.5 9.5t9.5 22.5v96q13 0 22.5 9.5t9.5 22.5v96q0 13 -9.5 22.5t-22.5 9.5z
M32 352h416v-96h-128q-13 0 -22.5 -9.5t-9.5 -22.5v-96q0 -13 9.5 -22.5t22.5 -9.5h128v-96h-416v352zM117 384l282 46l7 -46h-289zM320 128v96h160v-96h-160zM352 176q0 -7 4.5 -11.5t11.5 -4.5t11.5 4.5t4.5 11.5t-4.5 11.5t-11.5 4.5t-11.5 -4.5t-4.5 -11.5z" />
    <glyph glyph-name="uniE101" unicode="&#xe101;" 
d="M32 0h288q13 0 22.5 9.5t9.5 22.5v43q10 5 19 12l98 -98q5 -5 11.5 -5t11.5 4.5t5 11.5t-5 11l-98 99q10 14 16 31t6 35q0 33 -17.5 60t-46.5 41v171q0 13 -9.5 22.5t-22.5 9.5h-288q-13 0 -22.5 -9.5t-9.5 -22.5v-416q0 -13 9.5 -22.5t22.5 -9.5zM304 96
q-33 0 -56.5 23.5t-23.5 56.5t23.5 56.5t56.5 23.5t56.5 -23.5t23.5 -56.5t-23.5 -56.5t-56.5 -23.5zM32 448h288v-160h-235q-9 0 -15 -4.5t-6 -11.5q0 -4 3 -8t7.5 -6t10.5 -2h141q-27 -26 -32 -64h-114q-7 0 -11.5 -4.5t-4.5 -11.5t4.5 -11.5t11.5 -4.5h114
q3 -27 18.5 -49t39.5 -34.5t52 -12.5q5 0 16 2v-34h-288v416zM80 352h192q7 0 11.5 4.5t4.5 11.5t-4.5 11.5t-11.5 4.5h-192q-7 0 -11.5 -4.5t-4.5 -11.5t4.5 -11.5t11.5 -4.5z" />
    <glyph glyph-name="uniE102" unicode="&#xe102;" 
d="M180 105q-22 0 -38 16q-13 13 -28 15t-26 -8t-15 -29q-19 -90 4 -118q9 -12 22 -12l334 -1q33 0 56 22.5t23 53.5v210v10q1 52 -13 66q-7 7 -16.5 8t-20.5 -3q-39 -17 -96 -6q-4 1 -7.5 2t-4.5 2l-1 1l7 7q13 12 20 27.5t7 31.5q0 33 -24.5 56.5t-58.5 23.5t-58.5 -23.5
t-24.5 -56.5q0 -16 7.5 -31.5t22.5 -29.5q4 -3 4 -4q-7 -3 -21 -6q-11 -3 -31.5 -1t-29.5 3.5t-27 5.5q-42 10 -53 -2q-8 -7 -13.5 -19t-10.5 -39.5t4 -63.5q9 -48 37 -48q4 0 8.5 1.5t9 4.5t6.5 5l5 5q10 9 21 13.5t21 4.5t19 -3.5t16 -9.5t11 -15t4 -19q0 -19 -15 -33
t-36 -14zM180 232q-34 0 -64 -29l-5 -5q-4 7 -7 21q-12 64 10 92q5 0 25 -5q45 -11 72 -11q15 0 28 3q43 7 49 28q5 18 -15 37q-7 6 -11 12t-6.5 12.5t-2.5 12.5q0 13 7 24t18.5 17.5t25.5 6.5q21 0 36 -14t15 -34t-17 -34q-21 -20 -16 -40q3 -11 13 -18t25 -10
q66 -13 114 7q1 0 2 0.5l1 0.5q3 -7 3 -42v-220q0 -18 -14 -31t-33 -13h-331q-2 2 -4 6.5t-1.5 27.5t7.5 59q2 10 6 12q3 0 9 -7q25 -25 61 -25q34 0 58.5 23.5t24.5 55.5q0 22 -11.5 40.5t-30.5 29t-41 10.5z" />
    <glyph glyph-name="uniE103" unicode="&#xe103;" 
d="M480 320h-32v128q0 13 -9.5 22.5t-22.5 9.5h-320q-13 0 -22.5 -9.5t-9.5 -22.5v-128h-32q-13 0 -22.5 -9.5t-9.5 -22.5v-160q0 -13 9.5 -22.5t22.5 -9.5h32v-96q0 -13 9.5 -22.5t22.5 -9.5h320q13 0 22.5 9.5t9.5 22.5v96h32q13 0 22.5 9.5t9.5 22.5v160q0 13 -9.5 22.5
t-22.5 9.5zM96 160h320v-160h-320v160zM416 192h-320q-13 0 -22.5 -9.5t-9.5 -22.5v-32h-32v160h448v-160h-32v32q0 13 -9.5 22.5t-22.5 9.5zM96 448h320v-128h-320v128zM352 240q0 -7 4.5 -11.5t11.5 -4.5t11.5 4.5t4.5 11.5t-4.5 11.5t-11.5 4.5t-11.5 -4.5t-4.5 -11.5z
M64 240q0 -7 4.5 -11.5t11.5 -4.5t11.5 4.5t4.5 11.5t-4.5 11.5t-11.5 4.5t-11.5 -4.5t-4.5 -11.5zM416 240q0 -7 4.5 -11.5t11.5 -4.5t11.5 4.5t4.5 11.5t-4.5 11.5t-11.5 4.5t-11.5 -4.5t-4.5 -11.5zM384 112q0 7 -4.5 11.5t-11.5 4.5h-224q-7 0 -11.5 -4.5t-4.5 -11.5
t4.5 -11.5t11.5 -4.5h224q7 0 11.5 4.5t4.5 11.5zM368 64h-224q-7 0 -11.5 -4.5t-4.5 -11.5t4.5 -11.5t11.5 -4.5h224q7 0 11.5 4.5t4.5 11.5t-4.5 11.5t-11.5 4.5z" />
    <glyph glyph-name="uniE104" unicode="&#xe104;" 
d="M64 384v-256l5 -12l59 -148l64 160v0v256v32q0 27 -18.5 45.5t-45.5 18.5t-45.5 -18.5t-18.5 -45.5v-32zM96 416q0 13 9.5 22.5t22.5 9.5t22.5 -9.5t9.5 -22.5v-32h-64v32zM128 54l-16 41l-7 16v2l23 11l23 -11v-2l-7 -16zM160 144l-32 16l-32 -16v185v19v4h32h32v-4v-19
v-185zM403 385l-31 79q-4 16 -20 16q-3 0 -6 -1t-5.5 -2.5t-4.5 -4t-3 -5t-1 -5.5h-1l-30 -77l-13 -33v-320q0 -27 18.5 -45.5t45.5 -18.5t45.5 18.5t18.5 45.5q13 0 22.5 9.5t9.5 22.5v96q0 13 -9.5 22.5t-22.5 9.5v160zM384 160v-96v-32q0 -13 -9.5 -22.5t-22.5 -9.5
t-22.5 9.5t-9.5 22.5v320h2h60h2v-160v-32zM369 384h-34l17 42z" />
    <glyph glyph-name="uniE105" unicode="&#xe105;" 
d="M414 320q1 9 1.5 17t0.5 14q0 4 -1 8t-3 8t-5 7q-4 5 -10 7.5t-13 2.5h-352q-14 0 -23 -10q-3 -3 -5 -7t-3 -8t-1 -8q1 -28 4 -61t10.5 -87.5t23.5 -99t37 -63.5l6 -4t7 -3t8 -1h224q6 0 11.5 2t9.5 6q26 23 44 88h28q14 0 26.5 3.5t23.5 9.5t20 14.5t15.5 19t10 23
t3.5 26.5q0 22 -7 39.5t-18 27.5t-24.5 17t-25.5 9.5t-23 2.5zM320 64h-224q-24 21 -40 97t-20 126t-4 65h352q-1 -27 -4 -68t-19.5 -120t-40.5 -100zM413 160h-10h-4.5h-5.5q7 31 11.5 63.5t7.5 64.5h1h5t10 -1.5t13 -3.5t13.5 -7t13 -11.5t9 -17t3.5 -23.5q0 -28 -19 -46
t-48 -18z" />
    <glyph glyph-name="uniE106" unicode="&#xe106;" 
d="M434 320h-146v83q0 18 -2 31.5t-7 24t-14.5 16t-23.5 5.5q-18 0 -30.5 -8.5t-15.5 -17.5l-3 -8q-2 -25 -9.5 -47t-19 -37.5t-25 -28.5t-26.5 -21t-24 -13.5t-17 -8t-7 -2.5v-256l47 -2q19 0 33.5 -2t23.5 -5.5t16.5 -8.5t14 -10t14.5 -10t20 -10t27.5 -8.5t40.5 -5.5
t57 -2q31 0 56 8t41 20t27 32t17 37t9 43t3.5 42.5t0.5 41.5q0 63 -23.5 95.5t-54.5 32.5zM358 0q-29 0 -51.5 2t-36 4.5t-25 7t-16.5 8t-12 8.5q-22 16 -43.5 24t-61.5 8l-16 1v203q19 9 36.5 21.5t38.5 33t35.5 51.5t17.5 68q4 8 17 8q6 0 8 -2q1 -1 2.5 -4t3 -13.5
t1.5 -25.5v-83v-32h32h146q18 0 32 -25.5t14 -70.5q0 -101 -24.5 -146.5t-97.5 -45.5zM16 0q7 0 11.5 4.5t4.5 11.5v287q0 6 -4.5 11t-11.5 5t-11.5 -5t-4.5 -11v-287q0 -7 4.5 -11.5t11.5 -4.5z" />
    <glyph glyph-name="uniE107" unicode="&#xe107;" 
d="M480 384h-448q-13 0 -22.5 -9.5t-9.5 -22.5v-288q0 -13 9.5 -22.5t22.5 -9.5h448q13 0 22.5 9.5t9.5 22.5v288q0 13 -9.5 22.5t-22.5 9.5zM32 352h448v-288h-448v288zM435 224h-195q-7 0 -11.5 -4.5t-4.5 -11.5t4.5 -11.5t11.5 -4.5h195q6 0 11 4.5t5 11.5t-5 11.5
t-11 4.5zM435 160h-195q-7 0 -11.5 -4.5t-4.5 -11.5t4.5 -11.5t11.5 -4.5h195q6 0 11 4.5t5 11.5t-5 11.5t-11 4.5zM435 288h-195q-7 0 -11.5 -4.5t-4.5 -11.5t4.5 -11.5t11.5 -4.5h195q6 0 11 4.5t5 11.5t-5 11.5t-11 4.5zM89 281q0 -16 11.5 -27t27.5 -11q8 0 15 3t12 8
t8.5 12t3.5 15t-3.5 15.5t-8.5 12.5t-12 8t-15 3t-15 -3t-12.5 -8t-8.5 -12.5t-3 -15.5zM129 227q-17 0 -32 -11t-23 -31t-8 -43q0 -16 19.5 -25.5t43 -9.5t43.5 9.5t20 25.5q0 36 -18.5 60.5t-44.5 24.5z" />
    <glyph glyph-name="uniE108" unicode="&#xe108;" 
d="M480 384h-160v-64q0 -13 -9.5 -22.5t-22.5 -9.5h16q20 0 34 14t14 34v16h128v-352h-448v352h128v-16q0 -20 14 -34t34 -14h16q-13 0 -22.5 9.5t-9.5 22.5v64h-160q-13 0 -22.5 -9.5t-9.5 -22.5v-352q0 -13 9.5 -22.5t22.5 -9.5h448q13 0 22.5 9.5t9.5 22.5v352
q0 13 -9.5 22.5t-22.5 9.5zM435 160h-195q-7 0 -11.5 -4.5t-4.5 -11.5t4.5 -11.5t11.5 -4.5h195q6 0 11 4.5t5 11.5t-5 11.5t-11 4.5zM435 96h-195q-7 0 -11.5 -4.5t-4.5 -11.5t4.5 -11.5t11.5 -4.5h195q6 0 11 4.5t5 11.5t-5 11.5t-11 4.5zM240 192h195q6 0 11 4.5t5 11.5
t-5 11.5t-11 4.5h-195q-7 0 -11.5 -4.5t-4.5 -11.5t4.5 -11.5t11.5 -4.5zM89 217q0 -8 3 -15t8.5 -12t12.5 -8t15 -3q10 0 19 5t14.5 14t5.5 19q0 16 -11.5 27.5t-27.5 11.5t-27.5 -11.5t-11.5 -27.5zM129 163q-26 0 -44.5 -24.5t-18.5 -60.5q0 -16 19.5 -25.5t43 -9.5
t43.5 9.5t20 25.5q0 36 -18.5 60.5t-44.5 24.5zM192 320q0 -13 9.5 -22.5t22.5 -9.5h64q13 0 22.5 9.5t9.5 22.5v64v64q0 13 -9.5 22.5t-22.5 9.5h-64q-13 0 -22.5 -9.5t-9.5 -22.5v-64v-64zM288 320h-64v128h64v-128z" />
    <glyph glyph-name="uniE109" unicode="&#xe109;" 
d="M480 160v64q0 13 -9.5 22.5t-22.5 9.5h-160v64h96q13 0 22.5 9.5t9.5 22.5v32q0 13 -9.5 22.5t-22.5 9.5h-224q-13 0 -22.5 -9.5t-9.5 -22.5v-32q0 -13 9.5 -22.5t22.5 -9.5h96v-64h-160q-13 0 -22.5 -9.5t-9.5 -22.5v-64q-13 0 -22.5 -9.5t-9.5 -22.5v-64
q0 -13 9.5 -22.5t22.5 -9.5h32q13 0 22.5 9.5t9.5 22.5v32v32q0 13 -9.5 22.5t-22.5 9.5v64h160v-64q-13 0 -22.5 -9.5t-9.5 -22.5v-32v-32q0 -13 9.5 -22.5t22.5 -9.5h32q13 0 22.5 9.5t9.5 22.5v32v32q0 13 -9.5 22.5t-22.5 9.5v64h160v-64q-13 0 -22.5 -9.5t-9.5 -22.5
v-32v-32q0 -13 9.5 -22.5t22.5 -9.5h32q13 0 22.5 9.5t9.5 22.5v64q0 13 -9.5 22.5t-22.5 9.5zM160 384h224v-32h-224v32zM96 96v-32h-32v64h32v-32zM288 64h-32v64h32v-64zM448 96v32h32v-64h-32v32z" />
    <glyph glyph-name="uniF000" unicode="&#xf000;" horiz-adv-x="0" 
d="M0 480l512 -512h-512v512z" />
  </font>
</defs>
</svg>
